<?xml version="1.0" standalone="no"?>
<!DOCTYPE svg PUBLIC "-//W3C//DTD SVG 20010904//EN"
 "http://www.w3.org/TR/2001/REC-SVG-20010904/DTD/svg10.dtd">
<svg version="1.0" xmlns="http://www.w3.org/2000/svg"
 width="408.000000pt" height="106.000000pt" viewBox="0 0 408.000000 106.000000"
 preserveAspectRatio="xMidYMid meet">
<metadata>
Created by potrace 1.15, written by Peter Selinger 2001-2017
</metadata>
<g transform="translate(0.000000,106.000000) scale(0.100000,-0.100000)"
fill="#000000" stroke="none">
<path d="M820 805 c0 -8 7 -15 15 -15 22 0 22 -245 0 -254 -33 -12 -12 -26 40
-26 57 0 70 11 35 30 -18 10 -20 21 -20 145 l0 135 -35 0 c-24 0 -35 -5 -35
-15z"/>
<path d="M642 773 c-5 -10 -27 -66 -48 -125 -26 -72 -45 -108 -56 -112 -39
-10 -16 -26 37 -26 42 0 55 3 55 15 0 8 -7 15 -15 15 -16 0 -19 9 -9 34 4 12
20 16 55 16 42 0 51 -3 58 -22 7 -18 4 -25 -10 -30 -38 -15 -18 -28 41 -28 37
0 60 4 60 11 0 6 -8 13 -18 16 -13 3 -31 41 -62 129 -34 96 -48 124 -62 124
-9 0 -21 -8 -26 -17z"/>
<path d="M1920 775 c0 -8 7 -15 15 -15 12 0 15 -19 15 -110 0 -91 -3 -110 -15
-110 -8 0 -15 -7 -15 -15 0 -20 127 -21 176 0 69 28 95 149 46 214 -29 40 -60
51 -144 51 -63 0 -78 -3 -78 -15z m153 -26 c31 -14 47 -48 47 -99 0 -73 -33
-110 -100 -110 l-30 0 0 110 0 110 30 0 c16 0 40 -5 53 -11z"/>
<path d="M1255 725 c-5 -2 -22 -6 -37 -9 -21 -5 -28 -12 -28 -31 0 -16 6 -25
15 -25 8 0 15 6 15 14 0 18 38 28 62 15 10 -5 18 -21 18 -34 0 -20 -5 -25 -24
-25 -39 0 -85 -21 -91 -42 -19 -57 28 -93 89 -69 20 7 32 8 34 1 6 -17 62 -12
62 5 0 8 -7 15 -15 15 -12 0 -15 15 -15 79 0 51 -4 82 -12 88 -15 12 -59 22
-73 18z"/>
<path d="M1503 713 c-18 -9 -29 -11 -31 -4 -4 13 -72 15 -72 2 0 -5 9 -13 20
-16 18 -6 20 -15 20 -80 0 -64 -2 -73 -20 -78 -43 -11 -19 -27 40 -27 59 0 79
13 40 25 -17 5 -20 15 -20 70 0 53 3 66 19 75 27 14 41 13 41 -5 0 -8 7 -15
15 -15 10 0 15 10 15 29 0 35 -27 45 -67 24z"/>
<path d="M1652 715 c-70 -30 -84 -145 -23 -192 9 -7 35 -13 58 -13 58 0 93 41
93 110 0 79 -59 123 -128 95z"/>
<path d="M2725 725 c-5 -2 -22 -6 -37 -9 -21 -5 -28 -12 -28 -31 0 -16 6 -25
15 -25 8 0 15 6 15 14 0 18 38 28 62 15 10 -5 18 -21 18 -34 0 -20 -5 -25 -24
-25 -39 0 -85 -21 -91 -42 -19 -57 28 -93 89 -69 20 7 32 8 34 1 6 -17 62 -12
62 5 0 8 -7 15 -15 15 -12 0 -15 15 -15 79 0 51 -4 82 -12 88 -15 12 -59 22
-73 18z"/>
<path d="M2980 713 c-23 -9 -36 -10 -38 -3 -4 12 -72 14 -72 1 0 -5 9 -13 20
-16 18 -6 20 -15 20 -80 0 -64 -2 -73 -20 -78 -39 -10 -20 -27 30 -27 47 0 63
11 40 25 -5 3 -10 35 -10 70 0 55 3 66 21 75 11 6 30 10 42 8 20 -3 22 -10 25
-75 2 -46 -1 -73 -8 -73 -5 0 -10 -7 -10 -15 0 -11 12 -15 45 -15 44 0 60 15
30 26 -11 5 -15 23 -15 78 0 39 -4 76 -8 83 -15 24 -56 32 -92 16z"/>
<path d="M940 713 c0 -3 6 -14 14 -22 7 -9 26 -53 42 -98 24 -70 32 -83 51
-83 22 0 26 7 74 144 8 21 20 41 26 43 28 11 11 23 -32 23 -43 0 -61 -15 -31
-26 11 -4 10 -17 -7 -70 -12 -35 -24 -64 -27 -64 -3 0 -16 30 -27 66 -18 55
-19 66 -7 71 29 11 13 23 -31 23 -25 0 -45 -3 -45 -7z"/>
<path d="M2190 711 c0 -5 9 -13 20 -16 18 -6 20 -15 20 -80 0 -54 4 -78 16
-89 19 -19 66 -21 95 -3 17 10 23 10 26 0 7 -19 63 -17 63 2 0 8 -7 15 -15 15
-12 0 -15 17 -15 90 l0 90 -35 0 c-35 0 -47 -16 -20 -26 11 -5 15 -22 15 -69
0 -60 -1 -63 -30 -75 -52 -22 -60 -11 -60 85 l0 85 -40 0 c-22 0 -40 -4 -40
-9z"/>
</g>
</svg>
