<svg width="171px" height="29px" viewBox="0 0 171 29" version="1.1" xmlns="http://www.w3.org/2000/svg" xmlns:xlink="http://www.w3.org/1999/xlink">
    <!-- Generator: Sketch 3.6.1 (26313) - http://www.bohemiancoding.com/sketch -->
    <title>Page 1</title>
    <desc>Created with Sketch.</desc>
    <defs>
        <path id="path-1" d="M0,0.148630137 L170.123731,0.148630137 L170.123731,29.3013699 L0,29.3013699 L0,0.148630137 Z"/>
        <path id="path-3" d="M0,0 L170.123731,0 L170.123731,29.1527397 L65.3363165,29.1527397 L0,29.1527397 L0,0 Z"/>
    </defs>
    <g id="Page-1" stroke="none" stroke-width="1" fill="none" fill-rule="evenodd">
        <g transform="translate(0.000000, -1.000000)">
            <g>
                <g id="Group-3" transform="translate(0.850746, 0.000000)">
                    <mask id="mask-2" fill="white">
                        <use xlink:href="#path-1"/>
                    </mask>
                    <g id="Clip-2"/>
                    <path d="M66.2809612,17.9517178 L57.0299463,17.9517178 C55.915894,17.9517178 55.060894,18.2612932 54.4670731,18.8791699 C53.8719761,19.4974712 53.5746403,20.3629233 53.5746403,21.475526 L53.5746403,24.2574575 C53.5746403,24.8014438 53.6303642,25.2770603 53.7413866,25.6851562 C53.8536851,26.0932521 54.1195433,26.4703479 54.5406627,26.8164438 C54.8873418,27.1128548 55.302506,27.3417452 55.7853045,27.5022658 C56.268103,27.6636356 56.7198493,27.7438959 57.141394,27.7438959 L62.9005209,27.7438959 C64.0392448,27.7438959 64.8878642,27.4466356 65.445103,26.853389 C66.0027672,26.2601425 66.2809612,25.4070055 66.2809612,24.2944027 L66.2809612,17.9517178 Z M67.8412299,24.0345123 C67.8412299,24.776389 67.7795507,25.4316356 67.6557672,26.0002521 C67.5311328,26.5692932 67.2223119,27.1502247 66.7271776,27.7438959 C66.2069463,28.3371425 65.6246104,28.7452384 64.9805955,28.9677589 C64.3361552,29.1902795 63.6308866,29.3015397 62.8630881,29.3015397 L57.2158343,29.3015397 C55.704909,29.3015397 54.4602672,28.8624438 53.4814836,27.9846767 C52.5027,27.1073342 52.0143716,25.8889918 52.0143716,24.3313479 L52.0143716,21.5124712 C52.0143716,19.9548274 52.4788791,18.7122795 53.4074687,17.7848274 C54.3364836,16.8578 55.5811254,16.394074 57.141394,16.394074 L66.318394,16.394074 L66.318394,15.3927315 C66.318394,14.9476904 66.2494836,14.5022247 66.1137896,14.0571836 C65.9776701,13.6121425 65.7607299,13.217211 65.463394,12.8702658 C65.0669463,12.3759644 64.6275358,12.0672384 64.1451627,11.9432384 C63.6615134,11.819663 63.122991,11.757663 62.5291701,11.757663 L52.0518045,11.757663 L52.0518045,10.1995945 L61.971506,10.1995945 C62.837991,10.1995945 63.6491776,10.2866493 64.4050657,10.4594849 C65.160103,10.6327452 65.8598418,11.0531562 66.5034313,11.7202932 C66.9994164,12.2897589 67.3460955,12.9012658 67.5447448,13.5565123 C67.7425433,14.2117589 67.8412299,14.8984301 67.8412299,15.6148274 L67.8412299,24.0345123 Z M45.3270806,11.757663 L45.3270806,29.3015397 L43.7659612,29.3015397 L43.7659612,4.11722466 L45.3270806,4.11722466 L45.3270806,10.1995945 L50.6029836,10.1995945 L50.6029836,11.757663 L45.3270806,11.757663 Z M39.8278567,29.3015397 L39.8278567,15.0589507 C39.8278567,14.5646493 39.7223642,14.0699233 39.5122299,13.5747726 C39.3012448,13.0804712 38.9979537,12.6723753 38.6019313,12.3513342 C38.1803866,12.1041836 37.7226851,11.9432384 37.2275507,11.8689233 C36.7315657,11.7946082 36.2615284,11.757663 35.8153119,11.757663 L31.394409,11.757663 C30.9235209,11.757663 30.4407224,11.7946082 29.9455881,11.8689233 C29.449603,11.9432384 28.9919015,12.1041836 28.5707821,12.3513342 C28.1492373,12.6477452 27.8404164,13.043526 27.6417672,13.5382521 C27.4431179,14.0325534 27.3452821,14.5395945 27.3452821,15.0589507 L27.3452821,29.3015397 L25.7841627,29.3015397 L25.7841627,15.0954712 C25.7841627,14.3298137 25.9270881,13.587937 26.2120881,12.8702658 C26.4962373,12.1534438 26.9730806,11.5478822 27.6417672,11.0531562 C28.2117672,10.6820055 28.812394,10.4471699 29.4436478,10.3482247 C30.0753269,10.2497041 30.7257224,10.1995945 31.394409,10.1995945 L35.8153119,10.1995945 C36.6575507,10.1995945 37.4253493,10.2807041 38.1191328,10.4412247 C38.8120657,10.6017452 39.4012075,10.8671562 39.8835806,11.2383068 C40.3672299,11.6090329 40.7385806,12.1101288 40.9984836,12.7407452 C41.2588119,13.370937 41.3881254,14.1561288 41.3881254,15.0954712 L41.3881254,29.3015397 L39.8278567,29.3015397 Z M22.5887597,15.3184164 C22.5887597,13.9336082 22.1991179,12.9942658 21.4189836,12.4995397 C20.6388493,12.0052384 19.6047672,11.757663 18.3167373,11.757663 L14.0438642,11.757663 C12.7311627,11.757663 11.7094164,12.0302932 10.9790507,12.5734301 C10.2478343,13.1178411 9.88328955,14.0822384 9.88328955,15.4670466 L9.88328955,21.2160603 C10.9475731,20.7705945 12.0012224,20.313663 13.0412597,19.8431425 C14.081297,19.3738959 15.1213343,18.9161151 16.161797,18.471074 C17.2269313,18.0014027 18.2793045,17.5436219 19.3197672,17.0985808 C20.3598045,16.6535397 21.4372746,16.1842932 22.5521776,15.6891425 L22.5521776,15.4670466 C22.5521776,15.4424164 22.5581328,15.4237315 22.5704687,15.4114164 C22.5828045,15.3986767 22.5887597,15.3681014 22.5887597,15.3184164 L22.5887597,15.3184164 Z M24.1864612,16.7278548 L9.88328955,22.9962247 L9.88328955,23.2556904 C9.88328955,23.3053753 9.88924478,23.3550603 9.9015806,23.4038959 C9.91391642,23.4540055 9.91987164,23.5028411 9.91987164,23.552526 C9.94496866,24.1954575 10.0185582,24.838389 10.1431925,25.4813205 C10.2661254,26.1242521 10.5885582,26.6559233 11.1087896,27.0759096 C11.555006,27.3727452 12.0318493,27.5583205 12.5393194,27.632211 C13.0472149,27.706526 13.5478791,27.7438959 14.0438642,27.7438959 L24.1498791,27.7438959 L24.1498791,29.3015397 L14.3041925,29.3015397 C13.3130731,29.3015397 12.4461627,29.2153342 11.7034612,29.0416493 C10.959909,28.8692384 10.3346104,28.5660329 9.82671493,28.1333068 C9.31924478,27.7005808 8.94108806,27.1315397 8.69437164,26.4270329 C8.44595373,25.7221014 8.32217015,24.838389 8.32217015,23.7750466 L8.32217015,15.8008274 C8.32217015,13.8474027 8.75009552,12.4252247 9.60424478,11.5351425 C10.4592448,10.6450603 11.8889239,10.1995945 13.895409,10.1995945 L18.762103,10.1995945 C19.5545731,10.1995945 20.2981254,10.2739096 20.991909,10.4225397 C21.6848418,10.5707452 22.3288567,10.9546356 22.9235284,11.5725123 C23.4926776,12.1657589 23.8457373,12.7466904 23.9822821,13.3153068 C24.1184015,13.8847726 24.1864612,14.5395945 24.1864612,15.2810466 L24.1864612,16.7278548 Z M5.20163284,11.757663 C3.91317761,11.757663 2.98416269,12.0978137 2.41501343,12.7776904 C1.84543881,13.4579918 1.56043881,14.4279096 1.56043881,15.6891425 L1.56043881,29.3015397 L0.000170149254,29.3015397 L0.000170149254,15.6891425 C0.000170149254,13.834663 0.428095522,12.4566493 1.2818194,11.5538274 C2.1368194,10.6514301 3.50524478,10.1995945 5.38794627,10.1995945 L6.87334925,10.1995945 L6.87334925,11.757663 L5.20163284,11.757663 Z" id="Fill-1" fill="#900E27" mask="url(#mask-2)"/>
                </g>
                <g id="Group-6" transform="translate(0.000000, 1.698630)">
                    <mask id="mask-4" fill="white">
                        <use xlink:href="#path-3"/>
                    </mask>
                    <g id="Clip-5"/>
                    <path d="M84.1100507,17.8480589 C84.1100507,18.2931 83.8999164,18.5156205 83.478797,18.5156205 L82.7360955,18.5156205 C82.2898791,18.5156205 81.9559612,18.6396205 81.7322149,18.8863466 C81.5097448,19.1339219 81.398297,19.4553877 81.398297,19.8511685 L81.398297,26.7497301 C81.398297,27.1705658 81.1758269,27.3803466 80.7296104,27.3803466 L79.2433567,27.3803466 C78.8218119,27.3803466 78.6116776,27.1705658 78.6116776,26.7497301 L78.6116776,19.8511685 C78.6116776,19.4553877 78.5002299,19.1339219 78.2777597,18.8863466 C78.0544388,18.6396205 77.7205209,18.5156205 77.2743045,18.5156205 L70.5495806,18.5156205 C70.1284612,18.5156205 69.9183269,18.2931 69.9183269,17.8480589 L69.9183269,16.3643055 C69.9183269,15.9192644 70.0046776,15.4992781 70.1782299,15.1030726 L75.7880507,-0.808845205 C75.936506,-1.30314658 76.2580881,-1.55029726 76.7540731,-1.55029726 L78.0178567,-1.55029726 C78.2403269,-1.55029726 78.3892075,-1.4819274 78.4632224,-1.34603699 C78.5376627,-1.21014658 78.5742448,-1.05557123 78.5742448,-0.882310959 L72.9648493,14.7323466 C72.8402149,15.1531822 72.8593567,15.5052233 73.0205731,15.7893192 C73.1809388,16.0738397 73.5089015,16.2161 74.0048866,16.2161 L77.2743045,16.2161 C78.1654612,16.2161 78.6116776,15.7706342 78.6116776,14.8809767 L78.6116776,13.9161548 C78.6116776,13.718689 78.6605955,13.4592233 78.7605582,13.1373329 C78.8592448,12.8162918 78.9583567,12.5317712 79.057894,12.2841959 L79.057894,12.3215658 L79.6891478,10.9864425 C79.9120433,10.5414014 80.1842821,10.3188808 80.5067149,10.3188808 L80.7296104,10.3188808 C81.1758269,10.3188808 81.398297,10.5414014 81.398297,10.9864425 L81.398297,14.8809767 C81.398297,15.7706342 81.8445134,16.2161 82.7360955,16.2161 L83.478797,16.2161 C83.8999164,16.2161 84.1100507,16.4386205 84.1100507,16.8836616 L84.1100507,17.8480589 Z" id="Fill-4" fill="#d8dee9" mask="url(#mask-4)"/>
                </g>
                <path d="M169.376606,15.6546603 C169.376606,15.0117288 169.314501,14.4490575 169.190718,13.9666466 C169.066934,13.4850849 168.73174,12.9720986 168.187688,12.4276877 L168.187688,12.4646329 C167.840584,12.2179068 167.524957,12.0510164 167.240807,11.9643863 C166.955807,11.8773315 166.540218,11.8344411 165.996166,11.8344411 L160.274472,11.8344411 C159.159143,11.8344411 158.354337,12.1435918 157.859203,12.7618932 C157.363218,13.3801945 157.116501,14.2825918 157.116501,15.4695096 L157.116501,24.2968658 C157.116501,25.5084137 157.38236,26.3679205 157.914927,26.874537 C158.447494,27.3815781 159.308024,27.634674 160.496942,27.634674 L165.847285,27.634674 C166.391337,27.634674 166.843509,27.6104685 167.203375,27.5603589 C167.561964,27.5115233 167.890352,27.3510027 168.187688,27.0783726 C168.73174,26.7072219 169.066934,26.2995507 169.190718,25.8545096 C169.314501,25.4094685 169.376606,24.8901123 169.376606,24.2968658 L169.376606,15.6546603 Z M170.974307,23.8887699 C170.974307,24.8289616 170.843718,25.619674 170.583815,26.2626055 C170.323912,26.905537 169.834307,27.5858384 169.116703,28.3022356 C168.571375,28.6733863 168.057099,28.9273315 167.574725,29.0627973 C167.091927,29.1991123 166.515972,29.2670575 165.847285,29.2670575 L160.496942,29.2670575 C159.926942,29.2670575 159.401181,29.2054822 158.918382,29.0810575 C158.434733,28.9579068 157.871539,28.686126 157.227949,28.2652904 C156.534166,27.6227836 156.069658,26.9857973 155.834427,26.3551808 C155.598345,25.7245644 155.481367,24.9771671 155.481367,24.1112904 L155.481367,15.7659205 C155.481367,14.8015233 155.598345,13.9917014 155.834427,13.3364548 C156.069658,12.6816329 156.521404,12.0200164 157.190516,11.3520301 C157.809434,10.9813041 158.361143,10.7031534 158.843516,10.5175781 C159.326315,10.3320027 159.939703,10.2394274 160.683255,10.2394274 L165.847285,10.2394274 C166.218636,10.2394274 166.547024,10.2581123 166.832024,10.2950575 C167.116173,10.3320027 167.382882,10.4003726 167.630449,10.4988932 C167.878016,10.598263 168.118778,10.7158932 168.35486,10.8513589 C168.589666,10.987674 168.844039,11.1422493 169.116703,11.3150849 C169.834307,12.0077014 170.323912,12.7245233 170.583815,13.4664 C170.843718,14.2082767 170.974307,15.0117288 170.974307,15.8767562 L170.974307,23.8887699 Z M146.824173,29.2670575 C146.155487,29.2670575 145.530188,29.2296877 144.948278,29.1553726 C144.365942,29.0810575 143.790412,28.7727562 143.221263,28.2279205 C142.873733,27.8822493 142.588733,27.5548384 142.366263,27.245263 C142.143793,26.9361123 141.969815,26.6150712 141.846031,26.2808658 C141.722248,25.9470849 141.635046,25.6014137 141.586128,25.2425781 C141.53636,24.8841671 141.512113,24.4820164 141.512113,24.0369753 L141.512113,15.3208795 C141.512113,14.6286877 141.586128,13.9917014 141.735009,13.4107699 C141.883464,12.830263 142.1808,12.2922219 142.626166,11.7970712 C143.221263,11.1541397 143.858472,10.7341534 144.539494,10.5358384 C145.220942,10.3387973 145.895584,10.2394274 146.56427,10.2394274 L153.995113,10.2394274 L153.995113,11.8344411 L146.713151,11.8344411 C145.524233,11.8344411 144.620315,12.0752219 144.001397,12.5576329 C143.381628,13.0396192 143.072382,13.9241808 143.072382,15.2096192 L143.072382,23.8887699 C143.072382,24.4327562 143.165539,24.9771671 143.350576,25.5203041 C143.53689,26.0651397 143.827419,26.5224959 144.223867,26.8932219 C144.719001,27.2393178 145.195845,27.4495233 145.654397,27.5234137 C146.112524,27.5977288 146.614039,27.634674 147.159367,27.634674 L154.106561,27.634674 L154.106561,29.2670575 L146.824173,29.2670575 Z M137.722039,29.2670575 L137.722039,15.2096192 C137.722039,14.6410027 137.5923,14.1093315 137.332397,13.6146055 C137.072494,13.1203041 136.780688,12.7245233 136.459106,12.4276877 L136.459106,12.4646329 C136.112001,12.2179068 135.65983,12.0510164 135.103442,11.9643863 C134.545778,11.8773315 134.068084,11.8344411 133.672912,11.8344411 L129.362606,11.8344411 C128.867472,11.8344411 128.365531,11.884126 127.858061,11.9826466 C127.350166,12.0815918 126.935001,12.2421123 126.613419,12.4646329 C125.845621,13.107989 125.461934,14.0227014 125.461934,15.2096192 L125.461934,29.2670575 L123.901666,29.2670575 L123.901666,15.2096192 C123.901666,14.443537 124.018643,13.6829753 124.254725,12.9283589 C124.489957,12.1745918 124.979136,11.5996055 125.721837,11.2038247 C126.290987,10.7834137 126.873322,10.5175781 127.468419,10.4063178 C128.06224,10.2950575 128.693494,10.2394274 129.362606,10.2394274 L133.672912,10.2394274 C134.490054,10.2394274 135.245516,10.3260575 135.9393,10.4988932 C136.632233,10.6725781 137.23286,10.956674 137.741181,11.3520301 C138.2478,11.747811 138.638293,12.2607973 138.910957,12.8914137 C139.183621,13.5220301 139.31974,14.2949068 139.31974,15.2096192 L139.31974,29.2670575 L137.722039,29.2670575 Z M119.666225,17.8059753 L110.489225,17.8059753 C109.349225,17.8059753 108.495076,18.146126 107.925076,18.8260027 C107.355076,19.5058795 107.070927,20.3900164 107.070927,21.477989 L107.070927,24.2968658 C107.070927,24.8408521 107.132606,25.3164685 107.25724,25.7245644 C107.380173,26.1326603 107.615404,26.485126 107.962509,26.781537 C108.309188,27.1034274 108.706061,27.3259479 109.151427,27.4495233 C109.597643,27.5730986 110.067681,27.634674 110.563666,27.634674 L116.210919,27.634674 C118.51389,27.634674 119.666225,26.5224959 119.666225,24.2968658 L119.666225,17.8059753 Z M121.263927,24.0369753 C121.263927,24.7546466 121.17077,25.4035233 120.984457,25.9840301 C120.799419,26.5653863 120.495278,27.1403726 120.075009,27.708989 C119.504158,28.3272904 118.897576,28.7417562 118.253561,28.951537 C117.609972,29.1621671 116.928524,29.2670575 116.210919,29.2670575 L110.563666,29.2670575 C109.002546,29.2670575 107.76386,28.8402767 106.848457,27.9871397 C105.931352,27.1340027 105.473225,25.9046192 105.473225,24.2968658 L105.473225,21.477989 C105.473225,19.8218247 105.906255,18.535537 106.773591,17.6204 C107.640076,16.7061123 108.90386,16.2483315 110.563666,16.2483315 L119.666225,16.2483315 L119.666225,15.4695096 C119.666225,14.3560575 119.39271,13.4910301 118.848658,12.8727288 C118.501128,12.4276877 118.068524,12.1435918 117.548293,12.0200164 C117.028487,11.8964411 116.470822,11.8344411 115.876151,11.8344411 L105.473225,11.8344411 L105.473225,10.2394274 L115.319337,10.2394274 C116.309606,10.2394274 117.170561,10.3137425 117.901352,10.4615233 C118.631718,10.6101534 119.281263,11.030989 119.851263,11.7227562 C120.297479,12.2922219 120.644158,12.9224137 120.891725,13.6146055 C121.139293,14.3072219 121.263927,15.0240438 121.263927,15.7659205 L121.263927,24.0369753 Z M101.164196,15.8767562 C101.164196,14.4677425 100.811136,13.4417699 100.104591,12.7988384 C99.3984716,12.1559068 98.3278075,11.8344411 96.8913224,11.8344411 L88.4204418,11.8344411 L88.4204418,23.8887699 C88.4204418,24.6060164 88.5374194,25.1996877 88.7735015,25.6689342 C89.0083075,26.1390301 89.3366955,26.5224959 89.7578149,26.8189068 C90.1780836,27.1153178 90.6676881,27.3259479 91.2249269,27.4495233 C91.782591,27.5730986 92.3955537,27.634674 93.0646657,27.634674 L96.8913224,27.634674 C97.5349119,27.634674 98.1483,27.5977288 98.7306358,27.5234137 C99.3121209,27.4495233 99.8506433,27.1777425 100.346628,26.7072219 C100.717979,26.2872356 100.946404,25.8672493 101.033606,25.4468384 C101.119957,25.0260027 101.164196,24.5563315 101.164196,24.0369753 L101.164196,15.8767562 Z M102.724464,23.7401397 C102.724464,24.1609753 102.710852,24.5444411 102.687031,24.8901123 C102.661934,25.2366329 102.60621,25.5640438 102.51986,25.8727699 C102.432658,26.1823452 102.315681,26.485126 102.1668,26.781537 C102.018345,27.0783726 101.819696,27.3998384 101.572979,27.7463589 C101.225449,28.1170849 100.879196,28.4079753 100.531666,28.6173315 C100.185412,28.8279616 99.819591,28.9829616 99.4359045,29.0810575 C99.0522179,29.1804274 98.6493896,29.2360575 98.2286955,29.2483726 C97.8075761,29.2611123 97.3613597,29.2670575 96.8913224,29.2670575 L92.6933149,29.2670575 C90.9093,29.2670575 89.4979119,28.8649068 88.4578746,28.0614548 C87.4174119,27.2580027 86.8967552,25.8672493 86.8967552,23.8887699 L86.8967552,4.19357808 L88.4204418,4.19357808 L88.4204418,10.2394274 L96.8913224,10.2394274 C98.7978448,10.2394274 100.246666,10.6908384 101.237785,11.5932356 C102.228479,12.4964822 102.724464,13.9241808 102.724464,15.8767562 L102.724464,23.7401397 Z" id="Fill-7" fill="#d8dee9"/>
            </g>
        </g>
    </g>
</svg>
