<svg xmlns="http://www.w3.org/2000/svg" viewBox="0 0 162.2 33.79"><defs><style>.cls-1{fill:#fff;}</style></defs><title>thinkful-header-logo-svg</title><g id="Layer_2" data-name="Layer 2"><g id="Layer_1-2" data-name="Layer 1"><path class="cls-1" d="M10.68,17.8H6.39V3.57H0V0H17.37V3.57H10.68Z"/><path class="cls-1" d="M24.41,10.91V17.8H20.22V0h4.19V6.91H34.77V0h4.15V17.8H34.77V10.91Z"/><path class="cls-1" d="M42.11,13.9H47V3.72H42.11V0H55.77V3.72H50.93V13.9h4.84v3.9H42.11Z"/><path class="cls-1" d="M63,17.8H59V0h4.2L74,12.08l.15.23V0h4V17.8h-4L63.18,5.59,63,5.34Z"/><path class="cls-1" d="M86.3,12.86V17.8H82.11V0H86.3V8.56L96.06,0h5.64L93.94,6.72,102,17.8H97L90.89,9Z"/><path class="cls-1" d="M108,17.8H103.9V0h16.5V3.69H108v4h12v3.72H108Z"/><path class="cls-1" d="M127.39,17.27C124.52,15.9,123.05,13,123.05,8V0h4.39V7.84a10,10,0,0,0,.6,3.82c.8,1.87,2.37,2.62,4.67,2.62a6.13,6.13,0,0,0,2.87-.6c1.54-.77,2.27-2.57,2.27-5.84V0h4.39V8a13.32,13.32,0,0,1-1.15,6c-1.54,3.05-4.41,4.32-8.43,4.32A12.22,12.22,0,0,1,127.39,17.27Z"/><path class="cls-1" d="M145.89,0h4.24V13.85h11.81v4H145.89Z"/><path class="cls-1" d="M64.06,30.65a4.06,4.06,0,0,1-2.8.91c-1.51,0-2.06-.53-2.06-1.39h0A1.32,1.32,0,0,1,59.82,29a2.63,2.63,0,0,1,.61-.28,8.66,8.66,0,0,1,2.24-.32c.51,0,.92-.07,1.22-.12.6-.08.82-.24.82-.63a.77.77,0,0,0-.19-.5c-.24-.32-.82-.57-1.88-.57-1.75,0-2.45.47-2.61,1.52H59.3c.19-1.43,1.27-2.08,3.29-2.08s2.83.7,2.83,1.78l0,3.61h-.6l-.07-1.64A2.44,2.44,0,0,1,64.06,30.65Zm-.21-.37a2,2,0,0,0,.88-1.52v-.39c-.21.27-.73.41-2,.49a4.52,4.52,0,0,0-2.4.51.88.88,0,0,0-.38.74h0c0,.53.37.9,1.46.9A3.87,3.87,0,0,0,63.85,30.28Z"/><path class="cls-1" d="M76.83,30.34a3.87,3.87,0,0,1-3.15,1.23c-2.41,0-3.83-1.15-3.83-3.31h0a3.2,3.2,0,0,1,.5-1.83,3.9,3.9,0,0,1,3.43-1.61,4.72,4.72,0,0,1,1.67.28,2.83,2.83,0,0,1,2,2.14h-.76c-.27-1.12-1.25-1.76-2.86-1.76a4,4,0,0,0-1.69.33,2.47,2.47,0,0,0-1.5,2.45h0c0,1.7,1.11,2.65,3.13,2.65a4,4,0,0,0,1.52-.25A2.28,2.28,0,0,0,76.67,29h.78A2.88,2.88,0,0,1,76.83,30.34Z"/><path class="cls-1" d="M78.89,31.4V24.51h.7v3.25A2.68,2.68,0,0,1,82.31,26a3.21,3.21,0,0,1,1.58.35,2.5,2.5,0,0,1,1.25,2.35v2.7h-.71V28.85a2.86,2.86,0,0,0-.23-1.16,2,2,0,0,0-2-1.08,3,3,0,0,0-1.36.29,2.29,2.29,0,0,0-1.2,2.21V31.4Z"/><path class="cls-1" d="M89.93,31.56c-2.26,0-3.39-1-3.39-2.72A2.6,2.6,0,0,1,87,27.32,3.51,3.51,0,0,1,90,26a4.3,4.3,0,0,1,1.77.34,2.49,2.49,0,0,1,1.52,2.4v.34H87.24C87.35,30.35,88.29,31,90,31c1.24,0,2-.31,2.39-1h.79C92.64,31.15,91.5,31.56,89.93,31.56ZM88.66,26.8a2,2,0,0,0-1.41,1.74h5.34c-.08-1.29-1-1.95-2.59-1.95A4,4,0,0,0,88.66,26.8Z"/><path class="cls-1" d="M95.39,33.63c-.9-.22-1.25-.64-1.25-1.22,0-.75.62-1.1,1.62-1.23-.89,0-1.33-.32-1.33-.89s.59-1,1.88-1.07c-1.22-.14-1.85-.57-1.85-1.48s.79-1.49,2.15-1.6A9.9,9.9,0,0,1,98,26.05a4.63,4.63,0,0,0,1.09-.12c.5-.13.64-.43.64-1v-.06h.74v.05c0,.51-.07.82-.33,1a3.34,3.34,0,0,1-1.63.29h0c1.3.08,2,.56,2,1.55,0,1.15-1,1.62-3,1.62h-.63c-1.34,0-1.86.31-1.86.71s.3.56,1.34.55h2c1.65,0,2.46.43,2.46,1.43v0a1.3,1.3,0,0,1-.33.88c-.46.51-1.41.82-3.11.82h-.28A7.73,7.73,0,0,1,95.39,33.63Zm3.8-.58c.79-.19,1-.52,1-.94v0c0-.61-.5-.9-1.84-.9H97a5.49,5.49,0,0,0-1.14.1c-.68.14-1.06.42-1.06.92h0c0,.61.67,1,2.42,1h.28A6.94,6.94,0,0,0,99.19,33.05Zm.65-5.3c0-.75-.67-1.15-2.25-1.15a5.49,5.49,0,0,0-1,0c-1,.1-1.46.47-1.46,1.1a.83.83,0,0,0,.29.67,3.3,3.3,0,0,0,2,.44C99.07,28.86,99.84,28.58,99.84,27.75Z"/><path class="cls-1" d="M102.87,33.63c-.9-.22-1.24-.64-1.24-1.22,0-.75.61-1.1,1.62-1.23-.9,0-1.33-.32-1.33-.89s.59-1,1.87-1.07c-1.22-.14-1.85-.57-1.85-1.48s.8-1.49,2.15-1.6a10,10,0,0,1,1.35-.09,4.57,4.57,0,0,0,1.09-.12c.5-.13.64-.43.64-1v-.06h.75v.05c0,.51-.07.82-.34,1a3.28,3.28,0,0,1-1.63.29h0c1.29.08,2,.56,2,1.55,0,1.15-1,1.62-3,1.62h-.64c-1.34,0-1.86.31-1.86.71s.3.56,1.34.55h2c1.66,0,2.46.43,2.46,1.43v0a1.3,1.3,0,0,1-.33.88c-.45.51-1.41.82-3.1.82h-.28A7.89,7.89,0,0,1,102.87,33.63Zm3.81-.58c.78-.19,1-.52,1-.94v0c0-.61-.5-.9-1.84-.9h-1.35a5.59,5.59,0,0,0-1.15.1c-.67.14-1,.42-1,.92h0c0,.61.66,1,2.42,1H105A7,7,0,0,0,106.68,33.05Zm.65-5.3c0-.75-.68-1.15-2.25-1.15a5.45,5.45,0,0,0-1,0c-1,.1-1.47.47-1.47,1.1a.83.83,0,0,0,.29.67,3.34,3.34,0,0,0,2,.44C106.55,28.86,107.33,28.58,107.33,27.75Z"/><path class="cls-1" d="M110.09,28.56a1.75,1.75,0,0,1-1-1.7v-.05a2,2,0,0,1,.26-1,2,2,0,0,1,1.71-.93,2.09,2.09,0,0,1,1,.24,1.85,1.85,0,0,1,1,1.73v.06a2,2,0,0,1-.26,1,2,2,0,0,1-1.72.89A2.16,2.16,0,0,1,110.09,28.56Zm2.64-1.72v0a1.62,1.62,0,1,0-3.24,0v0a1.62,1.62,0,0,0,3.24,0Zm-2,.93h-.34v-2h.81c.57,0,.78.23.78.58a.51.51,0,0,1-.41.54c.26,0,.36.18.36.5v.23a.15.15,0,0,0,.06.13h-.37a.16.16,0,0,1,0-.13v-.23c0-.26,0-.35-.41-.35h-.43Zm.91-1.38c0-.23-.14-.3-.46-.3h-.45v.67h.42C111.49,26.77,111.62,26.63,111.62,26.39Z"/><path class="cls-1" d="M118.86,31.38a2.22,2.22,0,0,1-1.8-1.78h.81a1.41,1.41,0,0,0,.51.86,3.42,3.42,0,0,0,2.09.51,4.6,4.6,0,0,0,1.32-.15c.64-.19.89-.53.89-.91a.6.6,0,0,0-.23-.5,4.38,4.38,0,0,0-2.24-.37,9.31,9.31,0,0,1-1.66-.18c-.86-.2-1.22-.57-1.22-1.24a1.24,1.24,0,0,1,.3-.82A3,3,0,0,1,120,26c1.81,0,2.9.54,3.32,1.81h-.77c-.32-.92-1.21-1.24-2.55-1.24s-2,.45-2,1a.61.61,0,0,0,.21.49,4.41,4.41,0,0,0,2.19.38,9.57,9.57,0,0,1,1.7.19c.87.19,1.25.57,1.25,1.25h0a1.39,1.39,0,0,1-.3.84,3.32,3.32,0,0,1-2.65.82A6.47,6.47,0,0,1,118.86,31.38Z"/><path class="cls-1" d="M128,31.56c-2.26,0-3.38-1-3.38-2.72a2.59,2.59,0,0,1,.43-1.52A3.53,3.53,0,0,1,128,26a4.3,4.3,0,0,1,1.77.34,2.48,2.48,0,0,1,1.52,2.4v.34h-6c.12,1.27,1,1.89,2.75,1.89,1.25,0,2-.31,2.39-1h.8C130.66,31.15,129.52,31.56,128,31.56Zm-1.27-4.76a2,2,0,0,0-1.41,1.74h5.34c-.08-1.29-1-1.95-2.58-1.95A4.07,4.07,0,0,0,126.68,26.8Z"/><path class="cls-1" d="M132.76,26.23h.63l.08,1.81a2.44,2.44,0,0,1,2.64-1.83h.47v.7h-.49a3,3,0,0,0-1.52.32,2.44,2.44,0,0,0-1.09,2.4V31.4h-.72Z"/><path class="cls-1" d="M137.52,26.23h.8l2.41,4.44,2.57-4.44h.8l-3,5.17h-.69Z"/><path class="cls-1" d="M145.15,24.75a.44.44,0,0,1,.5-.51c.34,0,.5.16.5.51s-.15.52-.5.52S145.15,25.13,145.15,24.75Zm.12,1.48H146V31.4h-.72Z"/><path class="cls-1" d="M153.65,30.56a3.49,3.49,0,0,1-2.72,1c-2.3,0-3.46-1-3.46-2.74a2.51,2.51,0,0,1,.46-1.54,3.55,3.55,0,0,1,3-1.28c1.79,0,3,.81,3.31,2.32h-.76c-.25-1.16-1.2-1.7-2.54-1.7a4,4,0,0,0-1.39.23,2,2,0,0,0-1.34,2c0,1.44,1,2.12,2.73,2.12,1.37,0,2.25-.49,2.55-1.67h.76A2.62,2.62,0,0,1,153.65,30.56Z"/><path class="cls-1" d="M158.84,31.56c-2.26,0-3.39-1-3.39-2.72a2.59,2.59,0,0,1,.43-1.52,3.53,3.53,0,0,1,3-1.32,4.3,4.3,0,0,1,1.77.34,2.49,2.49,0,0,1,1.53,2.4v.34h-6.06c.12,1.27,1.06,1.89,2.75,1.89,1.25,0,2-.31,2.4-1h.79C161.54,31.15,160.4,31.56,158.84,31.56Zm-1.28-4.76a2,2,0,0,0-1.41,1.74h5.34c-.08-1.29-1-1.95-2.58-1.95A4.07,4.07,0,0,0,157.56,26.8Z"/></g></g></svg>
