<?xml version="1.0" standalone="no"?>
<!DOCTYPE svg PUBLIC "-//W3C//DTD SVG 1.1//EN" "http://www.w3.org/Graphics/SVG/1.1/DTD/svg11.dtd" >
<svg xmlns="http://www.w3.org/2000/svg" xmlns:xlink="http://www.w3.org/1999/xlink" version="1.1">
<metadata>
Created by FontForge 20170924 at Tue Oct  9 19:09:45 2001
 By www-data
Copyright (c) 1988, 1994 Adobe Systems Incorporated. All Rights Reserved.Clearface is a registered trademark of International Typeface Corporation.
</metadata>
<defs>
<font id="ClearfaceLT-Bold" horiz-adv-x="500" >
  <font-face 
    font-family="Clearface LT Bold"
    font-weight="700"
    font-stretch="normal"
    units-per-em="1000"
    panose-1="2 0 8 6 8 0 0 2 0 3"
    ascent="800"
    descent="-200"
    x-height="479"
    cap-height="700"
    bbox="-167 -250 1001 950"
    underline-thickness="50"
    underline-position="-125"
    unicode-range="U+0020-FB02"
  />
<missing-glyph horiz-adv-x="250" 
 />
    <glyph glyph-name=".notdef" horiz-adv-x="250" 
 />
    <glyph glyph-name=".null" horiz-adv-x="0" 
 />
    <glyph glyph-name="nonmarkingreturn" horiz-adv-x="250" 
 />
    <glyph glyph-name="space" unicode=" " horiz-adv-x="250" 
 />
    <glyph glyph-name="space" unicode="&#xa0;" horiz-adv-x="250" 
 />
    <glyph glyph-name="dollar" unicode="$" 
d="M223 665q-51 -10 -77 -38.5t-26 -80.5q0 -23 9 -40.5t23.5 -31.5t33 -24t37.5 -17v232zM264 32q51 7 82 37t31 80q0 29 -8.5 50.5t-24 37.5t-36 28.5t-44.5 23.5v-257zM223 306q-38 17 -69 37t-52.5 44t-33 54.5t-11.5 68.5q0 37 12.5 70t34.5 58.5t52.5 42t66.5 19.5v84
h41v-84q22 0 50 -4t53 -14.5t41.5 -29t16.5 -47.5q0 -20 -15.5 -33t-32.5 -13t-30.5 8.5t-23 22t-15.5 31t-9 36.5q-15 8 -35 8v-247q37 -18 70.5 -38t59 -45.5t40.5 -59t15 -79.5q0 -38 -14.5 -72.5t-39.5 -61.5t-58.5 -44t-72.5 -21v-105h-41v105q-27 1 -60 6t-61 17
t-47 33.5t-19 57.5q0 23 15.5 39.5t39.5 16.5q22 0 36 -11.5t22 -29t11.5 -37.5t3.5 -37q14 -7 26.5 -11.5t32.5 -8.5v274z" />
    <glyph glyph-name="percent" unicode="%" horiz-adv-x="833" 
d="M150 413q0 -58 12 -86.5t32 -28.5q34 0 47 64.5t13 210.5q0 58 -12 86.5t-32 28.5q-17 0 -28.5 -15.5t-18.5 -49t-10 -85.5t-3 -125zM556 127q0 -58 12 -86.5t32 -28.5q34 0 47 64.5t13 210.5q0 58 -12 86.5t-32 28.5q-17 0 -28.5 -15.5t-18.5 -49t-10 -85.5t-3 -125z
M584 715h60l-416 -730h-60zM59 493q0 40 12 79.5t32 71t45.5 51.5t53.5 20q32 0 58.5 -16.5t45 -45.5t29 -70t10.5 -90q0 -40 -12 -79.5t-32 -71t-45.5 -51.5t-53.5 -20q-32 0 -58.5 16.5t-45 45.5t-29 70t-10.5 90zM465 207q0 40 12 79.5t32 71t45.5 51.5t53.5 20
q32 0 58.5 -16.5t45 -45.5t29 -70t10.5 -90q0 -40 -12 -79.5t-32 -71t-45.5 -51.5t-53.5 -20q-32 0 -58.5 16.5t-45 45.5t-29 70t-10.5 90z" />
    <glyph glyph-name="ampersand" unicode="&#x26;" horiz-adv-x="722" 
d="M142 245q0 -35 15 -70t40 -63.5t58 -46t70 -17.5q25 0 44.5 8.5t39.5 19.5q-58 68 -102.5 143.5t-83.5 161.5q-42 -23 -61.5 -54.5t-19.5 -81.5zM465 419h218v-32q-24 -3 -38.5 -9t-24 -17t-16.5 -30t-16 -47q-8 -24 -16 -43.5t-17 -38t-19.5 -37t-22.5 -39.5
q24 -26 46 -42.5t55 -16.5q25 0 40.5 13t31.5 29l26 -19q-13 -18 -31 -36.5t-38.5 -33.5t-42 -25t-39.5 -10q-39 0 -68.5 18t-56.5 43q-42 -30 -91 -45.5t-100 -15.5q-44 0 -82.5 14t-67 39.5t-44.5 62t-16 82.5q0 41 14 76t37.5 64t55 52.5t66.5 41.5q-8 26 -15 56.5
t-7 60.5q0 40 14.5 73.5t40 57.5t59.5 37t74 13q23 0 51 -7t52.5 -22t41 -37t16.5 -52q0 -29 -15 -45t-38 -16q-32 0 -48 20.5t-16 43.5q0 17 3 33t8 27q-8 7 -23 11t-29 4q-38 0 -64.5 -23.5t-26.5 -73.5q0 -29 10 -65t27 -74.5t38 -78t43.5 -76t43.5 -68.5t38 -55
q11 13 22.5 33t20.5 42.5t15 44.5t6 39q0 32 -23.5 47t-61.5 20v32z" />
    <glyph glyph-name="quoteright" unicode="&#x2019;" horiz-adv-x="222" 
d="M47 453q9 12 20 26t20.5 30t16 32.5t6.5 33.5q-25 11 -44 31t-19 49q0 28 17 44t45 16q35 0 50.5 -24t15.5 -56q0 -29 -8.5 -56.5t-22.5 -52.5t-32.5 -48t-38.5 -43z" />
    <glyph glyph-name="parenleft" unicode="(" horiz-adv-x="389" 
d="M302 750q-37 -39 -57.5 -100.5t-30.5 -128t-12 -131t-2 -110.5q0 -42 2.5 -98t12.5 -114.5t29.5 -112.5t54.5 -93l-15 -12q-193 187 -193 446q0 71 14.5 139t40.5 128t62 111.5t80 89.5z" />
    <glyph glyph-name="parenright" unicode=")" horiz-adv-x="389" 
d="M105 764q97 -94 145 -209t48 -267q0 -60 -14.5 -121.5t-40.5 -119.5t-62 -108.5t-80 -88.5l-14 13q25 26 42 63t28 78t17.5 84.5t10 83.5t4 74.5t0.5 58.5q0 53 -2.5 115t-12.5 123t-30 115.5t-54 93.5z" />
    <glyph glyph-name="asterisk" unicode="*" 
d="M57 415q0 23 15 30t39 11t54.5 10.5t61.5 28.5l-1 11q-24 19 -53.5 25.5t-55 11.5t-42.5 13t-17 30q0 19 11.5 30.5t30.5 11.5t29.5 -11t23 -27t30.5 -35.5t52 -35.5l9 5q0 34 -5 56.5t-11 39t-11 29t-5 24.5q0 20 11 31t27 11t27 -11t11 -31q0 -12 -5 -24.5t-11 -29
t-11 -39t-5 -56.5l9 -5q34 16 52 35.5t30.5 35.5t23 27t29.5 11t30.5 -11.5t11.5 -30.5q0 -22 -17 -30t-42.5 -13t-55 -11.5t-53.5 -25.5l-1 -11q31 -22 61.5 -28.5t54.5 -10.5t39 -11t15 -30q0 -17 -10.5 -29t-27.5 -12q-19 0 -32 12t-26.5 29t-32 35.5t-49.5 31.5l-6 -5
q0 -38 5.5 -61t11.5 -38t11.5 -26t5.5 -26q0 -20 -12 -31.5t-31 -11.5t-31 11.5t-12 31.5q0 15 5.5 26t11.5 26t11.5 38t5.5 61l-6 5q-31 -13 -49.5 -31.5t-32 -35.5t-26.5 -29t-32 -12q-17 0 -27.5 12t-10.5 29z" />
    <glyph glyph-name="plus" unicode="+" horiz-adv-x="600" 
d="M262 479h77v-201h201v-77h-201v-201h-77v201h-201v77h201v201z" />
    <glyph glyph-name="comma" unicode="," horiz-adv-x="250" 
d="M45 -122q26 25 50 52t41 59q-25 18 -42 37.5t-17 51.5q0 27 18.5 44t44.5 17q38 0 52 -23t14 -58q0 -29 -13.5 -58t-34 -56t-44.5 -50.5t-45 -40.5z" />
    <glyph glyph-name="hyphen" unicode="-" horiz-adv-x="333" 
d="M44 199v80h245v-80h-245z" />
    <glyph glyph-name="hyphen" unicode="&#xad;" horiz-adv-x="333" 
d="M44 199v80h245v-80h-245z" />
    <glyph glyph-name="period" unicode="." horiz-adv-x="250" 
d="M57 58q0 28 18.5 48t49.5 20t49.5 -20t18.5 -48t-18.5 -48t-49.5 -20t-49.5 20t-18.5 48z" />
    <glyph glyph-name="slash" unicode="/" horiz-adv-x="278" 
d="M211 715h78l-222 -730h-78z" />
    <glyph glyph-name="zero" unicode="0" 
d="M247 20q19 0 35.5 17.5t29 57t19.5 102.5t7 153q0 104 -5 168.5t-16 100.5t-28.5 48.5t-41.5 12.5q-19 0 -35.5 -17.5t-29 -57t-19.5 -102.5t-7 -153q0 -104 5 -168.5t16 -100.5t28.5 -48.5t41.5 -12.5zM247 -15q-48 0 -86.5 32.5t-65.5 85t-42 117.5t-15 130t15.5 130
t43.5 117.5t66.5 85t83.5 32.5q48 0 86.5 -32.5t65.5 -85t42 -117.5t15 -130t-15.5 -130t-43.5 -117.5t-66.5 -85t-83.5 -32.5z" />
    <glyph glyph-name="one" unicode="1" 
d="M86 0v35l119 12v503q0 24 -3 38t-10 20.5t-18 8.5t-27 2q-11 0 -27.5 -0.5t-31.5 -1.5v37q58 11 116.5 25.5t114.5 35.5v-668l107 -12v-35h-340z" />
    <glyph glyph-name="two" unicode="2" 
d="M280 108q30 0 50 5.5t34 17t23.5 29.5t19.5 43l35 -6l-45 -212q-16 8 -39 11.5t-57 3.5h-276v46q32 49 65.5 100t71.5 98q27 33 53.5 66t47 66.5t33 69.5t12.5 76q0 28 -7 54.5t-22 47.5t-38.5 33.5t-56.5 12.5q-20 0 -41.5 -10t-34.5 -32q19 -22 29 -39.5t10 -42.5
q0 -31 -13.5 -49.5t-45.5 -18.5q-31 0 -45 18.5t-14 49.5q0 36 15 67t41 53.5t61.5 35.5t76.5 13q39 0 76 -12t65 -35t45 -58.5t17 -81.5q0 -45 -13.5 -80t-37 -64.5t-55 -57.5t-66.5 -59.5t-72.5 -70t-72.5 -88.5h171z" />
    <glyph glyph-name="three" unicode="3" 
d="M427 547q0 -38 -13 -66.5t-35 -48.5t-49.5 -33t-57.5 -20v-2q79 -23 125.5 -70.5t46.5 -130.5q0 -49 -20.5 -85t-54 -59.5t-76 -35t-86.5 -11.5q-32 0 -66 9t-62.5 26t-46.5 41.5t-18 54.5q0 11 3 22.5t9.5 21.5t16 16t23.5 6q38 0 52 -23.5t14 -60.5q0 -11 -2.5 -28.5
t-6.5 -27.5q16 -14 36.5 -18t40.5 -4q31 0 54.5 14t39.5 38t24 55t8 65q0 47 -10.5 79.5t-28 52.5t-41 28.5t-49.5 8.5q-11 0 -17.5 -1t-15.5 -1q-8 0 -15.5 5t-7.5 18q0 18 23 18q11 0 21 -2t21 -2q29 0 49.5 11t33 30t18.5 45t6 56t-6 56t-18.5 45t-33 30t-49.5 11
q-17 0 -32.5 -5t-25.5 -12q4 -14 7.5 -32t3.5 -32q0 -33 -17.5 -55t-46.5 -22q-26 0 -40 17t-14 43q0 29 14.5 53.5t39 42t56 27.5t65.5 10q42 0 80 -9.5t67.5 -29.5t46.5 -52t17 -77z" />
    <glyph glyph-name="four" unicode="4" 
d="M23 161v58q36 53 69.5 113t60.5 122.5t46.5 125t29.5 120.5h130v-2q-14 -35 -43.5 -91.5t-70 -124t-88.5 -139.5t-99 -137h203v211q18 22 34.5 46.5t31 47t25.5 41t17 29.5v-375h101v-45h-101v-116l57 -10v-35h-227v35l62 10v116h-238z" />
    <glyph glyph-name="five" unicode="5" 
d="M86 700h260q26 0 36.5 8t17.5 29h38l-34 -145h-279l-14 -194q19 15 35.5 25t32 16t32.5 8.5t37 2.5q51 0 89 -17t63.5 -47.5t38 -73t12.5 -93.5t-18.5 -94t-50.5 -74t-77 -48.5t-97 -17.5q-37 0 -70 11.5t-57.5 30t-39 41.5t-14.5 46q0 29 15.5 51t47.5 22t47.5 -22
t15.5 -51q0 -18 -5 -36t-7 -35q14 -11 33 -17t45 -6q49 0 81.5 49t32.5 143q0 91 -28 137.5t-86 46.5q-40 0 -71 -16.5t-52 -47.5l-36 6z" />
    <glyph glyph-name="six" unicode="6" 
d="M256 20q32 0 51 22.5t29 53.5t13 64t3 54q0 36 -4.5 67t-15.5 54t-29 36t-44 13q-16 0 -33.5 -7.5t-32 -27.5t-24 -55t-9.5 -90q0 -41 5 -75t16.5 -58t30 -37.5t44.5 -13.5zM259 -15q-61 0 -102.5 31t-67 79.5t-36.5 107t-11 114.5q0 68 15.5 139t49 128.5t86 94
t125.5 36.5q21 0 43.5 -5.5t41 -17t31 -28t12.5 -38.5q0 -25 -15.5 -42.5t-41.5 -17.5q-25 0 -47.5 20t-27.5 70q-2 16 -5 20t-12 4q-22 0 -45 -16t-42.5 -52.5t-32 -96.5t-13.5 -148h2q22 37 52.5 58t72.5 21q43 0 76 -18t56 -48t35 -69t12 -80q0 -42 -13 -86t-39.5 -79.5
t-66 -58t-92.5 -22.5z" />
    <glyph glyph-name="seven" unicode="7" 
d="M464 700v-45q-45 -76 -78.5 -137t-55 -124t-32.5 -135.5t-11 -171.5q0 -46 -14 -74t-49 -28q-40 0 -57.5 23.5t-17.5 58.5q0 63 26 133t62.5 139.5t76.5 134.5t69 118h-236q-18 0 -31 -3.5t-23 -12.5t-18.5 -25t-17.5 -41l-32 5l49 200q16 -8 39 -11.5t57 -3.5h294z" />
    <glyph glyph-name="eight" unicode="8" 
d="M302 417q32 26 47.5 61.5t15.5 77.5q0 56 -32 90t-87 34q-23 0 -43 -7t-35 -20.5t-23.5 -32.5t-8.5 -42q0 -38 24 -64.5t57 -46.5zM200 333q-20 -12 -35.5 -30t-26 -40t-16 -46.5t-5.5 -48.5q0 -31 8.5 -58t25.5 -47t41.5 -31.5t57.5 -11.5q63 0 97.5 32t34.5 97
q0 49 -27 79t-66 53zM259 715q33 0 64.5 -10.5t56 -30.5t39 -48.5t14.5 -64.5q0 -29 -6.5 -51t-19.5 -40.5t-32 -35t-43 -34.5q30 -19 53.5 -39t40 -44.5t25 -54t8.5 -68.5q0 -47 -16 -85.5t-44.5 -66t-69 -42.5t-88.5 -15q-41 0 -77.5 12t-64 35.5t-43.5 57t-16 76.5
q0 33 10.5 61t28.5 51.5t41.5 42t49.5 32.5q-44 32 -73 73t-29 100q0 40 12.5 74.5t37 60t60 40t81.5 14.5z" />
    <glyph glyph-name="nine" unicode="9" 
d="M250 680q-32 0 -51 -22.5t-29 -53.5t-13 -64t-3 -54q0 -36 4.5 -67t15.5 -54t29 -36t44 -13q16 0 33.5 7.5t32 27.5t24 55t9.5 90q0 41 -5 75t-16.5 58t-30 37.5t-44.5 13.5zM247 715q61 0 102.5 -31t67 -79.5t36.5 -107.5t11 -114q0 -68 -15.5 -139t-49 -128.5t-86 -94
t-125.5 -36.5q-21 0 -43.5 5.5t-41 17t-31 28t-12.5 38.5q0 25 15.5 42.5t41.5 17.5q25 0 47.5 -20t27.5 -70q2 -16 5 -20t12 -4q22 0 45 16t42.5 52.5t32 96.5t13.5 148h-2q-22 -37 -52.5 -58t-72.5 -21q-48 0 -81.5 18t-55.5 48t-32 69t-10 80q0 42 13 86t39 79.5t66 58
t93 22.5z" />
    <glyph glyph-name="colon" unicode=":" horiz-adv-x="250" 
d="M57 402q0 28 18.5 48t49.5 20t49.5 -20t18.5 -48t-18.5 -48t-49.5 -20t-49.5 20t-18.5 48zM57 58q0 28 18.5 48t49.5 20t49.5 -20t18.5 -48t-18.5 -48t-49.5 -20t-49.5 20t-18.5 48z" />
    <glyph glyph-name="semicolon" unicode=";" horiz-adv-x="250" 
d="M70 402q0 28 18.5 48t49.5 20t49.5 -20t18.5 -48t-18.5 -48t-49.5 -20t-49.5 20t-18.5 48zM45 -122q26 25 50 52t41 59q-25 18 -42 37.5t-17 51.5q0 27 18.5 44t44.5 17q38 0 52 -23t14 -58q0 -29 -13.5 -58t-34 -56t-44.5 -50.5t-45 -40.5z" />
    <glyph glyph-name="less" unicode="&#x3c;" horiz-adv-x="600" 
d="M540 -8l-479 209v77l479 209v-78l-382 -170l382 -169v-78z" />
    <glyph glyph-name="equal" unicode="=" horiz-adv-x="600" 
d="M540 124h-479v77h479v-77zM540 278h-479v77h479v-77z" />
    <glyph glyph-name="greater" unicode="&#x3e;" horiz-adv-x="600" 
d="M61 70l382 170l-382 169v78l479 -209v-77l-479 -209v78z" />
    <glyph glyph-name="question" unicode="?" horiz-adv-x="389" 
d="M94 56q0 28 19.5 47t46.5 19q28 0 47 -19t19 -47t-19 -47t-47 -19q-27 0 -46.5 19t-19.5 47zM181 190h-33v215q30 10 55 22.5t43 30t28 41.5t10 57q0 25 -7.5 47.5t-21.5 39.5t-34.5 27.5t-46.5 10.5q-16 0 -28 -5t-26 -13q6 -15 11.5 -31t5.5 -32q0 -29 -16.5 -42.5
t-37.5 -13.5t-37.5 13.5t-16.5 42.5t13.5 50.5t35 36t48 21.5t52.5 7q40 0 73 -16.5t56 -43.5t35.5 -62.5t12.5 -73.5q0 -45 -10.5 -79t-31.5 -59.5t-54 -45t-78 -35.5v-110z" />
    <glyph glyph-name="at" unicode="@" horiz-adv-x="800" 
d="M332 292q0 -46 17.5 -67t42.5 -21q26 0 48 21.5t38.5 54t25.5 70.5t9 70q0 33 -10.5 50t-34.5 17q-18 0 -41.5 -13.5t-44.5 -39t-35.5 -61.5t-14.5 -81zM543 525h75l-60 -241q-3 -11 -6 -24.5t-3 -22.5q0 -16 7.5 -30.5t29.5 -14.5q28 0 51.5 20.5t40 51.5t25.5 68t9 71
q0 45 -20 92t-57.5 85.5t-92 63t-123.5 24.5q-55 0 -106.5 -21t-91.5 -63.5t-64 -107.5t-24 -153q0 -57 22.5 -108.5t62 -91t94 -63t117.5 -23.5q35 0 64 4t53.5 11t47 16t45.5 20l12 -40q-51 -26 -104.5 -44.5t-116.5 -18.5q-104 0 -178.5 34.5t-123.5 86.5t-72 113.5
t-23 114.5q0 85 31 155.5t83.5 120.5t123 77.5t148.5 27.5q73 0 137 -23.5t110.5 -65t73.5 -98.5t27 -124q0 -41 -13 -85.5t-38 -81.5t-62 -61.5t-84 -24.5q-26 0 -44.5 10t-29.5 23t-16 25.5t-5 17.5h-2q-4 -7 -14.5 -19.5t-26 -25t-36.5 -21.5t-45 -9q-13 0 -30.5 4.5
t-33.5 18.5t-27 39.5t-11 67.5q0 30 12.5 74.5t38.5 85t65.5 69.5t92.5 29q19 0 31 -5t19.5 -12.5t13 -17.5t10.5 -19z" />
    <glyph glyph-name="A" unicode="A" horiz-adv-x="611" 
d="M368 264l-105 326h-2l-104 -326h211zM-24 0v32q21 6 36 14t26 19t18.5 25.5t14.5 35.5l167 516l-25 59l135 7l219 -664l55 -12v-32h-239v32l55 12l-58 178h-238l-30 -95q-4 -13 -5.5 -22.5t-1.5 -21.5q0 -13 6 -21.5t16 -13.5t22.5 -8.5t24.5 -7.5v-32h-198z" />
    <glyph glyph-name="B" unicode="B" horiz-adv-x="667" 
d="M220 400h64q52 0 85 12t52 31.5t26 44.5t7 50q0 65 -36.5 97.5t-117.5 32.5q-26 0 -45.5 -2.5t-34.5 -7.5v-258zM220 40q14 -3 31 -5.5t33 -2.5q41 0 76 8.5t61 27.5t40.5 50t14.5 77q0 48 -16.5 81t-45.5 53.5t-68 29.5t-84 9h-42v-328zM98 660l-55 8v32h336q34 0 69 -8
t63.5 -26t46.5 -47.5t18 -72.5q0 -41 -17 -70t-44 -48.5t-61.5 -30.5t-68.5 -15v-2q42 -9 82.5 -24.5t71.5 -39t50 -55.5t19 -75t-17 -77.5t-49 -58.5t-77 -37t-100 -13h-322v32l55 8v620z" />
    <glyph glyph-name="C" unicode="C" horiz-adv-x="611" 
d="M577 191q-15 -44 -39.5 -82t-57.5 -65.5t-73 -43t-86 -15.5q-67 0 -119.5 27.5t-89 74.5t-55.5 110.5t-19 134.5q0 65 18 133t54 123.5t89 91t124 35.5q20 0 38 -2.5t35 -7.5t31.5 -8t25.5 -3q12 0 32.5 6t40.5 15l49 -217l-38 -9q-17 32 -37.5 65t-45.5 60t-55 44
t-66 17q-46 0 -78.5 -24t-53.5 -62t-31 -84t-10 -91q0 -59 11.5 -120.5t37 -111.5t65.5 -82.5t98 -32.5q30 0 57 11t49 29.5t39 43.5t27 52z" />
    <glyph glyph-name="D" unicode="D" horiz-adv-x="667" 
d="M215 40q22 -8 74 -8q43 0 80 13.5t64 49.5t42 97.5t15 157.5t-15 157.5t-42 97.5t-64 49.5t-80 13.5q-52 0 -74 -8v-620zM93 660l-55 8v32h269q86 0 146 -32.5t97.5 -83t54.5 -112.5t17 -122t-17 -122t-54.5 -112.5t-97.5 -83t-146 -32.5h-269v32l55 8v620z" />
    <glyph glyph-name="E" unicode="E" horiz-adv-x="611" 
d="M519 -15q-14 8 -38.5 11.5t-54.5 3.5h-385v32l55 8v620l-55 8v32h378q30 0 54.5 3.5t38.5 11.5l46 -203l-37 -8q-20 43 -41 74t-49.5 51t-67.5 29.5t-94 9.5q-28 0 -51 -8v-268h40q52 0 75 26t35 86h32v-256h-32q-12 60 -35 86t-75 26h-40v-320q23 -8 51 -8q54 0 94.5 12
t71 35.5t53.5 58.5t44 81l37 -8z" />
    <glyph glyph-name="F" unicode="F" horiz-adv-x="556" 
d="M43 0v32l55 8v620l-55 8v32h363q30 0 54.5 3.5t38.5 11.5l55 -214l-38 -9q-23 42 -45 74.5t-49 55t-63.5 34.5t-87.5 12q-28 0 -51 -8v-278h59q25 0 41.5 8t27.5 22.5t17.5 33.5t9.5 41h32v-253h-32q-3 26 -9.5 47.5t-17.5 36.5t-27.5 23.5t-41.5 8.5h-59v-310l55 -8v-32
h-232z" />
    <glyph glyph-name="G" unicode="G" horiz-adv-x="667" 
d="M468 245l-55 8v32h232v-32l-55 -8v-213q-29 0 -55.5 -7.5t-54 -16.5t-59 -16t-70.5 -7q-72 0 -129.5 27.5t-97.5 74.5t-61.5 109.5t-21.5 131.5q0 65 20 133.5t58 125t93 92.5t125 36q21 0 39 -3t34 -7q17 -4 31.5 -7.5t29.5 -3.5q21 0 38.5 6t30.5 15l47 -213l-34 -12
q-17 31 -36.5 63.5t-45 59.5t-57.5 44.5t-73 17.5q-48 0 -82 -27.5t-55.5 -69t-31 -91.5t-9.5 -95q0 -33 5.5 -72.5t18 -79.5t32 -77t47 -65.5t63 -45.5t81.5 -17q17 0 33 3.5t25 8.5v198z" />
    <glyph glyph-name="H" unicode="H" horiz-adv-x="722" 
d="M624 40l55 -8v-32h-232v32l55 8v306h-282v-306l55 -8v-32h-232v32l55 8v620l-55 8v32h232v-32l-55 -8v-272h282v272l-55 8v32h232v-32l-55 -8v-620z" />
    <glyph glyph-name="I" unicode="I" horiz-adv-x="333" 
d="M50 0v32l55 8v620l-55 8v32h232v-32l-55 -8v-620l55 -8v-32h-232z" />
    <glyph glyph-name="J" unicode="J" horiz-adv-x="389" 
d="M351 700v-32l-55 -8v-408q0 -47 -17 -94.5t-46.5 -85.5t-69.5 -62.5t-86 -24.5q-30 0 -53 17.5t-23 54.5q0 23 18.5 39.5t47.5 16.5q23 0 36.5 -9t21.5 -20t14 -20t14 -9q6 0 10 4.5t6.5 16.5t3.5 32.5t1 52.5v499l-55 8v32h232z" />
    <glyph glyph-name="K" unicode="K" horiz-adv-x="667" 
d="M109 660l-55 8v32h232v-32l-55 -8v-338h2l159 193q32 38 55 67.5t23 50.5q0 11 -6 17.5t-15.5 10t-21 5t-22.5 2.5v32h236v-32q-21 -2 -39 -7.5t-34.5 -16t-34 -26.5t-36.5 -40l-87 -107l199 -405q7 -15 18 -24t44 -10v-32h-240v32l55 8l-160 333l-95 -112v-221l55 -8
v-32h-232v32l55 8v620z" />
    <glyph glyph-name="L" unicode="L" horiz-adv-x="556" 
d="M98 660l-55 8v32h232v-32l-55 -8v-620q14 -5 26 -6.5t25 -1.5q51 0 87.5 12t63.5 34.5t49 55t45 74.5l38 -9l-55 -214q-14 8 -38.5 11.5t-54.5 3.5h-363v32l55 8v620z" />
    <glyph glyph-name="M" unicode="M" horiz-adv-x="778" 
d="M19 0v32q18 6 32 12t24 16t15.5 26.5t6.5 43.5l17 530l-55 8v32h182l147 -385l149 385h180v-32l-55 -8l21 -620l55 -8v-32h-234v32l55 8l-16 556h-2l-182 -462h-26l-175 460h-2l-12 -471q-2 -46 19 -67t62 -24v-32h-206z" />
    <glyph glyph-name="N" unicode="N" horiz-adv-x="667" 
d="M526 201h2v393q0 42 -19.5 55.5t-57.5 18.5v32h198v-32q-38 -5 -57.5 -27.5t-19.5 -58.5v-597h-47l-377 572h-2v-440q0 -41 25 -61t60 -24v-32h-214v32q35 4 60 28t25 68v442q0 45 -25 69.5t-60 28.5v32h184z" />
    <glyph glyph-name="O" unicode="O" horiz-adv-x="667" 
d="M333 25q32 0 61.5 18.5t52 58t36 101t13.5 147.5q0 92 -11.5 154.5t-32.5 100.5t-51.5 54t-67.5 16q-32 0 -61.5 -18.5t-52 -58t-36 -101t-13.5 -147.5q0 -92 11.5 -154.5t32.5 -100.5t51 -54t68 -16zM333 -15q-70 0 -125 29.5t-92.5 80t-57.5 116.5t-20 139
q0 63 22 127.5t61.5 117.5t93.5 86.5t118 33.5q70 0 125 -29.5t92.5 -80t57.5 -116.5t20 -139q0 -63 -22 -127.5t-61.5 -117.5t-93.5 -86.5t-118 -33.5z" />
    <glyph glyph-name="P" unicode="P" horiz-adv-x="611" 
d="M227 362q9 -3 23 -5.5t27 -2.5q37 0 69 9.5t56 29t37.5 50t13.5 72.5q0 71 -38.5 112t-119.5 41q-17 0 -35 -2.5t-33 -7.5v-296zM105 660l-55 8v32h260q52 0 101.5 -9.5t88 -30.5t62 -55t23.5 -83q0 -62 -27 -100.5t-71.5 -61t-100 -30.5t-112.5 -8h-47v-282l55 -8v-32
h-232v32l55 8v620z" />
    <glyph glyph-name="Q" unicode="Q" horiz-adv-x="667" 
d="M319 154q21 -3 38 -6.5t31 -10.5t26.5 -17t26.5 -26q25 38 40 101.5t15 154.5q0 92 -11.5 154.5t-32.5 100.5t-51.5 54t-67.5 16q-32 0 -61.5 -18.5t-52 -58t-36 -101t-13.5 -147.5q0 -92 11.5 -154.5t32.5 -100.5t51 -54t68 -16q28 0 52 14q-7 31 -27 50.5t-46 29.5z
M620 -79q-20 -14 -41.5 -25t-46.5 -11q-53 0 -80.5 31.5t-46.5 81.5q-33 -13 -72 -13q-70 0 -125 29.5t-92.5 80t-57.5 116.5t-20 139q0 63 22 127.5t61.5 117.5t93.5 86.5t118 33.5q70 0 125 -29.5t92.5 -80t57.5 -116.5t20 -139q0 -41 -10 -84t-28 -83t-44 -75t-58 -62
q27 -51 47 -71t45 -20q21 0 40 8v-42z" />
    <glyph glyph-name="R" unicode="R" horiz-adv-x="667" 
d="M227 378h45q98 0 139 37t41 109q0 40 -13 67.5t-35 44.5t-51 24.5t-60 7.5q-14 0 -31.5 -1.5t-34.5 -3.5v-285zM105 660l-55 8v32h255q49 0 99 -6.5t90 -26.5t65 -56.5t25 -96.5q0 -33 -14 -60t-36.5 -48t-51 -34.5t-57.5 -18.5l165 -313l55 -8v-32h-170l-179 346h-69
v-306l55 -8v-32h-232v32l55 8v620z" />
    <glyph glyph-name="S" unicode="S" horiz-adv-x="556" 
d="M484 507l-35 -9q-14 28 -31.5 59t-41 57.5t-52.5 43.5t-66 17q-54 0 -85.5 -28t-31.5 -75q0 -49 27.5 -77t69.5 -47.5t90 -35.5t90 -42t69.5 -67t27.5 -110q0 -46 -17.5 -84t-47.5 -65.5t-70 -43t-85 -15.5q-28 0 -52 5t-44.5 11t-37 11t-29.5 5q-16 0 -32 -5.5
t-32 -11.5l-38 213l38 5q17 -36 40 -71t52 -62t64.5 -43.5t77.5 -16.5q25 0 48 9.5t40 26t27.5 38.5t10.5 47q0 47 -27 74.5t-68 47.5t-88.5 37.5t-88.5 44.5t-68 69.5t-27 112.5q0 35 13.5 68t39 58.5t60.5 41t79 15.5q23 0 39.5 -2.5t30.5 -7.5t27.5 -8t27.5 -3q16 0 34 5
t35 16z" />
    <glyph glyph-name="T" unicode="T" horiz-adv-x="611" 
d="M461 700q30 0 54.5 3.5t38.5 11.5l44 -212l-32 -8q-15 35 -32 66.5t-40.5 55t-54.5 37.5t-73 14v-628l55 -8v-32h-232v32l55 8v628q-42 0 -73.5 -14t-54.5 -37.5t-40 -55t-32 -66.5l-32 8l44 212q14 -8 38.5 -11.5t54.5 -3.5h312z" />
    <glyph glyph-name="U" unicode="U" horiz-adv-x="667" 
d="M265 700v-32l-55 -8v-470q0 -35 13.5 -64.5t36 -51t51 -33.5t57.5 -12q35 0 66 11t53.5 32t35.5 51.5t13 70.5v389q0 41 -25 61t-60 24v32h214v-32q-35 -4 -60 -24t-25 -61v-363q0 -46 -11 -88.5t-38 -75t-73 -52t-116 -19.5q-56 0 -103 10.5t-80.5 34.5t-52 63t-18.5 97
v470l-55 8v32h232z" />
    <glyph glyph-name="V" unicode="V" horiz-adv-x="556" 
d="M231 -8l-202 668l-55 8v32h233v-32l-55 -8l163 -542h2l126 413q9 31 15 50t6 32q0 23 -19 35.5t-51 19.5v32h196v-32q-32 -7 -53 -22.5t-30 -44.5l-169 -548l23 -61h-130z" />
    <glyph glyph-name="W" unicode="W" horiz-adv-x="833" 
d="M205 -8l-171 668l-55 8v32h233v-32l-55 -8l126 -520h2l110 406l-41 136l118 33l147 -575h2l109 410q5 19 8 32.5t3 24.5q0 29 -16 43t-51 18v32h187v-32q-37 -4 -53 -26t-26 -58l-138 -519l24 -73h-129l-122 478h-2l-109 -405l23 -73h-124z" />
    <glyph glyph-name="X" unicode="X" horiz-adv-x="611" 
d="M7 0v32q27 5 52.5 16.5t41.5 37.5l147 246l-192 328l-55 8v32h250v-32l-55 -8l129 -225l78 132q11 17 17.5 31.5t6.5 28.5q0 19 -15.5 29t-50.5 12v32h206v-32q-38 -2 -62 -23.5t-42 -52.5l-115 -199l212 -353l55 -8v-32h-253v32l55 8l-146 253l-63 -109
q-20 -34 -36 -60.5t-16 -50.5q0 -12 7.5 -20t19 -12.5t23.5 -6.5t21 -2v-32h-220z" />
    <glyph glyph-name="Y" unicode="Y" horiz-adv-x="556" 
d="M226 700v-32l-55 -8l152 -308l95 184q14 26 21.5 46t7.5 36q0 13 -6 22t-15.5 14t-21.5 8l-24 6v32h201v-32q-30 -3 -53.5 -25.5t-40.5 -55.5l-147 -292v-255l55 -8v-32h-232v32l55 8v258l-183 362l-55 8v32h246z" />
    <glyph glyph-name="Z" unicode="Z" horiz-adv-x="556" 
d="M45 514l49 201q14 -8 38.5 -11.5t54.5 -3.5h328v-42l-363 -626h91q49 0 86.5 15t66 39.5t49.5 56.5t38 65l36 -4l-54 -219q-14 8 -38.5 11.5t-54.5 3.5h-349v42l361 626h-86q-45 0 -78.5 -13t-59 -35t-45 -51t-36.5 -60z" />
    <glyph glyph-name="bracketleft" unicode="[" horiz-adv-x="389" 
d="M118 750h183v-28q-51 0 -71 -11.5t-20 -48.5v-710q0 -19 4.5 -30.5t15.5 -18t28 -9t43 -2.5v-28h-183v886z" />
    <glyph glyph-name="backslash" unicode="\" horiz-adv-x="278" 
d="M289 -15h-78l-222 730h78z" />
    <glyph glyph-name="bracketright" unicode="]" horiz-adv-x="389" 
d="M271 750v-886h-183v28q25 0 42.5 2.5t28.5 9t15.5 18t4.5 30.5v710q0 37 -20 48.5t-71 11.5v28h183z" />
    <glyph glyph-name="asciicircum" unicode="^" horiz-adv-x="600" 
d="M84 335l180 365h72l180 -365h-83l-133 277l-134 -277h-82z" />
    <glyph glyph-name="underscore" unicode="_" 
d="M0 -125v50h500v-50h-500z" />
    <glyph glyph-name="quoteleft" unicode="&#x2018;" horiz-adv-x="222" 
d="M175 697q-9 -12 -20 -26t-20.5 -30t-16 -33t-6.5 -33q25 -11 44 -31t19 -49q0 -28 -17 -44t-45 -16q-35 0 -50.5 24t-15.5 56q0 29 8.5 56.5t22.5 52.5t32.5 48t38.5 43z" />
    <glyph glyph-name="a" unicode="a" horiz-adv-x="444" 
d="M269 279q-64 -17 -100.5 -51.5t-36.5 -91.5q0 -15 6 -29.5t15.5 -26t21.5 -18t23 -6.5q21 0 41 9.5t30 22.5v191zM369 87q0 -15 4 -26t20 -11q8 0 17 4t17 10l17 -21q-4 -8 -13 -17.5t-21.5 -18.5t-27.5 -15t-32 -6q-38 0 -54.5 20.5t-22.5 46.5q-29 -30 -59.5 -48.5
t-73.5 -18.5q-24 0 -44.5 9.5t-35.5 25.5t-23.5 37.5t-8.5 45.5q0 49 22.5 82t58 56.5t78 40t82.5 33.5v49q0 20 -7 37t-17.5 29.5t-23.5 19.5t-26 7q-7 0 -12.5 -10.5t-14 -23t-20.5 -23t-32 -10.5q-57 0 -57 47q0 16 8 26.5t20.5 17t27.5 9t29 2.5q28 0 66.5 -8.5
t73.5 -27.5t60 -49.5t25 -73.5v-247z" />
    <glyph glyph-name="b" unicode="b" 
d="M170 120q0 -20 4.5 -37.5t15 -31.5t26.5 -22t39 -8q49 0 76.5 49t27.5 147q0 26 -5 60.5t-17.5 65t-35 51.5t-57.5 21q-13 0 -26 -5t-23.5 -11.5t-17.5 -14t-7 -13.5v-251zM54 -14l-19 8q15 35 25 78t10 93v481q0 17 -11 23t-28 6v27l139 62v-337q29 31 56 48.5t68 17.5
q46 0 77.5 -20t51 -52t28 -72t8.5 -81q0 -43 -12.5 -92.5t-37.5 -91.5t-62.5 -70t-87.5 -28q-46 0 -78 22.5t-55 51.5z" />
    <glyph glyph-name="c" unicode="c" horiz-adv-x="444" 
d="M416 78q-80 -92 -163 -92q-49 0 -88 17.5t-66.5 48t-42 73t-14.5 92.5q0 59 17 109.5t48 87.5t74 58t95 21q17 0 36.5 -4t36.5 -13t28.5 -25t11.5 -40q0 -22 -17 -35.5t-38 -13.5q-28 0 -40 15t-18 33t-10 33t-16 15q-21 0 -40.5 -11t-34.5 -34.5t-24 -59.5t-9 -85
q0 -34 10 -70.5t29.5 -67t49 -50t67.5 -19.5q28 0 49 10t41 29z" />
    <glyph glyph-name="d" unicode="d" 
d="M319 389q0 29 -23.5 49t-54.5 20q-26 0 -45 -14.5t-31 -40t-17.5 -60.5t-5.5 -75q0 -26 5 -61t18 -67t34.5 -54t53.5 -22q30 0 48 22t18 50v253zM319 634q0 25 -14 34t-41 9v27l155 60v-640q0 -35 9 -54t39 -22v-27l-111 -35q-13 13 -19 32.5t-11 40.5q-12 -12 -26 -25
t-29.5 -23.5t-33.5 -17.5t-37 -7q-40 0 -69.5 21t-49 53t-29.5 71.5t-10 77.5q0 51 10 102t33 91.5t60 65.5t90 25q27 0 48.5 -7t35.5 -16v164z" />
    <glyph glyph-name="e" unicode="e" horiz-adv-x="444" 
d="M240 301q30 8 42.5 26t12.5 54q0 38 -20.5 57.5t-54.5 19.5q-26 0 -44 -15t-29.5 -41t-17 -60t-5.5 -71zM134 229q1 -30 10 -60t26 -54t42.5 -39t60.5 -15q23 0 38.5 5t27.5 14t22 21t22 26l27 -21q-18 -27 -37.5 -49t-42.5 -37.5t-50.5 -24.5t-61.5 -9q-44 0 -78 19.5
t-57.5 52t-36 74.5t-12.5 86q0 47 12 96t37 88.5t63 65t89 25.5q40 0 72 -16t54.5 -43t35 -61t12.5 -70z" />
    <glyph glyph-name="f" unicode="f" horiz-adv-x="278" 
d="M259 434h-79v-397l55 -10v-27h-210v27l55 10v397h-59v45h59q0 56 18.5 107.5t46.5 91t59.5 63t58.5 23.5q25 0 43.5 -13.5t18.5 -40.5t-15 -41.5t-38 -14.5q-16 0 -28.5 4.5t-21.5 9.5t-15.5 9.5t-10.5 4.5t-7.5 -12t-6 -30.5t-4 -40.5t-1.5 -42v-78h82v-45z" />
    <glyph glyph-name="g" unicode="g" 
d="M104 -81q0 -38 35 -51t108 -13q31 0 59 2.5t49.5 10t34.5 20t13 32.5q0 34 -29.5 45t-79.5 15q-36 3 -71.5 5t-51.5 2q-6 0 -17 -6.5t-22.5 -16.5t-19.5 -22t-8 -23zM152 319q0 -24 5 -49t16 -45.5t29 -33t44 -12.5q28 0 46.5 14t29.5 35t16 46t5 47t-5 46t-16.5 44.5
t-30.5 33.5t-47 13q-27 0 -45 -13t-28.5 -33.5t-14.5 -45t-4 -47.5zM52 316q0 45 18 78.5t48.5 55t72 32.5t88.5 11q16 14 33 30.5t36 31t39 24t42 9.5q23 0 39.5 -14t16.5 -36q0 -21 -13.5 -35.5t-33.5 -14.5q-14 0 -25 5t-19.5 10.5t-15 10.5t-10.5 5q-6 0 -22.5 -11
t-27.5 -25q55 -20 90 -61t35 -99q0 -43 -16.5 -76.5t-44.5 -56t-65 -34.5t-77 -12q-14 0 -27 2t-27 4q-12 -9 -28 -18.5t-16 -24.5t38 -19t115 -6q55 -2 91.5 -12t58.5 -26.5t31 -38t9 -46.5q0 -33 -12 -56.5t-31.5 -39t-45.5 -24t-53 -13t-53.5 -5.5t-48.5 -1
q-41 0 -80.5 2.5t-70.5 11t-49.5 24.5t-18.5 42q0 16 11 31t26.5 28t31.5 23.5t26 17.5q-11 2 -24.5 4.5t-25.5 7.5t-20.5 13t-8.5 22q0 21 11 37.5t27.5 30t35 26t33.5 26.5q-19 10 -36 26t-29.5 35.5t-20 42t-7.5 45.5z" />
    <glyph glyph-name="h" unicode="h" horiz-adv-x="556" 
d="M321 0v27l55 10v297q0 28 -9 48t-23.5 32.5t-32 18t-33.5 5.5q-18 0 -34.5 -5.5t-28.5 -14t-19.5 -17.5t-7.5 -15v-349l48 -10v-27h-203v27l55 10v597q0 25 -14 34t-41 9v27l155 60v-330q30 29 64 44t67 15q23 0 50.5 -8t51 -26.5t39.5 -49t16 -75.5v-297l55 -10v-27
h-210z" />
    <glyph glyph-name="i" unicode="i" horiz-adv-x="278" 
d="M83 643q0 27 18 44.5t44 17.5t44 -17.5t18 -44.5q0 -28 -18 -45t-44 -17t-44 17t-18 45zM40 0v27l55 10v331q0 32 -14 41.5t-41 9.5v27l155 47v-456l55 -10v-27h-210z" />
    <glyph glyph-name="j" unicode="j" horiz-adv-x="278" 
d="M88 643q0 27 18 44.5t44 17.5t44 -17.5t18 -44.5q0 -28 -18 -45t-44 -17t-44 17t-18 45zM200 66q0 -42 -16.5 -85.5t-42.5 -79.5t-58 -58.5t-62 -22.5q-22 0 -36 14t-14 36t15.5 36t47.5 14q13 0 21.5 -3.5t15 -8t11 -8t9.5 -3.5q4 0 6.5 11.5t2.5 50.5v417q0 25 -14 34
t-41 9v27l155 47v-427z" />
    <glyph glyph-name="k" unicode="k" 
d="M292 0v27l55 10l-120 211l-46 -74v-137l48 -10v-27h-203v27l55 10v597q0 25 -14 34t-41 9v27l155 60v-517h2l55 87q18 29 39.5 57.5t44 51t44.5 36.5t42 14q21 0 39 -15.5t18 -39.5q0 -17 -6 -29t-15.5 -19.5t-20 -11t-19.5 -3.5q-18 0 -32.5 11t-27.5 11
q-7 0 -15.5 -7.5t-17 -17.5t-15 -20t-9.5 -16l170 -299l48 -10v-27h-213z" />
    <glyph glyph-name="l" unicode="l" horiz-adv-x="278" 
d="M40 0v27l55 10v597q0 25 -14 34t-41 9v27l155 60v-727l55 -10v-27h-210z" />
    <glyph glyph-name="m" unicode="m" horiz-adv-x="833" 
d="M324 0v27l48 10v293q0 38 -22 63t-56 25q-20 0 -39 -8.5t-33.5 -20.5t-23 -24.5t-8.5 -21.5v-306l48 -10v-27h-203v27l55 10v321q0 33 -14 47t-41 14v27l113 47q17 -22 26.5 -44t13.5 -44q14 16 30 31.5t34 28t38.5 20.5t43.5 8q46 0 79.5 -22.5t44.5 -63.5
q25 36 61.5 61t76.5 25q48 0 78.5 -14.5t48.5 -39.5t24.5 -59t6.5 -72v-271l55 -10v-27h-203v27l48 10v296q0 41 -27.5 63t-63.5 22q-17 0 -33.5 -7t-30 -16t-22 -18.5t-8.5 -13.5q0 -12 1.5 -29.5t1.5 -41.5v-255l48 -10v-27h-196z" />
    <glyph glyph-name="n" unicode="n" horiz-adv-x="556" 
d="M141 493q14 -13 25.5 -37.5t16.5 -45.5q28 34 66.5 58.5t73.5 24.5q71 0 111.5 -43.5t40.5 -121.5v-291l48 -10v-27h-196v27l48 10v283q0 18 -4.5 35.5t-15 31.5t-28.5 22.5t-44 8.5q-18 0 -31 -5t-24 -13.5t-20.5 -19t-19.5 -21.5v-322l48 -10v-27h-203v27l55 10v296
q0 22 -2 38t-8.5 26.5t-19.5 16t-35 5.5v27z" />
    <glyph glyph-name="o" unicode="o" 
d="M250 21q30 0 49.5 22t31 54.5t16 70.5t4.5 71q0 108 -23 163.5t-78 55.5t-78 -55t-23 -164q0 -51 4.5 -91t16 -68.5t31 -43.5t49.5 -15zM250 -14q-50 0 -89.5 19t-67.5 53t-43 80.5t-15 100.5q0 51 15.5 97t43.5 81t68 55.5t88 20.5t88 -20.5t68 -55.5t43.5 -81t15.5 -97
q0 -43 -15 -88t-43 -81.5t-68 -60t-89 -23.5z" />
    <glyph glyph-name="p" unicode="p" 
d="M176 77q0 -5 6.5 -14.5t17.5 -18.5t26 -16t32 -7q26 0 44.5 15t30 41t17 59.5t5.5 71.5q0 34 -6 71t-19 67t-34.5 49.5t-52.5 19.5q-11 0 -23 -4t-21.5 -10.5t-16 -14.5t-6.5 -16v-293zM224 -140v-27h-196v27l48 10v492q0 17 -2 27.5t-7 16.5t-14.5 8.5t-24.5 4.5v27
l104 47q15 -16 24 -37.5t12 -43.5q22 32 54 56.5t74 24.5q33 0 61.5 -15.5t50.5 -45.5t34.5 -75t12.5 -104q0 -41 -13 -88t-37.5 -86.5t-60.5 -66t-81 -26.5q-19 0 -41.5 4.5t-45.5 18.5v-139z" />
    <glyph glyph-name="q" unicode="q" 
d="M324 346q0 34 -7 56t-18.5 34.5t-25.5 17t-29 4.5q-42 0 -71.5 -50.5t-29.5 -153.5q0 -84 28 -137t86 -53q18 0 35.5 7.5t31.5 19.5v255zM440 493l24 -12q-19 -35 -29.5 -80.5t-10.5 -87.5v-443l48 -10v-27h-203v27l55 10v174h-2q-10 -14 -25 -24.5t-31 -18t-31.5 -11.5
t-27.5 -4q-44 0 -75 18.5t-51 49.5t-29 70t-9 80q0 53 13 105t39 93t64 66t88 25q45 0 76.5 -22.5t51.5 -53.5z" />
    <glyph glyph-name="r" unicode="r" horiz-adv-x="389" 
d="M133 493q11 -9 19 -27t14 -39.5t9.5 -44.5t5.5 -42h2q9 21 20.5 47.5t27 50t35.5 39.5t47 16q67 0 67 -59q0 -20 -19.5 -39.5t-48.5 -19.5q-20 0 -37 5.5t-22 5.5q-8 0 -18 -15t-19 -46t-15.5 -79.5t-6.5 -115.5q0 -23 1 -46.5t5 -46.5l55 -10v-27h-216v27l55 10v270
q0 21 -3.5 42.5t-12 39t-22.5 28t-35 10.5v27z" />
    <glyph glyph-name="s" unicode="s" horiz-adv-x="389" 
d="M179 -14q-24 0 -51.5 3.5t-51.5 12.5t-40 25.5t-16 43.5q0 23 16 38.5t38 15.5q18 0 31 -6.5t21 -16.5t12.5 -22.5t6.5 -25.5q3 -23 14.5 -28t29.5 -5q39 0 64.5 19t25.5 58q0 28 -17.5 46.5t-43.5 32.5t-57 27t-57 30t-43.5 41t-17.5 61q0 39 19.5 68t49 49t64.5 30
t67 10t57 -15t25 -45q0 -26 -15.5 -38t-36.5 -12q-34 0 -52.5 20.5t-26.5 54.5q-32 -4 -55.5 -24.5t-23.5 -52.5q0 -25 18 -40.5t45.5 -27.5t59 -24t59 -30.5t45.5 -47t18 -72.5q0 -39 -14.5 -67.5t-39 -47.5t-57.5 -28.5t-70 -9.5z" />
    <glyph glyph-name="t" unicode="t" horiz-adv-x="333" 
d="M28 434v45h55v138l100 57v-195h113v-45h-113v-336q0 -24 16 -35.5t37 -11.5q20 0 37 9.5t34 23.5l15 -27q-11 -13 -26 -26t-32 -23t-35.5 -16t-36.5 -6q-33 0 -54 11t-33.5 28t-17 37t-4.5 37v335h-55z" />
    <glyph glyph-name="u" unicode="u" horiz-adv-x="556" 
d="M182 130q0 -26 8.5 -41.5t22 -24t29.5 -11t31 -2.5q19 0 37 7t32 17t22 21t8 19v247q0 17 -2 27.5t-7 16.5t-14.5 8.5t-24.5 4.5v27l148 47v-388q0 -17 2 -27.5t7 -16.5t14.5 -9t24.5 -4v-27l-108 -35q-15 16 -22.5 36.5t-12.5 40.5q-29 -37 -68 -57t-96 -20
q-21 0 -44 7.5t-42.5 24t-32 42t-12.5 61.5v241q0 17 -2 27.5t-7 16.5t-14.5 8.5t-24.5 4.5v27l148 47v-363z" />
    <glyph glyph-name="v" unicode="v" horiz-adv-x="444" 
d="M-13 455l121 38l143 -385l110 243q-23 10 -40.5 30.5t-17.5 46.5q0 28 16 46.5t45 18.5t45 -18.5t16 -46.5q0 -24 -9.5 -50.5t-23.5 -57.5l-154 -328h-41l-161 402q-7 17 -18 24.5t-31 9.5v27z" />
    <glyph glyph-name="w" unicode="w" horiz-adv-x="667" 
d="M322 323h-2l-113 -331h-35l-139 409q-4 11 -15.5 18.5t-35.5 8.5v27l128 38l108 -349h2l117 349h27l129 -362l52 116q4 9 10 23.5t11.5 29.5t10.5 29.5t8 25.5q-10 6 -20.5 15t-19.5 19.5t-15 21t-6 18.5q0 32 16.5 48t45.5 16t45 -16t16 -48q0 -9 -4.5 -29t-12 -43.5
t-16.5 -48.5t-18 -44l-117 -272h-35z" />
    <glyph glyph-name="x" unicode="x" horiz-adv-x="444" 
d="M238 0v27l48 10l-97 163l-52 -83q-18 -30 -18 -47q0 -15 12 -28t36 -15v-27h-171v27q18 4 31.5 11.5t24.5 19.5t22 29t25 40l67 111l-123 204l-41 10v27h203v-27l-48 -10l80 -136l44 69q8 12 12.5 25.5t4.5 22.5q0 11 -12 19t-29 10v27h155v-27q-18 -4 -30 -9.5
t-22 -14.5t-18.5 -22t-18.5 -31l-61 -106l143 -232l48 -10v-27h-215z" />
    <glyph glyph-name="y" unicode="y" horiz-adv-x="444" 
d="M-11 455l124 38l154 -380q13 30 27.5 62.5t28 65t24 62t16.5 52.5q-25 13 -42.5 32t-17.5 42q0 32 16 48t45 16t45 -16t16 -48q0 -16 -8.5 -45.5t-20.5 -64t-26.5 -70t-26.5 -63.5q-48 -111 -83.5 -182.5t-63 -112t-48.5 -56t-38 -15.5q-14 0 -27 2.5t-23.5 8.5t-17 16
t-6.5 25q0 27 14 42.5t41 15.5q26 0 43 -7t27 -7q6 0 12.5 9t13 22t12 27.5t9.5 25.5l-121 305q-17 41 -28 65t-21 36.5t-21.5 16t-27.5 5.5v27z" />
    <glyph glyph-name="z" unicode="z" horiz-adv-x="444" 
d="M139 35h55q39 0 71 15.5t56.5 38t41 49t25.5 49.5l32 -9l-50 -185q-14 4 -27 5.5t-33 1.5h-286v40l267 402q-8 1 -17 1.5t-22 0.5q-65 0 -109.5 -37.5t-68.5 -92.5l-30 8l43 164q14 -4 27 -5.5t33 -1.5h268v-27z" />
    <glyph glyph-name="braceleft" unicode="{" horiz-adv-x="389" 
d="M118 187q0 50 -15 77.5t-61 42.5q46 14 61 41.5t15 78.5v190q0 47 10.5 76t31 44.5t51.5 21t72 5.5v-27q-42 -13 -57.5 -43.5t-15.5 -80.5v-168q0 -29 -3 -51.5t-11.5 -39t-24.5 -28t-42 -18.5v-2q26 -7 42 -18.5t24.5 -28.5t11.5 -39.5t3 -51.5v-167q0 -51 15.5 -81.5
t57.5 -42.5v-27q-41 0 -72 5t-51.5 21t-31 45t-10.5 76v190z" />
    <glyph glyph-name="bar" unicode="|" horiz-adv-x="222" 
d="M73 750h77v-1000h-77v1000z" />
    <glyph glyph-name="braceright" unicode="}" horiz-adv-x="389" 
d="M271 427q0 -26 3 -45t11.5 -33.5t23.5 -24.5t38 -17q-23 -8 -38 -18t-23.5 -24.5t-11.5 -33.5t-3 -44v-190q0 -47 -10.5 -76t-31 -45t-51.5 -21t-72 -5v27q42 12 57.5 42.5t15.5 81.5v167q0 29 3 51.5t11.5 39.5t24.5 28.5t42 18.5v2q-26 7 -42 18.5t-24.5 28t-11.5 39
t-3 51.5v168q0 50 -15.5 80.5t-57.5 43.5v27q41 0 72 -5.5t51.5 -21t31 -44.5t10.5 -76v-190z" />
    <glyph glyph-name="asciitilde" unicode="~" horiz-adv-x="600" 
d="M530 253q-11 -16 -23 -31.5t-26.5 -27.5t-33 -19.5t-41.5 -7.5q-26 0 -52 10.5t-53 23.5t-53.5 23.5t-58.5 10.5q-17 0 -29.5 -6.5t-23 -16.5t-18.5 -23t-14 -26l-35 62q8 16 19.5 31.5t26.5 27.5t34.5 19.5t44.5 7.5q29 0 59 -10.5t59 -23.5t53.5 -23.5t41.5 -10.5
q15 0 27.5 6.5t23 16.5t19.5 23l18 26z" />
    <glyph glyph-name="exclamdown" unicode="&#xa1;" horiz-adv-x="333" 
d="M103 479q0 28 19 47t47 19q27 0 46.5 -19t19.5 -47t-19.5 -47t-46.5 -19q-28 0 -47 19t-19 47zM181 342q0 -62 2.5 -116t10.5 -116q3 -23 9 -50.5t12 -55.5t11 -54t5 -46q0 -39 -15.5 -61.5t-51.5 -22.5t-51.5 22.5t-15.5 61.5q0 20 5 46t11 54t12 55.5t9 50.5
q8 62 10.5 116t2.5 116h34z" />
    <glyph glyph-name="cent" unicode="&#xa2;" 
d="M248 558q-24 -15 -39.5 -37t-23.5 -48t-11 -52.5t-3 -50.5q0 -51 21 -96t56 -74v358zM248 690h41v-93q21 0 45.5 -4t46.5 -13.5t36.5 -25t14.5 -38.5q0 -19 -13.5 -33t-35.5 -14q-19 0 -32.5 8t-22 20.5t-13.5 28.5t-6 32q-5 2 -10.5 3t-9.5 1v-376q6 -2 11 -2h11
q29 0 54 18t46 49l26 -20q-25 -43 -61.5 -78t-86.5 -40v-108h-41v108q-42 6 -73.5 27.5t-52.5 52.5t-31.5 68.5t-10.5 73.5q0 43 11.5 85t33 76.5t52.5 60t71 37.5v96z" />
    <glyph glyph-name="sterling" unicode="&#xa3;" 
d="M21 106q0 -32 22 -54t53 -22q21 0 38.5 9t30.5 23.5t20 32t9 35.5q-21 20 -43.5 36t-54.5 16q-36 0 -55.5 -20.5t-19.5 -55.5zM132 390q-2 14 -3.5 27.5t-1.5 26.5q0 49 22 97.5t58 87t82 62.5t94 24q37 0 65 -19.5t28 -60.5q0 -26 -15 -47.5t-44 -21.5q-20 0 -33 7.5
t-23 19.5t-18.5 28t-18.5 34q-25 0 -42 -14t-27.5 -34t-15 -42.5t-4.5 -41.5q0 -8 1 -23.5t3 -34.5t5 -38.5t7 -36.5h123v-45h-117q6 -32 7.5 -64.5t1.5 -58.5q0 -16 -2 -30.5t-3 -26.5q28 -23 63 -38.5t71 -15.5q21 0 35.5 9t25.5 24t18 34.5t13 40.5h34q0 -38 -5.5 -79
t-20.5 -75.5t-41 -57t-66 -22.5q-23 0 -42.5 10t-38 25t-36 33t-35.5 35q-19 -45 -57.5 -74t-92.5 -29q-21 0 -40.5 8t-34.5 23.5t-24 38t-9 51.5q0 28 9 50.5t24 38.5t34.5 24t40.5 8q29 0 57 -9.5t50 -23.5q-2 20 -8 39.5t-13.5 38l-15 37t-11.5 36.5h-104v45h91z" />
    <glyph glyph-name="fraction" unicode="&#x2044;" horiz-adv-x="167" 
d="M274 715h60l-441 -730h-60z" />
    <glyph glyph-name="fraction" unicode="&#x2215;" horiz-adv-x="167" 
d="M274 715h60l-441 -730h-60z" />
    <glyph glyph-name="yen" unicode="&#xa5;" 
d="M134 444l-94 215l-40 9v32h200v-32l-45 -9l128 -307l76 177q27 63 27 89q0 15 -5 23.5t-13 13.5t-18 7.5t-19 5.5v32h169v-32q-44 0 -79 -81l-62 -143h84v-45h-105l-37 -90h108v-45h-115v-224l46 -8v-32h-188v32l46 8v224h-116v45h111l-39 90h-105v45h85z" />
    <glyph glyph-name="florin" unicode="&#x192;" 
d="M120 400v45h96q5 46 21 101.5t44 104t66.5 81t88.5 32.5q9 0 19.5 -3.5t19 -10.5t14.5 -17t6 -22q0 -25 -13.5 -37.5t-36.5 -12.5q-12 0 -20.5 6t-15.5 13t-13.5 13t-14.5 6q-11 0 -19 -10.5t-15.5 -38.5t-14 -77.5t-13.5 -127.5h98v-45h-102q-3 -26 -6.5 -64t-9 -84
t-13.5 -95.5t-20 -97.5q-12 -50 -33.5 -93.5t-48.5 -75.5t-58 -51t-61 -19q-29 0 -47 14.5t-18 42.5q0 20 13.5 34t35.5 14q13 0 23.5 -6.5t19 -14t14.5 -13.5t11 -6q7 0 15.5 24.5t17 62t15 81.5t11.5 83l32 264h-88z" />
    <glyph glyph-name="section" unicode="&#xa7;" 
d="M373 249q0 15 -6.5 28t-17 25.5t-24.5 25.5t-29 27q-35 32 -59.5 48t-48.5 16q-26 0 -43 -17.5t-17 -40.5q0 -18 6 -32t16.5 -26.5t24 -24.5t28.5 -25q38 -33 61 -49t49 -16q29 0 44.5 19t15.5 42zM439 286q0 -55 -33.5 -87.5t-88.5 -30.5v-9q17 -15 32 -29.5t26 -31
t17.5 -35t6.5 -41.5q0 -33 -13 -57t-35 -40.5t-50 -24.5t-58 -8q-23 0 -49 5t-48 17t-36 31.5t-14 48.5t17 44t46 15q21 0 37 -15t16 -37q0 -14 -6.5 -22.5t-14.5 -14.5t-14.5 -10.5t-6.5 -10.5q0 -8 8 -14t19.5 -9.5t24.5 -5.5t24 -2q34 0 56.5 20t22.5 56q0 24 -19.5 47.5
t-48.5 47.5t-63.5 48.5t-63.5 52t-48.5 59t-19.5 67.5q0 63 31.5 97.5t94.5 31.5v9q-14 12 -29 26.5t-27 31t-20 35t-8 38.5q0 66 40 101t105 35q23 0 47.5 -6t44.5 -18.5t33 -31.5t13 -44q0 -24 -15 -41t-46 -17q-20 0 -36 14.5t-16 32.5q0 15 6 25t13.5 16.5t14 11.5
t6.5 11t-5.5 10.5t-14.5 8.5t-20 6t-21 2q-37 0 -60 -22t-23 -60q0 -19 20 -39.5t50 -43.5t64.5 -49t64.5 -56t50 -64.5t20 -74.5z" />
    <glyph glyph-name="currency" unicode="&#xa4;" 
d="M84 350q0 -35 13 -66t35.5 -54.5t53 -37t65.5 -13.5t65.5 13.5t53 37t35.5 54.5t13 66t-13 66t-35.5 54.5t-53 37t-65.5 13.5t-65.5 -13.5t-53 -37t-35.5 -54.5t-13 -66zM2 350q0 45 13 82.5t37 64.5l-55 58l48 48l55 -58q30 27 69 40t82 13t82 -13t69 -40l55 58l48 -48
l-55 -58q24 -27 37 -64.5t13 -82.5q0 -91 -50 -147l55 -58l-48 -48l-55 58q-30 -27 -69 -40t-82 -13t-82 13t-69 40l-55 -58l-48 48l55 58q-50 56 -50 147z" />
    <glyph glyph-name="quotesingle" unicode="'" horiz-adv-x="222" 
d="M111 399q-12 0 -16.5 10.5t-5.5 20.5l-18 204q-1 6 -1 13v15q0 20 8.5 36.5t32.5 16.5t32.5 -16.5t8.5 -36.5v-15t-1 -13l-18 -204q-1 -10 -5.5 -20.5t-16.5 -10.5z" />
    <glyph glyph-name="quotedblleft" unicode="&#x201c;" horiz-adv-x="389" 
d="M175 697q-9 -12 -20 -26t-20.5 -30t-16 -33t-6.5 -33q25 -11 44 -31t19 -49q0 -28 -17 -44t-45 -16q-35 0 -50.5 24t-15.5 56q0 29 8.5 56.5t22.5 52.5t32.5 48t38.5 43zM342 697q-9 -12 -20 -26t-20.5 -30t-16 -33t-6.5 -33q25 -11 44 -31t19 -49q0 -28 -17 -44t-45 -16
q-35 0 -50.5 24t-15.5 56q0 29 8.5 56.5t22.5 52.5t32.5 48t38.5 43z" />
    <glyph glyph-name="guillemotleft" unicode="&#xab;" horiz-adv-x="444" 
d="M192 239q50 38 89.5 72.5t68 61t45.5 42.5t22 16t9.5 -4t4.5 -9q0 -8 -11.5 -27t-29.5 -44t-41 -53.5t-46 -55.5q27 -32 50 -62t40.5 -54t27.5 -41t10 -23q0 -5 -5.5 -8t-12.5 -3q-4 0 -24.5 18.5t-51 46.5t-68.5 61t-77 62v4zM7 239q50 38 89.5 72.5t68 61t45.5 42.5
t22 16t9.5 -4t4.5 -9q0 -8 -11.5 -27t-29.5 -44t-41 -53.5t-46 -55.5q27 -32 50 -62t40.5 -54t27.5 -41t10 -23q0 -5 -5.5 -8t-12.5 -3q-4 0 -24.5 18.5t-51 46.5t-68.5 61t-77 62v4z" />
    <glyph glyph-name="guilsinglleft" unicode="&#x2039;" horiz-adv-x="278" 
d="M16 239q50 38 89.5 72.5t68 61t45.5 42.5t22 16t9.5 -4t4.5 -9q0 -8 -11.5 -27t-29.5 -44t-41 -53.5t-46 -55.5q27 -32 50 -62t40.5 -54t27.5 -41t10 -23q0 -5 -5.5 -8t-12.5 -3q-4 0 -24.5 18.5t-51 46.5t-68.5 61t-77 62v4z" />
    <glyph glyph-name="guilsinglright" unicode="&#x203a;" horiz-adv-x="278" 
d="M262 239q-50 -38 -89.5 -72.5t-68 -61t-45.5 -42.5t-22 -16t-9.5 4t-4.5 9q0 8 11.5 27t29.5 44t41 53.5t46 55.5q-27 32 -50 62t-40.5 54t-27.5 41t-10 23q0 5 5.5 8t12.5 3q4 0 24.5 -18.5t51 -46.5t68.5 -61t77 -62v-4z" />
    <glyph glyph-name="fi" unicode="&#xfb01;" horiz-adv-x="556" 
d="M321 0v27l55 10v352q0 21 -8 33t-33 12h-148v-397l48 -10v-27h-203v27l55 10v397h-58v45h58q0 65 26 118t67 90t91.5 57t100.5 20q12 0 27 -2.5t28 -9t22 -18t9 -28.5q0 -24 -15 -38t-38 -14q-18 0 -32 8.5t-26 18.5t-23.5 18.5t-24.5 8.5q-15 0 -34 -10.5t-36.5 -36.5
t-29.5 -70t-12 -112h151q10 0 26.5 1t35.5 3.5t38.5 5.5t37.5 6v-458l55 -10v-27h-210z" />
    <glyph glyph-name="fl" unicode="&#xfb02;" horiz-adv-x="556" 
d="M321 0v27l55 10v629q-10 5 -20 12t-19 14t-17.5 11.5t-15.5 4.5q-23 0 -44.5 -15.5t-37.5 -44.5t-25.5 -72t-9.5 -97h135v-45h-135v-397l47 -10v-27h-202v27l55 10v397h-55v45h55q2 61 28.5 113t66 90t87 60t90.5 22q17 0 37 -4.5t37 -14.5l43 19v-727l55 -10v-27h-210z
" />
    <glyph glyph-name="endash" unicode="&#x2013;" 
d="M0 209v60h500v-60h-500z" />
    <glyph glyph-name="dagger" unicode="&#x2020;" 
d="M240 -110q-2 52 -4 102t-7.5 99.5t-16 99.5t-28.5 103q13 20 23 37.5t17.5 37t11.5 44t4 58.5q-27 0 -46 -7t-34.5 -15t-30 -15t-30.5 -7q-28 0 -40 15.5t-12 38.5t12 38.5t40 15.5q16 0 30.5 -7t30 -15t34.5 -15t46 -7q0 38 -7 62t-16 41t-16 31t-7 32q0 58 56 58
t56 -58q0 -18 -7 -32t-16 -31t-16 -41t-7 -62q27 0 46 7t34.5 15t29.5 15t31 7q28 0 40 -15.5t12 -38.5t-12 -38.5t-40 -15.5q-17 0 -31 7t-29.5 15t-34.5 15t-46 7q0 -34 4 -58.5t11.5 -44t17.5 -37t23 -37.5q-18 -53 -28.5 -103t-16 -99.5t-8 -99.5t-3.5 -102h-20z" />
    <glyph glyph-name="daggerdbl" unicode="&#x2021;" 
d="M47 125q0 23 12.5 36t34.5 13q16 0 34 -6t36.5 -12.5t38 -12.5t37.5 -6q-2 25 -5.5 45.5t-10 39.5t-16 38t-24.5 42q18 28 28 49.5t15.5 41t8 37.5t4.5 39q-18 0 -36.5 -6.5t-37 -14t-36.5 -13.5t-36 -6q-24 0 -35.5 15t-11.5 34q0 23 12.5 36t34.5 13q16 0 34 -6
t36.5 -12.5t38 -12.5t37.5 -6q0 37 -6.5 61.5t-15 43.5t-15 34.5t-6.5 33.5q0 23 13 37.5t40 14.5t40 -14.5t13 -37.5q0 -18 -6.5 -33.5t-14.5 -34.5t-14.5 -43.5t-6.5 -61.5q18 0 37 6t37.5 12.5t36.5 12.5t34 6q22 0 34.5 -13t12.5 -36q0 -19 -11.5 -34t-35.5 -15
q-18 0 -36 6t-36.5 13.5t-36.5 14t-36 6.5q1 -21 3.5 -39t8 -37.5t15.5 -41t28 -49.5q-15 -23 -24.5 -42t-15.5 -38t-9.5 -39.5t-5.5 -45.5q18 0 37 6t37.5 12.5t36.5 12.5t34 6q22 0 34.5 -13t12.5 -36q0 -19 -11.5 -34t-35.5 -15q-18 0 -36 6t-36.5 13.5t-36.5 14t-36 6.5
q0 -37 6.5 -61.5t14.5 -43.5t14.5 -34.5t6.5 -33.5q0 -23 -13 -37.5t-40 -14.5t-40 14.5t-13 37.5q0 18 6.5 33.5t15 34.5t15 43.5t6.5 61.5q-18 0 -36.5 -6.5t-37 -14t-36.5 -13.5t-36 -6q-24 0 -35.5 15t-11.5 34z" />
    <glyph glyph-name="periodcentered" unicode="&#xb7;" horiz-adv-x="250" 
d="M57 239q0 28 18.5 48t49.5 20t49.5 -20t18.5 -48t-18.5 -48t-49.5 -20t-49.5 20t-18.5 48z" />
    <glyph glyph-name="periodcentered" unicode="&#x2219;" horiz-adv-x="250" 
d="M57 239q0 28 18.5 48t49.5 20t49.5 -20t18.5 -48t-18.5 -48t-49.5 -20t-49.5 20t-18.5 48z" />
    <glyph glyph-name="paragraph" unicode="&#xb6;" horiz-adv-x="600" 
d="M393 -162v830h-59v-830h-82v451q-45 0 -79 15.5t-56.5 43.5t-34 67.5t-11.5 86.5q0 52 11.5 89.5t36.5 61.5t65 35.5t96 11.5h273v-24q-21 -2 -36 -4.5t-24.5 -7t-13.5 -12.5t-4 -22v-792h-82z" />
    <glyph glyph-name="bullet" unicode="&#x2022;" 
d="M75 350q0 37 13.5 69t37.5 55.5t56 37t68 13.5t68 -13.5t56 -37t37.5 -55.5t13.5 -69t-13.5 -69t-37.5 -55.5t-56 -37t-68 -13.5t-68 13.5t-56 37t-37.5 55.5t-13.5 69z" />
    <glyph glyph-name="quotesinglbase" unicode="&#x201a;" horiz-adv-x="222" 
d="M47 -113q9 12 20 26t20.5 30t16 32.5t6.5 33.5q-25 11 -44 31t-19 49q0 28 17 44t45 16q35 0 50.5 -24t15.5 -56q0 -29 -8.5 -56.5t-22.5 -52.5t-32.5 -48t-38.5 -43z" />
    <glyph glyph-name="quotedblbase" unicode="&#x201e;" horiz-adv-x="389" 
d="M214 -113q9 12 20 26t20.5 30t16 32.5t6.5 33.5q-25 11 -44 31t-19 49q0 28 17 44t45 16q35 0 50.5 -24t15.5 -56q0 -29 -8.5 -56.5t-22.5 -52.5t-32.5 -48t-38.5 -43zM47 -113q9 12 20 26t20.5 30t16 32.5t6.5 33.5q-25 11 -44 31t-19 49q0 28 17 44t45 16
q35 0 50.5 -24t15.5 -56q0 -29 -8.5 -56.5t-22.5 -52.5t-32.5 -48t-38.5 -43z" />
    <glyph glyph-name="quotedblright" unicode="&#x201d;" horiz-adv-x="389" 
d="M214 453q9 12 20 26t20.5 30t16 32.5t6.5 33.5q-25 11 -44 31t-19 49q0 28 17 44t45 16q35 0 50.5 -24t15.5 -56q0 -29 -8.5 -56.5t-22.5 -52.5t-32.5 -48t-38.5 -43zM47 453q9 12 20 26t20.5 30t16 32.5t6.5 33.5q-25 11 -44 31t-19 49q0 28 17 44t45 16q35 0 50.5 -24
t15.5 -56q0 -29 -8.5 -56.5t-22.5 -52.5t-32.5 -48t-38.5 -43z" />
    <glyph glyph-name="guillemotright" unicode="&#xbb;" horiz-adv-x="444" 
d="M252 239q-50 -38 -89.5 -72.5t-68 -61t-45.5 -42.5t-22 -16t-9.5 4t-4.5 9q0 8 11.5 27t29.5 44t41 53.5t46 55.5q-27 32 -50 62t-40.5 54t-27.5 41t-10 23q0 5 5.5 8t12.5 3q4 0 24.5 -18.5t51 -46.5t68.5 -61t77 -62v-4zM437 239q-50 -38 -89.5 -72.5t-68 -61
t-45.5 -42.5t-22 -16t-9.5 4t-4.5 9q0 8 11.5 27t29.5 44t41 53.5t46 55.5q-27 32 -50 62t-40.5 54t-27.5 41t-10 23q0 5 5.5 8t12.5 3q4 0 24.5 -18.5t51 -46.5t68.5 -61t77 -62v-4z" />
    <glyph glyph-name="ellipsis" unicode="&#x2026;" horiz-adv-x="1000" 
d="M432 58q0 28 18.5 48t49.5 20t49.5 -20t18.5 -48t-18.5 -48t-49.5 -20t-49.5 20t-18.5 48zM765 58q0 28 18.5 48t49.5 20t49.5 -20t18.5 -48t-18.5 -48t-49.5 -20t-49.5 20t-18.5 48zM99 58q0 28 18.5 48t49.5 20t49.5 -20t18.5 -48t-18.5 -48t-49.5 -20t-49.5 20
t-18.5 48z" />
    <glyph glyph-name="perthousand" unicode="&#x2030;" horiz-adv-x="1000" 
d="M481 127q0 -58 12 -86.5t32 -28.5q34 0 47 64.5t13 210.5q0 58 -12 86.5t-32 28.5q-17 0 -28.5 -15.5t-18.5 -49t-10 -85.5t-3 -125zM806 127q0 -58 12 -86.5t32 -28.5q34 0 47 64.5t13 210.5q0 58 -12 86.5t-32 28.5q-17 0 -28.5 -15.5t-18.5 -49t-10 -85.5t-3 -125z
M108 413q0 -58 12 -86.5t32 -28.5q34 0 47 64.5t13 210.5q0 58 -12 86.5t-32 28.5q-17 0 -28.5 -15.5t-18.5 -49t-10 -85.5t-3 -125zM524 715h60l-416 -730h-60zM17 493q0 40 12 79.5t32 71t45.5 51.5t53.5 20q32 0 58.5 -16.5t45 -45.5t29 -70t10.5 -90q0 -40 -12 -79.5
t-32 -71t-45.5 -51.5t-53.5 -20q-32 0 -58.5 16.5t-45 45.5t-29 70t-10.5 90zM715 207q0 40 12 79.5t32 71t45.5 51.5t53.5 20q32 0 58.5 -16.5t45 -45.5t29 -70t10.5 -90q0 -40 -12 -79.5t-32 -71t-45.5 -51.5t-53.5 -20q-32 0 -58.5 16.5t-45 45.5t-29 70t-10.5 90z
M390 207q0 40 12 79.5t32 71t45.5 51.5t53.5 20q32 0 58.5 -16.5t45 -45.5t29 -70t10.5 -90q0 -40 -12 -79.5t-32 -71t-45.5 -51.5t-53.5 -20q-32 0 -58.5 16.5t-45 45.5t-29 70t-10.5 90z" />
    <glyph glyph-name="questiondown" unicode="&#xbf;" horiz-adv-x="389" 
d="M295 479q0 -28 -19.5 -47t-46.5 -19q-28 0 -47 19t-19 47t19 47t47 19q27 0 46.5 -19t19.5 -47zM208 345h33v-215q-30 -11 -55 -23t-43 -29.5t-28 -41.5t-10 -57q0 -25 7.5 -47.5t21.5 -40t34.5 -27.5t46.5 -10q16 0 28 5t26 13q-6 15 -11.5 31t-5.5 32q0 29 16.5 42.5
t37.5 13.5t37.5 -13.5t16.5 -42.5t-13.5 -50.5t-35 -36t-48 -21.5t-52.5 -7q-41 0 -73.5 16.5t-55.5 43.5t-35.5 62.5t-12.5 73.5q0 45 10.5 79t31.5 59.5t54 44.5t78 36v110z" />
    <glyph glyph-name="grave" unicode="`" horiz-adv-x="278" 
d="M167 545l-103 64q-24 15 -40 24.5t-25.5 17t-13.5 15.5t-4 21t13 25.5t35 12.5q16 0 28 -10t27 -26l134 -144h-51z" />
    <glyph glyph-name="acute" unicode="&#xb4;" horiz-adv-x="278" 
d="M60 545l134 144q15 16 27 26t28 10q22 0 35 -12.5t13 -25.5t-4 -21t-13.5 -15.5t-25.5 -17t-40 -24.5l-103 -64h-51z" />
    <glyph glyph-name="circumflex" unicode="&#x2c6;" horiz-adv-x="278" 
d="M178 718l124 -173h-50l-113 101l-113 -101h-50l124 173h78z" />
    <glyph glyph-name="tilde" unicode="&#x2dc;" horiz-adv-x="278" 
d="M-37 567q5 24 14 45.5t23 37.5t33.5 25.5t45.5 9.5q23 0 43 -7.5t39 -17.5q18 -10 34.5 -17t30.5 -7q11 0 19.5 5t15 12t11 15.5t6.5 15.5h37q-5 -24 -14 -45.5t-23 -37.5t-33.5 -25.5t-45.5 -9.5q-23 0 -43 7.5t-39 17.5q-18 10 -34.5 17t-30.5 7q-11 0 -19.5 -5
t-15 -12t-11 -15.5t-6.5 -15.5h-37z" />
    <glyph glyph-name="macron" unicode="&#xaf;" horiz-adv-x="278" 
d="M-23 584v65h324v-65h-324z" />
    <glyph glyph-name="macron" unicode="&#x2c9;" horiz-adv-x="278" 
d="M-23 584v65h324v-65h-324z" />
    <glyph glyph-name="breve" unicode="&#x2d8;" horiz-adv-x="278" 
d="M30 706q15 -90 110 -90t110 90h38q-1 -41 -13 -71.5t-32 -50.5t-46.5 -29.5t-56.5 -9.5t-56.5 9.5t-46.5 29.5t-32 50.5t-13 71.5h38z" />
    <glyph glyph-name="dotaccent" unicode="&#x2d9;" horiz-adv-x="278" 
d="M139 675q27 0 43 -18t16 -41t-16 -41t-43 -18t-43 18t-16 41t16 41t43 18z" />
    <glyph glyph-name="dieresis" unicode="&#xa8;" horiz-adv-x="278" 
d="M-22 616q0 23 16 41t43 18t43 -18t16 -41t-16 -41t-43 -18t-43 18t-16 41zM183 616q0 23 16 41t43 18t43 -18t16 -41t-16 -41t-43 -18t-43 18t-16 41z" />
    <glyph glyph-name="ring" unicode="&#x2da;" horiz-adv-x="278" 
d="M84 649q0 -22 15 -38.5t40 -16.5q26 0 40.5 16.5t14.5 38.5t-14.5 38.5t-40.5 16.5q-25 0 -40 -16.5t-15 -38.5zM36 649q0 21 8 39.5t21.5 32.5t32.5 22.5t41 8.5t41 -8.5t33 -22.5t21.5 -32.5t7.5 -39.5t-7.5 -39.5t-21.5 -32.5t-33 -22.5t-41 -8.5t-41 8.5t-32.5 22.5
t-21.5 32.5t-8 39.5z" />
    <glyph glyph-name="cedilla" unicode="&#xb8;" horiz-adv-x="278" 
d="M88 0h42l-32 -64q8 2 16 3t14 1q36 0 63 -16t27 -55q0 -25 -11.5 -41.5t-30 -26t-41.5 -13.5t-45 -4q-23 0 -47 3t-44 13l15 35q30 -12 65 -12q18 0 35.5 8t17.5 33q0 17 -13.5 26.5t-32.5 9.5q-7 0 -15 -1t-14 -3l-12 8z" />
    <glyph glyph-name="hungarumlaut" unicode="&#x2dd;" horiz-adv-x="278" 
d="M200 545l133 145q8 9 21.5 18t31.5 9t30 -12.5t12 -26.5q0 -17 -5 -25t-16 -14l-153 -94h-54zM3 545l123 153q9 11 20 19t31 8t31.5 -13t11.5 -27q0 -16 -5 -23.5t-15 -14.5l-141 -102h-56z" />
    <glyph glyph-name="ogonek" unicode="&#x2db;" horiz-adv-x="278" 
d="M258 9q-20 -8 -46 -20t-48.5 -27.5t-38 -35t-15.5 -43.5q0 -21 14 -37t34 -16q29 0 54 14.5t48 29.5l18 -23q-35 -23 -71.5 -41.5t-80.5 -18.5q-45 0 -73.5 20.5t-28.5 62.5q0 38 26 63.5t62.5 42t76.5 25.5t69 14v-10z" />
    <glyph glyph-name="caron" unicode="&#x2c7;" horiz-adv-x="278" 
d="M100 545l-124 173h50l113 -101l113 101h50l-124 -173h-78z" />
    <glyph glyph-name="emdash" unicode="&#x2014;" horiz-adv-x="1000" 
d="M0 209v60h1000v-60h-1000z" />
    <glyph glyph-name="AE" unicode="&#xc6;" horiz-adv-x="889" 
d="M373 319v344h-17l-180 -344h197zM696 700q30 0 54.5 3.5t38.5 11.5l46 -203l-37 -8q-20 43 -40.5 74t-46.5 51t-60.5 29.5t-82.5 9.5q-29 0 -44.5 -1.5t-28.5 -6.5v-268h41q52 0 75 26t35 86h32v-256h-32q-12 60 -35 86t-75 26h-41v-320q17 -5 35 -6.5t35 -1.5
q54 0 91.5 12.5t65.5 36t49.5 57.5t42.5 78l35 -7l-51 -224q-14 8 -38.5 11.5t-54.5 3.5h-387v32l55 8v237h-218l-78 -142q-19 -35 -19 -54q0 -17 19 -32t46 -17v-32h-201v32q31 4 50.5 21.5t33.5 42.5l303 560l-22 44h409z" />
    <glyph glyph-name="ordfeminine" unicode="&#xaa;" horiz-adv-x="266" 
d="M159 587q-42 -11 -65.5 -31.5t-23.5 -54.5q0 -19 11.5 -33.5t31.5 -14.5q14 0 27 5.5t19 13.5v115zM224 471q0 -9 2.5 -15.5t13.5 -6.5q5 0 11 2.5t11 6.5l11 -13q-5 -9 -22 -21.5t-39 -12.5q-25 0 -35.5 12.5t-14.5 27.5q-19 -18 -39 -29t-48 -11q-31 0 -51.5 21
t-20.5 50t14.5 49t37.5 34t50.5 24t53.5 20v29q0 24 -15.5 40t-32.5 16q-5 0 -8.5 -6.5t-9 -14t-13 -13.5t-20.5 -6q-37 0 -37 28q0 19 18 26t37 7q20 0 45.5 -5t48 -16.5t37.5 -29.5t15 -44v-149z" />
    <glyph glyph-name="Oslash" unicode="&#xd8;" horiz-adv-x="667" 
d="M451 605q-20 38 -50 54t-68 16q-32 0 -61.5 -18.5t-52 -58t-36 -101t-13.5 -147.5q0 -60 5 -106t14 -81zM209 106q22 -45 53 -63t71 -18q32 0 61.5 18.5t52 58t36 101t13.5 147.5q0 66 -6 115.5t-17 85.5zM135 71q-48 51 -72.5 123.5t-24.5 155.5q0 63 22 127.5
t61.5 117.5t93.5 86.5t118 33.5q45 0 84 -12.5t71 -35.5l47 78h53l-64 -109q51 -52 77.5 -126.5t26.5 -159.5q0 -63 -22 -127.5t-61.5 -117.5t-93.5 -86.5t-118 -33.5q-48 0 -88.5 14.5t-74.5 40.5l-57 -95h-53z" />
    <glyph glyph-name="OE" unicode="&#x152;" horiz-adv-x="1000" 
d="M487 557q0 33 -10 55.5t-28 36.5t-42.5 20t-54.5 6q-47 0 -81.5 -23.5t-57 -66.5t-33.5 -104.5t-11 -137.5q0 -74 8.5 -133t28.5 -100t54.5 -63t85.5 -22q31 0 57 8t44.5 25.5t29 45.5t10.5 69v384zM522 0q-46 0 -90 -7.5t-85 -7.5q-74 0 -131.5 29.5t-97.5 80
t-60.5 116.5t-20.5 139t20.5 139t60.5 116.5t97.5 80t131.5 29.5q20 0 46 -2.5t55 -5t59 -5t59 -2.5h240q30 0 54.5 3.5t38.5 11.5l45 -203l-34 -6q-19 42 -40.5 73t-49.5 50.5t-63 29t-81 9.5q-23 0 -39 -2.5t-28 -5.5v-268h38q52 0 75 26t35 86h32v-256h-32q-12 60 -35 86
t-75 26h-38v-320q17 -5 33.5 -6.5t33.5 -1.5q49 0 86.5 12t67 36t52 59.5t40.5 81.5l35 -10l-50 -226q-14 8 -38.5 11.5t-54.5 3.5h-292z" />
    <glyph glyph-name="ordmasculine" unicode="&#xba;" horiz-adv-x="300" 
d="M150 432q39 0 52.5 35t13.5 96q0 72 -15.5 101.5t-50.5 29.5t-50.5 -29.5t-15.5 -101.5q0 -61 13.5 -96t52.5 -35zM150 411q-32 0 -58 12.5t-44 33.5t-28 48.5t-10 57.5t10 57.5t28.5 48.5t44 33.5t57.5 12.5q31 0 57 -12.5t44.5 -33.5t28.5 -48.5t10 -57.5t-10 -57.5
t-28 -48.5t-44 -33.5t-58 -12.5z" />
    <glyph glyph-name="ae" unicode="&#xe6;" horiz-adv-x="722" 
d="M515 306q28 8 40.5 21.5t12.5 41.5q0 37 -20 63t-58 26q-25 0 -44.5 -12.5t-32.5 -33t-19.5 -45.5t-6.5 -50v-23q0 -11 2 -22zM287 281q-28 -10 -55.5 -21.5t-49 -28t-34.5 -39.5t-13 -57q0 -32 21 -53t57 -21q13 0 26.5 3.5t24 9.5t17 12.5t6.5 12.5v182zM397 230
q4 -33 13.5 -63.5t26.5 -54t43.5 -37.5t63.5 -14q42 0 68 20t49 47l29 -23q-37 -56 -84.5 -87.5t-119.5 -31.5q-26 0 -48.5 5.5t-42.5 16.5t-39.5 28.5t-40.5 40.5q-35 -39 -74.5 -65t-87.5 -26q-53 0 -87.5 30.5t-34.5 79.5q0 54 25 90t63 60.5t83 40.5t85 30v65
q0 14 -9 28t-22.5 24.5t-29 17t-29.5 6.5q-8 -32 -27.5 -54t-54.5 -22q-21 0 -38.5 13t-17.5 36q0 17 7.5 28.5t19.5 19t28 11t33 3.5q68 0 116 -19.5t89 -47.5q29 29 63.5 48t76.5 19q38 0 71.5 -15t59 -41t41.5 -60.5t18 -73.5z" />
    <glyph glyph-name="dotlessi" unicode="&#x131;" horiz-adv-x="278" 
d="M40 0v27l55 10v339q0 25 -14 34t-41 9v27l155 47v-456l55 -10v-27h-210z" />
    <glyph glyph-name="oslash" unicode="&#xf8;" 
d="M325 413q-12 24 -30.5 34.5t-44.5 10.5q-27 0 -46.5 -11.5t-31.5 -38t-17.5 -68t-5.5 -101.5q0 -29 1.5 -54.5t3.5 -46.5h2zM168 84q23 -63 82 -63q30 0 49.5 15t31 43.5t16 68.5t4.5 91q0 77 -10 123zM102 52q-32 35 -49.5 84t-17.5 103q0 51 15.5 97t43.5 81t68 55.5
t88 20.5q59 0 106 -31l42 68h48l-58 -93q36 -35 56.5 -87t20.5 -111q0 -50 -15 -95.5t-43 -80.5t-68 -56t-89 -21q-35 0 -65 10.5t-54 28.5l-48 -77h-45z" />
    <glyph glyph-name="oe" unicode="&#x153;" horiz-adv-x="778" 
d="M589 308q15 4 27 20t12 43q0 36 -18.5 61.5t-60.5 25.5q-23 0 -42.5 -11.5t-33.5 -31.5t-21.5 -47t-7.5 -57v-22t1 -18zM248 21q28 0 46.5 15t29.5 43.5t15.5 68.5t4.5 91q0 120 -22.5 169.5t-73.5 49.5q-27 0 -46.5 -11.5t-31.5 -38t-17.5 -68t-5.5 -101.5
q0 -51 4.5 -91t16 -68.5t31 -43.5t49.5 -15zM454 229q2 -29 12 -59t28.5 -54t44.5 -39.5t60 -15.5q17 0 33.5 6t31.5 15.5t27.5 21t21.5 23.5l29 -20q-31 -57 -81 -89t-115 -32q-45 0 -79.5 16t-64.5 49q-15 -13 -29.5 -24.5t-32 -20.5t-40 -14.5t-52.5 -5.5q-50 0 -89.5 21
t-67.5 56t-43 80.5t-15 95.5q0 51 15.5 97t43.5 81t68 55.5t88 20.5q51 0 90.5 -21.5t70.5 -54.5q29 32 62.5 54t81.5 22q39 0 72.5 -15t59 -40.5t40.5 -60t17 -72.5z" />
    <glyph glyph-name="germandbls" unicode="&#xdf;" horiz-adv-x="611" 
d="M37 0v27l55 10v397h-57v45h57v50q0 110 59 172.5t171 62.5q38 0 73.5 -12.5t63 -34.5t44 -53.5t16.5 -68.5t-14.5 -62t-35.5 -41t-46.5 -25.5t-46.5 -16t-35.5 -12.5t-14.5 -15q0 -15 18.5 -25.5t46 -21.5t59.5 -26t59.5 -38t46 -57.5t18.5 -85.5q0 -35 -16.5 -68
t-44 -58.5t-62.5 -41t-72 -15.5q-33 0 -60 7.5t-46.5 20t-30.5 29t-11 33.5q0 21 15 37.5t39 16.5q26 0 44 -16t20 -42q3 -29 12.5 -36.5t32.5 -7.5q19 0 36.5 9t30 22.5t20 30t7.5 31.5q0 41 -18.5 67.5t-46.5 44.5t-61 31.5t-61 29t-46.5 36t-18.5 54.5q0 29 13.5 45.5
t34 28t44 20.5t44 22t34 33t13.5 54q0 68 -27 105t-78 37q-27 0 -49.5 -12.5t-38.5 -34t-25 -51.5t-9 -66v-565h-155z" />
    <glyph glyph-name="divide" unicode="&#xf7;" horiz-adv-x="600" 
d="M233 435q0 28 18.5 48t49.5 20t49.5 -20t18.5 -48t-18.5 -48t-49.5 -20t-49.5 20t-18.5 48zM233 44q0 28 18.5 48t49.5 20t49.5 -20t18.5 -48t-18.5 -48t-49.5 -20t-49.5 20t-18.5 48zM61 201v77h479v-77h-479z" />
    <glyph glyph-name="registered" unicode="&#xae;" horiz-adv-x="800" 
d="M356 356h39q36 0 51 27.5t15 66.5q0 45 -18.5 63t-47.5 18h-39v-175zM231 162v22q17 2 27 4t14.5 6.5t5.5 13t1 23.5v253q0 15 -1 23.5t-5.5 13t-14.5 6.5t-27 4v22h193q24 0 45 -6t37.5 -18.5t26 -31t9.5 -43.5q0 -38 -22.5 -67.5t-59.5 -40.5l60 -86q18 -26 38 -49
t35 -37v-12h-76q-17 0 -29 18t-28 45l-63 109h-41v-103q0 -15 1 -23.5t5.5 -13t14.5 -6.5t27 -4v-22h-173zM114 350q0 -62 22 -119t60.5 -100.5t90.5 -69.5t113 -26t113 26t90.5 69.5t60.5 100.5t22 119t-22 119t-60.5 100.5t-90.5 69.5t-113 26t-113 -26t-90.5 -69.5
t-60.5 -100.5t-22 -119zM46 350q0 73 26 139t73 116t112 80t143 30t143 -30t112 -80t73 -116t26 -139t-26 -139t-73 -116.5t-112 -80t-143 -29.5t-143 29.5t-112 80t-73 116.5t-26 139z" />
    <glyph glyph-name="ccedilla" unicode="&#xe7;" horiz-adv-x="444" 
d="M416 78q-41 -47 -81.5 -69.5t-91.5 -22.5l-25 -50q8 2 16 3t14 1q36 0 63 -16t27 -55q0 -25 -11.5 -41.5t-30 -26t-41.5 -13.5t-45 -4q-23 0 -47 3t-44 13l15 35q30 -12 65 -12q18 0 35.5 8t17.5 33q0 17 -13.5 26.5t-32.5 9.5q-7 0 -15 -1t-14 -3l-12 8l39 87
q-38 8 -68 28t-51 49.5t-32 67.5t-11 81q0 59 17 109.5t48 87.5t74 58t95 21q17 0 36.5 -4t36.5 -13t28.5 -25t11.5 -40q0 -22 -17 -35.5t-38 -13.5q-28 0 -40 15t-18 33t-10 33t-16 15q-21 0 -40.5 -11t-34.5 -34.5t-24 -59.5t-9 -85q0 -34 10 -70.5t29.5 -67t49 -50
t67.5 -19.5q28 0 49 10t41 29z" />
    <glyph glyph-name="plusminus" unicode="&#xb1;" horiz-adv-x="600" 
d="M61 77h479v-77h-479v77zM262 479h77v-145h201v-77h-201v-146h-77v146h-201v77h201v145z" />
    <glyph glyph-name="Ccedilla" unicode="&#xc7;" horiz-adv-x="611" 
d="M577 191q-15 -44 -39.5 -81.5t-56.5 -65t-72 -43t-85 -16.5l-25 -49q8 2 16 3t14 1q36 0 63 -16t27 -55q0 -25 -11.5 -41.5t-30 -26t-41.5 -13.5t-45 -4q-23 0 -47 3t-44 13l15 35q30 -12 65 -12q18 0 35.5 8t17.5 33q0 17 -13.5 26.5t-32.5 9.5q-7 0 -15 -1t-14 -3
l-12 8l38 84q-59 7 -104.5 37t-77 76t-48 105.5t-16.5 125.5q0 65 18 133t54 123.5t89 91t124 35.5q20 0 38 -2.5t35 -7.5t31.5 -8t25.5 -3q12 0 32.5 6t40.5 15l49 -217l-38 -9q-17 32 -37.5 65t-45.5 60t-55 44t-66 17q-46 0 -78.5 -24t-53.5 -62t-31 -84t-10 -91
q0 -59 11.5 -120.5t37 -111.5t65.5 -82.5t98 -32.5q30 0 57 11t49 29.5t39 43.5t27 52z" />
    <glyph glyph-name="copyright" unicode="&#xa9;" horiz-adv-x="800" 
d="M557 449h-19q-3 16 -10 33t-20 30t-32 21.5t-46 8.5q-38 0 -64 -15.5t-41.5 -41.5t-22.5 -59t-7 -69q0 -35 7 -68.5t22.5 -59.5t41.5 -41.5t64 -15.5q52 0 80 27t45 66h19l-16 -76q-2 -10 -8.5 -13.5t-19.5 -7.5q-14 -5 -43 -11.5t-63 -6.5q-48 0 -89 12.5t-71 38
t-47.5 64.5t-17.5 92q0 49 18.5 87.5t49.5 65t71.5 40.5t85.5 14q43 0 66.5 -5.5t44.5 -13.5q22 -8 22 -23v-73zM114 350q0 -62 22 -119t60.5 -100.5t90.5 -69.5t113 -26t113 26t90.5 69.5t60.5 100.5t22 119t-22 119t-60.5 100.5t-90.5 69.5t-113 26t-113 -26t-90.5 -69.5
t-60.5 -100.5t-22 -119zM46 350q0 73 26 139t73 116t112 80t143 30t143 -30t112 -80t73 -116t26 -139t-26 -139t-73 -116.5t-112 -80t-143 -29.5t-143 29.5t-112 80t-73 116.5t-26 139z" />
    <glyph glyph-name="logicalnot" unicode="&#xac;" horiz-adv-x="600" 
d="M463 278h-402v77h479v-231h-77v154z" />
    <glyph glyph-name="trademark" unicode="&#x2122;" horiz-adv-x="990" 
d="M378 700v-88h-22q-6 26 -19.5 46t-45.5 20h-48v-310q0 -16 1 -25t5.5 -14t15 -7t28.5 -4v-22h-185v22q18 2 28.5 4t15 7t5.5 14t1 25v310h-48q-32 0 -45.5 -20t-19.5 -46h-22v88h355zM521 592h-2v-206q0 -33 7.5 -49t43.5 -19v-22h-131v22q18 1 28.5 6t15.5 13t6 20t1 29
v241q-10 23 -28.5 37t-41.5 14v22h133l146 -296l154 296h114v-22q-35 -2 -45 -14t-10 -37v-259q0 -17 1 -26t6 -13.5t15 -6.5t28 -4v-22h-185v22q18 2 28 4t15 6.5t6 13.5t1 26v225h-2l-149 -298h-12z" />
    <glyph glyph-name="degree" unicode="&#xb0;" horiz-adv-x="400" 
d="M297 572q0 21 -6.5 40t-19 33.5t-30.5 23t-41 8.5t-41 -8.5t-30.5 -23t-19 -33.5t-6.5 -40q0 -42 25.5 -73.5t71.5 -31.5t71.5 31.5t25.5 73.5zM345 572q0 -30 -11.5 -56t-31 -45.5t-46 -30.5t-56.5 -11t-56.5 11t-46 30.5t-31 45.5t-11.5 56t11.5 56t31 45.5t46 30.5
t56.5 11t56.5 -11t46 -30.5t31 -45.5t11.5 -56z" />
    <glyph glyph-name="mu" unicode="&#xb5;" horiz-adv-x="556" 
d="M472 105q0 -17 2 -27.5t7 -16.5t14.5 -9t24.5 -4v-27l-108 -35q-15 16 -22.5 36.5t-12.5 40.5q-29 -37 -68 -57t-96 -20q-15 0 -31 4v-157h-148v27l48 10v492q0 17 -2 27.5t-7 16.5t-14.5 8.5t-24.5 4.5v27l148 47v-363q0 -26 8.5 -41.5t22 -24t29.5 -11t31 -2.5
q19 0 37 7t32 17t22 21t8 19v247q0 17 -2 27.5t-7 16.5t-14.5 8.5t-24.5 4.5v27l148 47v-388z" />
    <glyph glyph-name="mu" unicode="&#x3bc;" horiz-adv-x="556" 
d="M472 105q0 -17 2 -27.5t7 -16.5t14.5 -9t24.5 -4v-27l-108 -35q-15 16 -22.5 36.5t-12.5 40.5q-29 -37 -68 -57t-96 -20q-15 0 -31 4v-157h-148v27l48 10v492q0 17 -2 27.5t-7 16.5t-14.5 8.5t-24.5 4.5v27l148 47v-363q0 -26 8.5 -41.5t22 -24t29.5 -11t31 -2.5
q19 0 37 7t32 17t22 21t8 19v247q0 17 -2 27.5t-7 16.5t-14.5 8.5t-24.5 4.5v27l148 47v-388z" />
    <glyph glyph-name="numbersign" unicode="#" 
d="M205 419l-20 -138h119l20 138h-119zM463 214h-96l-30 -214h-72l30 214h-119l-30 -214h-72l30 214h-100l3 67h106l20 138h-99l3 67h105l29 214h73l-30 -214h119l29 214h73l-30 -214h91l-3 -67h-97l-20 -138h90z" />
    <glyph glyph-name="Aacute" unicode="&#xc1;" horiz-adv-x="611" 
d="M212 743l134 144q15 16 27 26t28 10q22 0 35 -12.5t13 -25.5t-4 -21t-13.5 -15.5t-25.5 -17t-40 -24.5l-103 -64h-51zM368 264l-105 326h-2l-104 -326h211zM-24 0v32q21 6 36 14t26 19t18.5 25.5t14.5 35.5l167 516l-25 59l135 7l219 -664l55 -12v-32h-239v32l55 12
l-58 178h-238l-30 -95q-4 -13 -5.5 -22.5t-1.5 -21.5q0 -13 6 -21.5t16 -13.5t22.5 -8.5t24.5 -7.5v-32h-198z" />
    <glyph glyph-name="Acircumflex" unicode="&#xc2;" horiz-adv-x="611" 
d="M330 916l124 -173h-50l-113 101l-113 -101h-50l124 173h78zM368 264l-105 326h-2l-104 -326h211zM-24 0v32q21 6 36 14t26 19t18.5 25.5t14.5 35.5l167 516l-25 59l135 7l219 -664l55 -12v-32h-239v32l55 12l-58 178h-238l-30 -95q-4 -13 -5.5 -22.5t-1.5 -21.5
q0 -13 6 -21.5t16 -13.5t22.5 -8.5t24.5 -7.5v-32h-198z" />
    <glyph glyph-name="Adieresis" unicode="&#xc4;" horiz-adv-x="611" 
d="M130 814q0 23 16 41t43 18t43 -18t16 -41t-16 -41t-43 -18t-43 18t-16 41zM335 814q0 23 16 41t43 18t43 -18t16 -41t-16 -41t-43 -18t-43 18t-16 41zM368 264l-105 326h-2l-104 -326h211zM-24 0v32q21 6 36 14t26 19t18.5 25.5t14.5 35.5l167 516l-25 59l135 7l219 -664
l55 -12v-32h-239v32l55 12l-58 178h-238l-30 -95q-4 -13 -5.5 -22.5t-1.5 -21.5q0 -13 6 -21.5t16 -13.5t22.5 -8.5t24.5 -7.5v-32h-198z" />
    <glyph glyph-name="Agrave" unicode="&#xc0;" horiz-adv-x="611" 
d="M319 743l-103 64q-24 15 -40 24.5t-25.5 17t-13.5 15.5t-4 21t13 25.5t35 12.5q16 0 28 -10t27 -26l134 -144h-51zM368 264l-105 326h-2l-104 -326h211zM-24 0v32q21 6 36 14t26 19t18.5 25.5t14.5 35.5l167 516l-25 59l135 7l219 -664l55 -12v-32h-239v32l55 12l-58 178
h-238l-30 -95q-4 -13 -5.5 -22.5t-1.5 -21.5q0 -13 6 -21.5t16 -13.5t22.5 -8.5t24.5 -7.5v-32h-198z" />
    <glyph glyph-name="Aring" unicode="&#xc5;" horiz-adv-x="611" 
d="M236 847q0 -22 15 -38.5t40 -16.5q26 0 40.5 16.5t14.5 38.5t-14.5 38.5t-40.5 16.5q-25 0 -40 -16.5t-15 -38.5zM188 847q0 21 8 39.5t21.5 32.5t32.5 22.5t41 8.5t41 -8.5t33 -22.5t21.5 -32.5t7.5 -39.5t-7.5 -39.5t-21.5 -32.5t-33 -22.5t-41 -8.5t-41 8.5
t-32.5 22.5t-21.5 32.5t-8 39.5zM368 264l-105 326h-2l-104 -326h211zM-24 0v32q21 6 36 14t26 19t18.5 25.5t14.5 35.5l167 516l-25 59l135 7l219 -664l55 -12v-32h-239v32l55 12l-58 178h-238l-30 -95q-4 -13 -5.5 -22.5t-1.5 -21.5q0 -13 6 -21.5t16 -13.5t22.5 -8.5
t24.5 -7.5v-32h-198z" />
    <glyph glyph-name="Atilde" unicode="&#xc3;" horiz-adv-x="611" 
d="M115 765q5 24 14 45.5t23 37.5t33.5 25.5t45.5 9.5q23 0 43 -7.5t39 -17.5q18 -10 34.5 -17t30.5 -7q11 0 19.5 5t15 12t11 15.5t6.5 15.5h37q-5 -24 -14 -45.5t-23 -37.5t-33.5 -25.5t-45.5 -9.5q-23 0 -43 7.5t-39 17.5q-18 10 -34.5 17t-30.5 7q-11 0 -19.5 -5
t-15 -12t-11 -15.5t-6.5 -15.5h-37zM368 264l-105 326h-2l-104 -326h211zM-24 0v32q21 6 36 14t26 19t18.5 25.5t14.5 35.5l167 516l-25 59l135 7l219 -664l55 -12v-32h-239v32l55 12l-58 178h-238l-30 -95q-4 -13 -5.5 -22.5t-1.5 -21.5q0 -13 6 -21.5t16 -13.5t22.5 -8.5
t24.5 -7.5v-32h-198z" />
    <glyph glyph-name="Eacute" unicode="&#xc9;" horiz-adv-x="611" 
d="M212 743l134 144q15 16 27 26t28 10q22 0 35 -12.5t13 -25.5t-4 -21t-13.5 -15.5t-25.5 -17t-40 -24.5l-103 -64h-51zM519 -15q-14 8 -38.5 11.5t-54.5 3.5h-385v32l55 8v620l-55 8v32h378q30 0 54.5 3.5t38.5 11.5l46 -203l-37 -8q-20 43 -41 74t-49.5 51t-67.5 29.5
t-94 9.5q-28 0 -51 -8v-268h40q52 0 75 26t35 86h32v-256h-32q-12 60 -35 86t-75 26h-40v-320q23 -8 51 -8q54 0 94.5 12t71 35.5t53.5 58.5t44 81l37 -8z" />
    <glyph glyph-name="Ecircumflex" unicode="&#xca;" horiz-adv-x="611" 
d="M330 916l124 -173h-50l-113 101l-113 -101h-50l124 173h78zM519 -15q-14 8 -38.5 11.5t-54.5 3.5h-385v32l55 8v620l-55 8v32h378q30 0 54.5 3.5t38.5 11.5l46 -203l-37 -8q-20 43 -41 74t-49.5 51t-67.5 29.5t-94 9.5q-28 0 -51 -8v-268h40q52 0 75 26t35 86h32v-256
h-32q-12 60 -35 86t-75 26h-40v-320q23 -8 51 -8q54 0 94.5 12t71 35.5t53.5 58.5t44 81l37 -8z" />
    <glyph glyph-name="Edieresis" unicode="&#xcb;" horiz-adv-x="611" 
d="M335 814q0 23 16 41t43 18t43 -18t16 -41t-16 -41t-43 -18t-43 18t-16 41zM130 814q0 23 16 41t43 18t43 -18t16 -41t-16 -41t-43 -18t-43 18t-16 41zM519 -15q-14 8 -38.5 11.5t-54.5 3.5h-385v32l55 8v620l-55 8v32h378q30 0 54.5 3.5t38.5 11.5l46 -203l-37 -8
q-20 43 -41 74t-49.5 51t-67.5 29.5t-94 9.5q-28 0 -51 -8v-268h40q52 0 75 26t35 86h32v-256h-32q-12 60 -35 86t-75 26h-40v-320q23 -8 51 -8q54 0 94.5 12t71 35.5t53.5 58.5t44 81l37 -8z" />
    <glyph glyph-name="Egrave" unicode="&#xc8;" horiz-adv-x="611" 
d="M319 743l-103 64q-24 15 -40 24.5t-25.5 17t-13.5 15.5t-4 21t13 25.5t35 12.5q16 0 28 -10t27 -26l134 -144h-51zM519 -15q-14 8 -38.5 11.5t-54.5 3.5h-385v32l55 8v620l-55 8v32h378q30 0 54.5 3.5t38.5 11.5l46 -203l-37 -8q-20 43 -41 74t-49.5 51t-67.5 29.5
t-94 9.5q-28 0 -51 -8v-268h40q52 0 75 26t35 86h32v-256h-32q-12 60 -35 86t-75 26h-40v-320q23 -8 51 -8q54 0 94.5 12t71 35.5t53.5 58.5t44 81l37 -8z" />
    <glyph glyph-name="Iacute" unicode="&#xcd;" horiz-adv-x="333" 
d="M88 743l134 144q15 16 27 26t28 10q22 0 35 -12.5t13 -25.5t-4 -21t-13.5 -15.5t-25.5 -17t-40 -24.5l-103 -64h-51zM50 0v32l55 8v620l-55 8v32h232v-32l-55 -8v-620l55 -8v-32h-232z" />
    <glyph glyph-name="Icircumflex" unicode="&#xce;" horiz-adv-x="333" 
d="M206 916l124 -173h-50l-113 101l-113 -101h-50l124 173h78zM50 0v32l55 8v620l-55 8v32h232v-32l-55 -8v-620l55 -8v-32h-232z" />
    <glyph glyph-name="Idieresis" unicode="&#xcf;" horiz-adv-x="333" 
d="M211 814q0 23 16 41t43 18t43 -18t16 -41t-16 -41t-43 -18t-43 18t-16 41zM6 814q0 23 16 41t43 18t43 -18t16 -41t-16 -41t-43 -18t-43 18t-16 41zM50 0v32l55 8v620l-55 8v32h232v-32l-55 -8v-620l55 -8v-32h-232z" />
    <glyph glyph-name="Igrave" unicode="&#xcc;" horiz-adv-x="333" 
d="M195 743l-103 64q-24 15 -40 24.5t-25.5 17t-13.5 15.5t-4 21t13 25.5t35 12.5q16 0 28 -10t27 -26l134 -144h-51zM50 0v32l55 8v620l-55 8v32h232v-32l-55 -8v-620l55 -8v-32h-232z" />
    <glyph glyph-name="Ntilde" unicode="&#xd1;" horiz-adv-x="667" 
d="M158 765q5 24 14 45.5t23 37.5t33.5 25.5t45.5 9.5q23 0 43 -7.5t39 -17.5q18 -10 34.5 -17t30.5 -7q11 0 19.5 5t15 12t11 15.5t6.5 15.5h37q-5 -24 -14 -45.5t-23 -37.5t-33.5 -25.5t-45.5 -9.5q-23 0 -43 7.5t-39 17.5q-18 10 -34.5 17t-30.5 7q-11 0 -19.5 -5
t-15 -12t-11 -15.5t-6.5 -15.5h-37zM526 201h2v393q0 42 -19.5 55.5t-57.5 18.5v32h198v-32q-38 -5 -57.5 -27.5t-19.5 -58.5v-597h-47l-377 572h-2v-440q0 -41 25 -61t60 -24v-32h-214v32q35 4 60 28t25 68v442q0 45 -25 69.5t-60 28.5v32h184z" />
    <glyph glyph-name="Oacute" unicode="&#xd3;" horiz-adv-x="667" 
d="M255 743l134 144q15 16 27 26t28 10q22 0 35 -12.5t13 -25.5t-4 -21t-13.5 -15.5t-25.5 -17t-40 -24.5l-103 -64h-51zM333 25q32 0 61.5 18.5t52 58t36 101t13.5 147.5q0 92 -11.5 154.5t-32.5 100.5t-51.5 54t-67.5 16q-32 0 -61.5 -18.5t-52 -58t-36 -101t-13.5 -147.5
q0 -92 11.5 -154.5t32.5 -100.5t51 -54t68 -16zM333 -15q-70 0 -125 29.5t-92.5 80t-57.5 116.5t-20 139q0 63 22 127.5t61.5 117.5t93.5 86.5t118 33.5q70 0 125 -29.5t92.5 -80t57.5 -116.5t20 -139q0 -63 -22 -127.5t-61.5 -117.5t-93.5 -86.5t-118 -33.5z" />
    <glyph glyph-name="Ocircumflex" unicode="&#xd4;" horiz-adv-x="667" 
d="M373 916l124 -173h-50l-113 101l-113 -101h-50l124 173h78zM333 25q32 0 61.5 18.5t52 58t36 101t13.5 147.5q0 92 -11.5 154.5t-32.5 100.5t-51.5 54t-67.5 16q-32 0 -61.5 -18.5t-52 -58t-36 -101t-13.5 -147.5q0 -92 11.5 -154.5t32.5 -100.5t51 -54t68 -16zM333 -15
q-70 0 -125 29.5t-92.5 80t-57.5 116.5t-20 139q0 63 22 127.5t61.5 117.5t93.5 86.5t118 33.5q70 0 125 -29.5t92.5 -80t57.5 -116.5t20 -139q0 -63 -22 -127.5t-61.5 -117.5t-93.5 -86.5t-118 -33.5z" />
    <glyph glyph-name="Odieresis" unicode="&#xd6;" horiz-adv-x="667" 
d="M173 814q0 23 16 41t43 18t43 -18t16 -41t-16 -41t-43 -18t-43 18t-16 41zM378 814q0 23 16 41t43 18t43 -18t16 -41t-16 -41t-43 -18t-43 18t-16 41zM333 25q32 0 61.5 18.5t52 58t36 101t13.5 147.5q0 92 -11.5 154.5t-32.5 100.5t-51.5 54t-67.5 16q-32 0 -61.5 -18.5
t-52 -58t-36 -101t-13.5 -147.5q0 -92 11.5 -154.5t32.5 -100.5t51 -54t68 -16zM333 -15q-70 0 -125 29.5t-92.5 80t-57.5 116.5t-20 139q0 63 22 127.5t61.5 117.5t93.5 86.5t118 33.5q70 0 125 -29.5t92.5 -80t57.5 -116.5t20 -139q0 -63 -22 -127.5t-61.5 -117.5
t-93.5 -86.5t-118 -33.5z" />
    <glyph glyph-name="Ograve" unicode="&#xd2;" horiz-adv-x="667" 
d="M362 743l-103 64q-24 15 -40 24.5t-25.5 17t-13.5 15.5t-4 21t13 25.5t35 12.5q16 0 28 -10t27 -26l134 -144h-51zM333 25q32 0 61.5 18.5t52 58t36 101t13.5 147.5q0 92 -11.5 154.5t-32.5 100.5t-51.5 54t-67.5 16q-32 0 -61.5 -18.5t-52 -58t-36 -101t-13.5 -147.5
q0 -92 11.5 -154.5t32.5 -100.5t51 -54t68 -16zM333 -15q-70 0 -125 29.5t-92.5 80t-57.5 116.5t-20 139q0 63 22 127.5t61.5 117.5t93.5 86.5t118 33.5q70 0 125 -29.5t92.5 -80t57.5 -116.5t20 -139q0 -63 -22 -127.5t-61.5 -117.5t-93.5 -86.5t-118 -33.5z" />
    <glyph glyph-name="Otilde" unicode="&#xd5;" horiz-adv-x="667" 
d="M158 765q5 24 14 45.5t23 37.5t33.5 25.5t45.5 9.5q23 0 43 -7.5t39 -17.5q18 -10 34.5 -17t30.5 -7q11 0 19.5 5t15 12t11 15.5t6.5 15.5h37q-5 -24 -14 -45.5t-23 -37.5t-33.5 -25.5t-45.5 -9.5q-23 0 -43 7.5t-39 17.5q-18 10 -34.5 17t-30.5 7q-11 0 -19.5 -5
t-15 -12t-11 -15.5t-6.5 -15.5h-37zM333 25q32 0 61.5 18.5t52 58t36 101t13.5 147.5q0 92 -11.5 154.5t-32.5 100.5t-51.5 54t-67.5 16q-32 0 -61.5 -18.5t-52 -58t-36 -101t-13.5 -147.5q0 -92 11.5 -154.5t32.5 -100.5t51 -54t68 -16zM333 -15q-70 0 -125 29.5t-92.5 80
t-57.5 116.5t-20 139q0 63 22 127.5t61.5 117.5t93.5 86.5t118 33.5q70 0 125 -29.5t92.5 -80t57.5 -116.5t20 -139q0 -63 -22 -127.5t-61.5 -117.5t-93.5 -86.5t-118 -33.5z" />
    <glyph glyph-name="Uacute" unicode="&#xda;" horiz-adv-x="667" 
d="M269 743l134 144q15 16 27 26t28 10q22 0 35 -12.5t13 -25.5t-4 -21t-13.5 -15.5t-25.5 -17t-40 -24.5l-103 -64h-51zM265 700v-32l-55 -8v-470q0 -35 13.5 -64.5t36 -51t51 -33.5t57.5 -12q35 0 66 11t53.5 32t35.5 51.5t13 70.5v389q0 41 -25 61t-60 24v32h214v-32
q-35 -4 -60 -24t-25 -61v-363q0 -46 -11 -88.5t-38 -75t-73 -52t-116 -19.5q-56 0 -103 10.5t-80.5 34.5t-52 63t-18.5 97v470l-55 8v32h232z" />
    <glyph glyph-name="Ucircumflex" unicode="&#xdb;" horiz-adv-x="667" 
d="M387 916l124 -173h-50l-113 101l-113 -101h-50l124 173h78zM265 700v-32l-55 -8v-470q0 -35 13.5 -64.5t36 -51t51 -33.5t57.5 -12q35 0 66 11t53.5 32t35.5 51.5t13 70.5v389q0 41 -25 61t-60 24v32h214v-32q-35 -4 -60 -24t-25 -61v-363q0 -46 -11 -88.5t-38 -75
t-73 -52t-116 -19.5q-56 0 -103 10.5t-80.5 34.5t-52 63t-18.5 97v470l-55 8v32h232z" />
    <glyph glyph-name="Udieresis" unicode="&#xdc;" horiz-adv-x="667" 
d="M392 814q0 23 16 41t43 18t43 -18t16 -41t-16 -41t-43 -18t-43 18t-16 41zM187 814q0 23 16 41t43 18t43 -18t16 -41t-16 -41t-43 -18t-43 18t-16 41zM265 700v-32l-55 -8v-470q0 -35 13.5 -64.5t36 -51t51 -33.5t57.5 -12q35 0 66 11t53.5 32t35.5 51.5t13 70.5v389
q0 41 -25 61t-60 24v32h214v-32q-35 -4 -60 -24t-25 -61v-363q0 -46 -11 -88.5t-38 -75t-73 -52t-116 -19.5q-56 0 -103 10.5t-80.5 34.5t-52 63t-18.5 97v470l-55 8v32h232z" />
    <glyph glyph-name="Ugrave" unicode="&#xd9;" horiz-adv-x="667" 
d="M376 743l-103 64q-24 15 -40 24.5t-25.5 17t-13.5 15.5t-4 21t13 25.5t35 12.5q16 0 28 -10t27 -26l134 -144h-51zM265 700v-32l-55 -8v-470q0 -35 13.5 -64.5t36 -51t51 -33.5t57.5 -12q35 0 66 11t53.5 32t35.5 51.5t13 70.5v389q0 41 -25 61t-60 24v32h214v-32
q-35 -4 -60 -24t-25 -61v-363q0 -46 -11 -88.5t-38 -75t-73 -52t-116 -19.5q-56 0 -103 10.5t-80.5 34.5t-52 63t-18.5 97v470l-55 8v32h232z" />
    <glyph glyph-name="Ydieresis" unicode="&#x178;" horiz-adv-x="556" 
d="M322 814q0 23 16 41t43 18t43 -18t16 -41t-16 -41t-43 -18t-43 18t-16 41zM117 814q0 23 16 41t43 18t43 -18t16 -41t-16 -41t-43 -18t-43 18t-16 41zM226 700v-32l-55 -8l152 -308l95 184q14 26 21.5 46t7.5 36q0 13 -6 22t-15.5 14t-21.5 8l-24 6v32h201v-32
q-30 -3 -53.5 -25.5t-40.5 -55.5l-147 -292v-255l55 -8v-32h-232v32l55 8v258l-183 362l-55 8v32h246z" />
    <glyph glyph-name="aacute" unicode="&#xe1;" horiz-adv-x="444" 
d="M131 545l134 144q15 16 27 26t28 10q22 0 35 -12.5t13 -25.5t-4 -21t-13.5 -15.5t-25.5 -17t-40 -24.5l-103 -64h-51zM269 279q-64 -17 -100.5 -51.5t-36.5 -91.5q0 -15 6 -29.5t15.5 -26t21.5 -18t23 -6.5q21 0 41 9.5t30 22.5v191zM369 87q0 -15 4 -26t20 -11q8 0 17 4
t17 10l17 -21q-4 -8 -13 -17.5t-21.5 -18.5t-27.5 -15t-32 -6q-38 0 -54.5 20.5t-22.5 46.5q-29 -30 -59.5 -48.5t-73.5 -18.5q-24 0 -44.5 9.5t-35.5 25.5t-23.5 37.5t-8.5 45.5q0 49 22.5 82t58 56.5t78 40t82.5 33.5v49q0 20 -7 37t-17.5 29.5t-23.5 19.5t-26 7
q-7 0 -12.5 -10.5t-14 -23t-20.5 -23t-32 -10.5q-57 0 -57 47q0 16 8 26.5t20.5 17t27.5 9t29 2.5q28 0 66.5 -8.5t73.5 -27.5t60 -49.5t25 -73.5v-247z" />
    <glyph glyph-name="acircumflex" unicode="&#xe2;" horiz-adv-x="444" 
d="M249 718l124 -173h-50l-113 101l-113 -101h-50l124 173h78zM269 279q-64 -17 -100.5 -51.5t-36.5 -91.5q0 -15 6 -29.5t15.5 -26t21.5 -18t23 -6.5q21 0 41 9.5t30 22.5v191zM369 87q0 -15 4 -26t20 -11q8 0 17 4t17 10l17 -21q-4 -8 -13 -17.5t-21.5 -18.5t-27.5 -15
t-32 -6q-38 0 -54.5 20.5t-22.5 46.5q-29 -30 -59.5 -48.5t-73.5 -18.5q-24 0 -44.5 9.5t-35.5 25.5t-23.5 37.5t-8.5 45.5q0 49 22.5 82t58 56.5t78 40t82.5 33.5v49q0 20 -7 37t-17.5 29.5t-23.5 19.5t-26 7q-7 0 -12.5 -10.5t-14 -23t-20.5 -23t-32 -10.5q-57 0 -57 47
q0 16 8 26.5t20.5 17t27.5 9t29 2.5q28 0 66.5 -8.5t73.5 -27.5t60 -49.5t25 -73.5v-247z" />
    <glyph glyph-name="adieresis" unicode="&#xe4;" horiz-adv-x="444" 
d="M49 616q0 23 16 41t43 18t43 -18t16 -41t-16 -41t-43 -18t-43 18t-16 41zM254 616q0 23 16 41t43 18t43 -18t16 -41t-16 -41t-43 -18t-43 18t-16 41zM269 279q-64 -17 -100.5 -51.5t-36.5 -91.5q0 -15 6 -29.5t15.5 -26t21.5 -18t23 -6.5q21 0 41 9.5t30 22.5v191z
M369 87q0 -15 4 -26t20 -11q8 0 17 4t17 10l17 -21q-4 -8 -13 -17.5t-21.5 -18.5t-27.5 -15t-32 -6q-38 0 -54.5 20.5t-22.5 46.5q-29 -30 -59.5 -48.5t-73.5 -18.5q-24 0 -44.5 9.5t-35.5 25.5t-23.5 37.5t-8.5 45.5q0 49 22.5 82t58 56.5t78 40t82.5 33.5v49q0 20 -7 37
t-17.5 29.5t-23.5 19.5t-26 7q-7 0 -12.5 -10.5t-14 -23t-20.5 -23t-32 -10.5q-57 0 -57 47q0 16 8 26.5t20.5 17t27.5 9t29 2.5q28 0 66.5 -8.5t73.5 -27.5t60 -49.5t25 -73.5v-247z" />
    <glyph glyph-name="agrave" unicode="&#xe0;" horiz-adv-x="444" 
d="M238 545l-103 64q-24 15 -40 24.5t-25.5 17t-13.5 15.5t-4 21t13 25.5t35 12.5q16 0 28 -10t27 -26l134 -144h-51zM269 279q-64 -17 -100.5 -51.5t-36.5 -91.5q0 -15 6 -29.5t15.5 -26t21.5 -18t23 -6.5q21 0 41 9.5t30 22.5v191zM369 87q0 -15 4 -26t20 -11q8 0 17 4
t17 10l17 -21q-4 -8 -13 -17.5t-21.5 -18.5t-27.5 -15t-32 -6q-38 0 -54.5 20.5t-22.5 46.5q-29 -30 -59.5 -48.5t-73.5 -18.5q-24 0 -44.5 9.5t-35.5 25.5t-23.5 37.5t-8.5 45.5q0 49 22.5 82t58 56.5t78 40t82.5 33.5v49q0 20 -7 37t-17.5 29.5t-23.5 19.5t-26 7
q-7 0 -12.5 -10.5t-14 -23t-20.5 -23t-32 -10.5q-57 0 -57 47q0 16 8 26.5t20.5 17t27.5 9t29 2.5q28 0 66.5 -8.5t73.5 -27.5t60 -49.5t25 -73.5v-247z" />
    <glyph glyph-name="aring" unicode="&#xe5;" horiz-adv-x="444" 
d="M155 649q0 -22 15 -38.5t40 -16.5q26 0 40.5 16.5t14.5 38.5t-14.5 38.5t-40.5 16.5q-25 0 -40 -16.5t-15 -38.5zM269 279q-64 -17 -100.5 -51.5t-36.5 -91.5q0 -15 6 -29.5t15.5 -26t21.5 -18t23 -6.5q21 0 41 9.5t30 22.5v191zM107 649q0 21 8 39.5t21.5 32.5
t32.5 22.5t41 8.5t41 -8.5t33 -22.5t21.5 -32.5t7.5 -39.5t-7.5 -39.5t-21.5 -32.5t-33 -22.5t-41 -8.5t-41 8.5t-32.5 22.5t-21.5 32.5t-8 39.5zM369 87q0 -15 4 -26t20 -11q8 0 17 4t17 10l17 -21q-4 -8 -13 -17.5t-21.5 -18.5t-27.5 -15t-32 -6q-38 0 -54.5 20.5
t-22.5 46.5q-29 -30 -59.5 -48.5t-73.5 -18.5q-24 0 -44.5 9.5t-35.5 25.5t-23.5 37.5t-8.5 45.5q0 49 22.5 82t58 56.5t78 40t82.5 33.5v49q0 20 -7 37t-17.5 29.5t-23.5 19.5t-26 7q-7 0 -12.5 -10.5t-14 -23t-20.5 -23t-32 -10.5q-57 0 -57 47q0 16 8 26.5t20.5 17
t27.5 9t29 2.5q28 0 66.5 -8.5t73.5 -27.5t60 -49.5t25 -73.5v-247z" />
    <glyph glyph-name="atilde" unicode="&#xe3;" horiz-adv-x="444" 
d="M269 279q-64 -17 -100.5 -51.5t-36.5 -91.5q0 -15 6 -29.5t15.5 -26t21.5 -18t23 -6.5q21 0 41 9.5t30 22.5v191zM34 567q5 24 14 45.5t23 37.5t33.5 25.5t45.5 9.5q23 0 43 -7.5t39 -17.5q18 -10 34.5 -17t30.5 -7q11 0 19.5 5t15 12t11 15.5t6.5 15.5h37
q-5 -24 -14 -45.5t-23 -37.5t-33.5 -25.5t-45.5 -9.5q-23 0 -43 7.5t-39 17.5q-18 10 -34.5 17t-30.5 7q-11 0 -19.5 -5t-15 -12t-11 -15.5t-6.5 -15.5h-37zM369 87q0 -15 4 -26t20 -11q8 0 17 4t17 10l17 -21q-4 -8 -13 -17.5t-21.5 -18.5t-27.5 -15t-32 -6
q-38 0 -54.5 20.5t-22.5 46.5q-29 -30 -59.5 -48.5t-73.5 -18.5q-24 0 -44.5 9.5t-35.5 25.5t-23.5 37.5t-8.5 45.5q0 49 22.5 82t58 56.5t78 40t82.5 33.5v49q0 20 -7 37t-17.5 29.5t-23.5 19.5t-26 7q-7 0 -12.5 -10.5t-14 -23t-20.5 -23t-32 -10.5q-57 0 -57 47
q0 16 8 26.5t20.5 17t27.5 9t29 2.5q28 0 66.5 -8.5t73.5 -27.5t60 -49.5t25 -73.5v-247z" />
    <glyph glyph-name="eacute" unicode="&#xe9;" horiz-adv-x="444" 
d="M155 545l134 144q15 16 27 26t28 10q22 0 35 -12.5t13 -25.5t-4 -21t-13.5 -15.5t-25.5 -17t-40 -24.5l-103 -64h-51zM240 301q30 8 42.5 26t12.5 54q0 38 -20.5 57.5t-54.5 19.5q-26 0 -44 -15t-29.5 -41t-17 -60t-5.5 -71zM134 229q1 -30 10 -60t26 -54t42.5 -39
t60.5 -15q23 0 38.5 5t27.5 14t22 21t22 26l27 -21q-18 -27 -37.5 -49t-42.5 -37.5t-50.5 -24.5t-61.5 -9q-44 0 -78 19.5t-57.5 52t-36 74.5t-12.5 86q0 47 12 96t37 88.5t63 65t89 25.5q40 0 72 -16t54.5 -43t35 -61t12.5 -70z" />
    <glyph glyph-name="ecircumflex" unicode="&#xea;" horiz-adv-x="444" 
d="M240 301q30 8 42.5 26t12.5 54q0 38 -20.5 57.5t-54.5 19.5q-26 0 -44 -15t-29.5 -41t-17 -60t-5.5 -71zM273 718l124 -173h-50l-113 101l-113 -101h-50l124 173h78zM134 229q1 -30 10 -60t26 -54t42.5 -39t60.5 -15q23 0 38.5 5t27.5 14t22 21t22 26l27 -21
q-18 -27 -37.5 -49t-42.5 -37.5t-50.5 -24.5t-61.5 -9q-44 0 -78 19.5t-57.5 52t-36 74.5t-12.5 86q0 47 12 96t37 88.5t63 65t89 25.5q40 0 72 -16t54.5 -43t35 -61t12.5 -70z" />
    <glyph glyph-name="edieresis" unicode="&#xeb;" horiz-adv-x="444" 
d="M73 616q0 23 16 41t43 18t43 -18t16 -41t-16 -41t-43 -18t-43 18t-16 41zM278 616q0 23 16 41t43 18t43 -18t16 -41t-16 -41t-43 -18t-43 18t-16 41zM240 301q30 8 42.5 26t12.5 54q0 38 -20.5 57.5t-54.5 19.5q-26 0 -44 -15t-29.5 -41t-17 -60t-5.5 -71zM134 229
q1 -30 10 -60t26 -54t42.5 -39t60.5 -15q23 0 38.5 5t27.5 14t22 21t22 26l27 -21q-18 -27 -37.5 -49t-42.5 -37.5t-50.5 -24.5t-61.5 -9q-44 0 -78 19.5t-57.5 52t-36 74.5t-12.5 86q0 47 12 96t37 88.5t63 65t89 25.5q40 0 72 -16t54.5 -43t35 -61t12.5 -70z" />
    <glyph glyph-name="egrave" unicode="&#xe8;" horiz-adv-x="444" 
d="M262 545l-103 64q-24 15 -40 24.5t-25.5 17t-13.5 15.5t-4 21t13 25.5t35 12.5q16 0 28 -10t27 -26l134 -144h-51zM240 301q30 8 42.5 26t12.5 54q0 38 -20.5 57.5t-54.5 19.5q-26 0 -44 -15t-29.5 -41t-17 -60t-5.5 -71zM134 229q1 -30 10 -60t26 -54t42.5 -39t60.5 -15
q23 0 38.5 5t27.5 14t22 21t22 26l27 -21q-18 -27 -37.5 -49t-42.5 -37.5t-50.5 -24.5t-61.5 -9q-44 0 -78 19.5t-57.5 52t-36 74.5t-12.5 86q0 47 12 96t37 88.5t63 65t89 25.5q40 0 72 -16t54.5 -43t35 -61t12.5 -70z" />
    <glyph glyph-name="iacute" unicode="&#xed;" horiz-adv-x="278" 
d="M60 545l134 144q15 16 27 26t28 10q22 0 35 -12.5t13 -25.5t-4 -21t-13.5 -15.5t-25.5 -17t-40 -24.5l-103 -64h-51zM40 0v27l55 10v339q0 25 -14 34t-41 9v27l155 47v-456l55 -10v-27h-210z" />
    <glyph glyph-name="icircumflex" unicode="&#xee;" horiz-adv-x="278" 
d="M178 718l124 -173h-50l-113 101l-113 -101h-50l124 173h78zM40 0v27l55 10v339q0 25 -14 34t-41 9v27l155 47v-456l55 -10v-27h-210z" />
    <glyph glyph-name="idieresis" unicode="&#xef;" horiz-adv-x="278" 
d="M183 616q0 23 16 41t43 18t43 -18t16 -41t-16 -41t-43 -18t-43 18t-16 41zM-22 616q0 23 16 41t43 18t43 -18t16 -41t-16 -41t-43 -18t-43 18t-16 41zM40 0v27l55 10v339q0 25 -14 34t-41 9v27l155 47v-456l55 -10v-27h-210z" />
    <glyph glyph-name="igrave" unicode="&#xec;" horiz-adv-x="278" 
d="M167 545l-103 64q-24 15 -40 24.5t-25.5 17t-13.5 15.5t-4 21t13 25.5t35 12.5q16 0 28 -10t27 -26l134 -144h-51zM40 0v27l55 10v339q0 25 -14 34t-41 9v27l155 47v-456l55 -10v-27h-210z" />
    <glyph glyph-name="ntilde" unicode="&#xf1;" horiz-adv-x="556" 
d="M102 567q5 24 14 45.5t23 37.5t33.5 25.5t45.5 9.5q23 0 43 -7.5t39 -17.5q18 -10 34.5 -17t30.5 -7q11 0 19.5 5t15 12t11 15.5t6.5 15.5h37q-5 -24 -14 -45.5t-23 -37.5t-33.5 -25.5t-45.5 -9.5q-23 0 -43 7.5t-39 17.5q-18 10 -34.5 17t-30.5 7q-11 0 -19.5 -5
t-15 -12t-11 -15.5t-6.5 -15.5h-37zM141 493q14 -13 25.5 -37.5t16.5 -45.5q28 34 66.5 58.5t73.5 24.5q71 0 111.5 -43.5t40.5 -121.5v-291l48 -10v-27h-196v27l48 10v283q0 18 -4.5 35.5t-15 31.5t-28.5 22.5t-44 8.5q-18 0 -31 -5t-24 -13.5t-20.5 -19t-19.5 -21.5v-322
l48 -10v-27h-203v27l55 10v296q0 22 -2 38t-8.5 26.5t-19.5 16t-35 5.5v27z" />
    <glyph glyph-name="oacute" unicode="&#xf3;" 
d="M171 545l134 144q15 16 27 26t28 10q22 0 35 -12.5t13 -25.5t-4 -21t-13.5 -15.5t-25.5 -17t-40 -24.5l-103 -64h-51zM250 21q30 0 49.5 22t31 54.5t16 70.5t4.5 71q0 108 -23 163.5t-78 55.5t-78 -55t-23 -164q0 -51 4.5 -91t16 -68.5t31 -43.5t49.5 -15zM250 -14
q-50 0 -89.5 19t-67.5 53t-43 80.5t-15 100.5q0 51 15.5 97t43.5 81t68 55.5t88 20.5t88 -20.5t68 -55.5t43.5 -81t15.5 -97q0 -43 -15 -88t-43 -81.5t-68 -60t-89 -23.5z" />
    <glyph glyph-name="ocircumflex" unicode="&#xf4;" 
d="M289 718l124 -173h-50l-113 101l-113 -101h-50l124 173h78zM250 21q30 0 49.5 22t31 54.5t16 70.5t4.5 71q0 108 -23 163.5t-78 55.5t-78 -55t-23 -164q0 -51 4.5 -91t16 -68.5t31 -43.5t49.5 -15zM250 -14q-50 0 -89.5 19t-67.5 53t-43 80.5t-15 100.5q0 51 15.5 97
t43.5 81t68 55.5t88 20.5t88 -20.5t68 -55.5t43.5 -81t15.5 -97q0 -43 -15 -88t-43 -81.5t-68 -60t-89 -23.5z" />
    <glyph glyph-name="odieresis" unicode="&#xf6;" 
d="M89 616q0 23 16 41t43 18t43 -18t16 -41t-16 -41t-43 -18t-43 18t-16 41zM294 616q0 23 16 41t43 18t43 -18t16 -41t-16 -41t-43 -18t-43 18t-16 41zM250 21q30 0 49.5 22t31 54.5t16 70.5t4.5 71q0 108 -23 163.5t-78 55.5t-78 -55t-23 -164q0 -51 4.5 -91t16 -68.5
t31 -43.5t49.5 -15zM250 -14q-50 0 -89.5 19t-67.5 53t-43 80.5t-15 100.5q0 51 15.5 97t43.5 81t68 55.5t88 20.5t88 -20.5t68 -55.5t43.5 -81t15.5 -97q0 -43 -15 -88t-43 -81.5t-68 -60t-89 -23.5z" />
    <glyph glyph-name="ograve" unicode="&#xf2;" 
d="M278 545l-103 64q-24 15 -40 24.5t-25.5 17t-13.5 15.5t-4 21t13 25.5t35 12.5q16 0 28 -10t27 -26l134 -144h-51zM250 21q30 0 49.5 22t31 54.5t16 70.5t4.5 71q0 108 -23 163.5t-78 55.5t-78 -55t-23 -164q0 -51 4.5 -91t16 -68.5t31 -43.5t49.5 -15zM250 -14
q-50 0 -89.5 19t-67.5 53t-43 80.5t-15 100.5q0 51 15.5 97t43.5 81t68 55.5t88 20.5t88 -20.5t68 -55.5t43.5 -81t15.5 -97q0 -43 -15 -88t-43 -81.5t-68 -60t-89 -23.5z" />
    <glyph glyph-name="otilde" unicode="&#xf5;" 
d="M74 567q5 24 14 45.5t23 37.5t33.5 25.5t45.5 9.5q23 0 43 -7.5t39 -17.5q18 -10 34.5 -17t30.5 -7q11 0 19.5 5t15 12t11 15.5t6.5 15.5h37q-5 -24 -14 -45.5t-23 -37.5t-33.5 -25.5t-45.5 -9.5q-23 0 -43 7.5t-39 17.5q-18 10 -34.5 17t-30.5 7q-11 0 -19.5 -5t-15 -12
t-11 -15.5t-6.5 -15.5h-37zM250 21q30 0 49.5 22t31 54.5t16 70.5t4.5 71q0 108 -23 163.5t-78 55.5t-78 -55t-23 -164q0 -51 4.5 -91t16 -68.5t31 -43.5t49.5 -15zM250 -14q-50 0 -89.5 19t-67.5 53t-43 80.5t-15 100.5q0 51 15.5 97t43.5 81t68 55.5t88 20.5t88 -20.5
t68 -55.5t43.5 -81t15.5 -97q0 -43 -15 -88t-43 -81.5t-68 -60t-89 -23.5z" />
    <glyph glyph-name="uacute" unicode="&#xfa;" horiz-adv-x="556" 
d="M199 545l134 144q15 16 27 26t28 10q22 0 35 -12.5t13 -25.5t-4 -21t-13.5 -15.5t-25.5 -17t-40 -24.5l-103 -64h-51zM182 130q0 -26 8.5 -41.5t22 -24t29.5 -11t31 -2.5q19 0 37 7t32 17t22 21t8 19v247q0 17 -2 27.5t-7 16.5t-14.5 8.5t-24.5 4.5v27l148 47v-388
q0 -17 2 -27.5t7 -16.5t14.5 -9t24.5 -4v-27l-108 -35q-15 16 -22.5 36.5t-12.5 40.5q-29 -37 -68 -57t-96 -20q-21 0 -44 7.5t-42.5 24t-32 42t-12.5 61.5v241q0 17 -2 27.5t-7 16.5t-14.5 8.5t-24.5 4.5v27l148 47v-363z" />
    <glyph glyph-name="ucircumflex" unicode="&#xfb;" horiz-adv-x="556" 
d="M317 718l124 -173h-50l-113 101l-113 -101h-50l124 173h78zM182 130q0 -26 8.5 -41.5t22 -24t29.5 -11t31 -2.5q19 0 37 7t32 17t22 21t8 19v247q0 17 -2 27.5t-7 16.5t-14.5 8.5t-24.5 4.5v27l148 47v-388q0 -17 2 -27.5t7 -16.5t14.5 -9t24.5 -4v-27l-108 -35
q-15 16 -22.5 36.5t-12.5 40.5q-29 -37 -68 -57t-96 -20q-21 0 -44 7.5t-42.5 24t-32 42t-12.5 61.5v241q0 17 -2 27.5t-7 16.5t-14.5 8.5t-24.5 4.5v27l148 47v-363z" />
    <glyph glyph-name="udieresis" unicode="&#xfc;" horiz-adv-x="556" 
d="M322 616q0 23 16 41t43 18t43 -18t16 -41t-16 -41t-43 -18t-43 18t-16 41zM117 616q0 23 16 41t43 18t43 -18t16 -41t-16 -41t-43 -18t-43 18t-16 41zM182 130q0 -26 8.5 -41.5t22 -24t29.5 -11t31 -2.5q19 0 37 7t32 17t22 21t8 19v247q0 17 -2 27.5t-7 16.5t-14.5 8.5
t-24.5 4.5v27l148 47v-388q0 -17 2 -27.5t7 -16.5t14.5 -9t24.5 -4v-27l-108 -35q-15 16 -22.5 36.5t-12.5 40.5q-29 -37 -68 -57t-96 -20q-21 0 -44 7.5t-42.5 24t-32 42t-12.5 61.5v241q0 17 -2 27.5t-7 16.5t-14.5 8.5t-24.5 4.5v27l148 47v-363z" />
    <glyph glyph-name="ugrave" unicode="&#xf9;" horiz-adv-x="556" 
d="M306 545l-103 64q-24 15 -40 24.5t-25.5 17t-13.5 15.5t-4 21t13 25.5t35 12.5q16 0 28 -10t27 -26l134 -144h-51zM182 130q0 -26 8.5 -41.5t22 -24t29.5 -11t31 -2.5q19 0 37 7t32 17t22 21t8 19v247q0 17 -2 27.5t-7 16.5t-14.5 8.5t-24.5 4.5v27l148 47v-388
q0 -17 2 -27.5t7 -16.5t14.5 -9t24.5 -4v-27l-108 -35q-15 16 -22.5 36.5t-12.5 40.5q-29 -37 -68 -57t-96 -20q-21 0 -44 7.5t-42.5 24t-32 42t-12.5 61.5v241q0 17 -2 27.5t-7 16.5t-14.5 8.5t-24.5 4.5v27l148 47v-363z" />
    <glyph glyph-name="ydieresis" unicode="&#xff;" horiz-adv-x="444" 
d="M266 616q0 23 16 41t43 18t43 -18t16 -41t-16 -41t-43 -18t-43 18t-16 41zM61 616q0 23 16 41t43 18t43 -18t16 -41t-16 -41t-43 -18t-43 18t-16 41zM-11 455l124 38l154 -380q13 30 27.5 62.5t28 65t24 62t16.5 52.5q-25 13 -42.5 32t-17.5 42q0 32 16 48t45 16t45 -16
t16 -48q0 -16 -8.5 -45.5t-20.5 -64t-26.5 -70t-26.5 -63.5q-48 -111 -83.5 -182.5t-63 -112t-48.5 -56t-38 -15.5q-14 0 -27 2.5t-23.5 8.5t-17 16t-6.5 25q0 27 14 42.5t41 15.5q26 0 43 -7t27 -7q6 0 12.5 9t13 22t12 27.5t9.5 25.5l-121 305q-17 41 -28 65t-21 36.5
t-21.5 16t-27.5 5.5v27z" />
    <glyph glyph-name="exclam" unicode="!" horiz-adv-x="333" 
d="M230 56q0 -28 -19 -47t-47 -19q-27 0 -46.5 19t-19.5 47t19.5 47t46.5 19q28 0 47 -19t19 -47zM152 193q0 62 -2.5 116t-10.5 116q-3 22 -9 50l-12 56t-11 54t-5 46q0 39 15.5 61.5t51.5 22.5t51.5 -22.5t15.5 -61.5q0 -20 -5 -46t-11 -54l-12 -56t-9 -50
q-8 -62 -10.5 -116t-2.5 -116h-34z" />
    <glyph glyph-name="quotedbl" unicode="&#x22;" horiz-adv-x="333" 
d="M247 399q-12 0 -16.5 10.5t-5.5 20.5l-18 204q-1 6 -1 13v15q0 20 8.5 36.5t32.5 16.5t32.5 -16.5t8.5 -36.5v-15t-1 -13l-18 -204q-1 -10 -5.5 -20.5t-16.5 -10.5zM86 399q-12 0 -16.5 10.5t-5.5 20.5l-18 204q-1 6 -1 13v15q0 20 8.5 36.5t32.5 16.5t32.5 -16.5
t8.5 -36.5v-15t-1 -13l-18 -204q-1 -10 -5.5 -20.5t-16.5 -10.5z" />
    <glyph glyph-name="Lslash" unicode="&#x141;" horiz-adv-x="556" 
d="M220 400l138 53v-42l-138 -53v-318q14 -5 26 -6.5t25 -1.5q51 0 87.5 12t63.5 34.5t49 55t45 74.5l38 -9l-55 -214q-14 8 -38.5 11.5t-54.5 3.5h-363v32l55 8v273l-82 -31v42l82 31v305l-55 8v32h232v-32l-55 -8v-260z" />
    <glyph glyph-name="lslash" unicode="&#x142;" horiz-adv-x="278" 
d="M195 37l55 -10v-27h-210v27l55 10v326l-81 -31v42l81 31v229q0 25 -14 34t-41 9v27l155 60v-321l83 31v-42l-83 -31v-364z" />
    <glyph glyph-name="threequarters" unicode="&#xbe;" horiz-adv-x="750" 
d="M591 715h60l-441 -730h-60zM409 97v34q24 32 45.5 68t39 73.5t30.5 75t19 72.5h84v-2q-9 -21 -28 -54.5t-45.5 -73.5t-57.5 -82t-64 -79h132v121q23 26 43 53t33 46h2v-220h58v-32h-58v-68l37 -6v-23h-156v23l41 6v68h-155zM289 614q0 -23 -9 -40t-23.5 -29t-33 -20
t-37.5 -12v-2q51 -13 82.5 -41t31.5 -78q0 -30 -13.5 -51.5t-36 -35.5t-50.5 -21t-56 -7q-21 0 -44 5.5t-41.5 15.5t-31 25t-12.5 33q0 13 10 26t27 13q24 0 34.5 -14t10.5 -36q0 -7 -3 -17.5t-5 -16.5q11 -5 24 -7t26 -2q41 0 60 29t19 70q0 57 -23 78.5t-58 21.5
q-7 0 -11.5 -1t-9.5 -1q-6 2 -10.5 5t-4.5 11q0 10 15 13q7 0 13 -1t14 -1q34 0 50 22.5t16 62.5q0 15 -4 29t-12 25t-20.5 18t-30.5 7q-10 0 -20 -2.5t-17 -3.5q2 -9 6 -20t4 -19q0 -20 -13 -33t-31 -13q-17 0 -27.5 10.5t-10.5 25.5q0 17 10 32t26.5 25.5t37 16.5t42.5 6
q27 0 52.5 -5.5t45 -18t31 -31.5t11.5 -46z" />
    <glyph glyph-name="onequarter" unicode="&#xbc;" horiz-adv-x="750" 
d="M50 286v26l77 6v294q0 29 -8.5 35t-28.5 6h-19q-10 0 -20 -1v26q38 7 76.5 15.5t79.5 21.5v-397l64 -6v-26h-221zM596 715h60l-441 -730h-60zM409 97v34q24 32 45.5 68t39 73.5t30.5 75t19 72.5h84v-2q-9 -21 -28 -54.5t-45.5 -73.5t-57.5 -82t-64 -79h132v121
q23 26 43 53t33 46h2v-220h58v-32h-58v-68l37 -6v-23h-156v23l41 6v68h-155z" />
    <glyph glyph-name="onesuperior" unicode="&#xb9;" horiz-adv-x="300" 
d="M56 286v26l77 6v294q0 29 -8.5 35t-28.5 6h-19q-10 0 -20 -1v26q38 7 76.5 15.5t79.5 21.5v-397l64 -6v-26h-221z" />
    <glyph glyph-name="multiply" unicode="&#xd7;" horiz-adv-x="600" 
d="M61 426l54 51l184 -183l187 185l54 -51l-188 -186l188 -188l-53 -53l-188 188l-187 -185l-51 52l186 186z" />
    <glyph glyph-name="Thorn" unicode="&#xde;" horiz-adv-x="611" 
d="M227 224q9 -3 23 -5.5t27 -2.5q36 0 68 9.5t56 29t38 50t14 72.5q0 71 -38.5 112t-119.5 41q-17 0 -35 -2.5t-33 -7.5v-296zM105 660l-55 8v32h232v-32l-55 -8v-98h83q52 0 101.5 -9.5t88 -31.5t62 -58t23.5 -90t-23.5 -90t-62 -58t-88 -31.5t-101.5 -9.5h-83v-144l55 -8
v-32h-232v32l55 8v620z" />
    <glyph glyph-name="brokenbar" unicode="&#xa6;" horiz-adv-x="222" 
d="M73 675h77v-350h-77v350zM73 175h77v-350h-77v350z" />
    <glyph glyph-name="Eth" unicode="&#xd0;" horiz-adv-x="667" 
d="M215 40q22 -8 74 -8q43 0 80 13.5t64 49.5t42 97.5t15 157.5t-15 157.5t-42 97.5t-64 49.5t-80 13.5q-52 0 -74 -8v-272h129v-42h-129v-306zM93 346h-61v42h61v272l-55 8v32h269q86 0 146 -32.5t97.5 -83t54.5 -112.5t17 -122t-17 -122t-54.5 -112.5t-97.5 -83
t-146 -32.5h-269v32l55 8v306z" />
    <glyph glyph-name="onehalf" unicode="&#xbd;" horiz-adv-x="750" 
d="M50 286v26l77 6v294q0 29 -8.5 35t-28.5 6h-19q-10 0 -20 -1v26q38 7 76.5 15.5t79.5 21.5v-397l64 -6v-26h-221zM560 715h60l-441 -730h-60zM431 0v28q21 29 42.5 59.5t46.5 58.5q18 20 35 40t30.5 40.5t21.5 42.5t8 47q0 15 -4.5 30t-14 27.5t-25 20.5t-36.5 8
q-14 0 -28 -6t-22 -19q12 -14 19 -25t7 -29q0 -16 -11 -26t-28 -10q-21 0 -29.5 14t-8.5 31q0 20 10.5 38t28 31t40 20.5t47.5 7.5t49 -7t42.5 -21t29.5 -35t11 -49q0 -41 -19.5 -68.5t-49.5 -53t-66.5 -55.5t-70.5 -75h111q20 0 33 3.5t22 10t15.5 17.5t12.5 26l22 -4
l-29 -127q-6 4 -16 6.5t-27 2.5h-199z" />
    <glyph glyph-name="minus" unicode="&#x2212;" horiz-adv-x="600" 
d="M61 278h479v-77h-479v77z" />
    <glyph glyph-name="eth" unicode="&#xf0;" 
d="M250 458q-27 0 -46.5 -11.5t-31.5 -38t-17.5 -68t-5.5 -101.5q0 -51 4.5 -91t16 -68.5t31 -43.5t49.5 -15t49.5 15t31 43.5t16 68.5t4.5 91q0 60 -5.5 101.5t-17.5 68t-31.5 38t-46.5 11.5zM168 764q22 -19 44 -39t42 -42l166 51l12 -32l-151 -47q39 -44 72.5 -91.5
t58.5 -98t39 -101.5t14 -102q0 -59 -15 -109t-43 -87.5t-68 -58.5t-89 -21q-50 0 -89.5 21t-67.5 56t-43 80.5t-15 95.5q0 51 15.5 97t43.5 81t68 55.5t88 20.5q14 0 27.5 -2t30.5 -7q-9 33 -31.5 75t-48.5 80l-152 -47l-12 32l143 44q-20 28 -37.5 50t-31.5 36z" />
    <glyph glyph-name="thorn" unicode="&#xfe;" 
d="M176 77q0 -5 6.5 -14.5t17.5 -18.5t26 -16t32 -7q26 0 44.5 15t30 41t17 59.5t5.5 71.5t-6 75t-19 66.5t-34.5 47.5t-52.5 18q-11 0 -23 -4t-21.5 -10.5t-16 -14.5t-6.5 -16v-293zM28 -167v27l48 10v781q0 14 -11 19t-28 5v27l139 62v-337q24 28 53.5 47t66.5 19
q33 0 61.5 -15.5t50.5 -45.5t34.5 -75t12.5 -104q0 -41 -11.5 -88t-35 -86.5t-60 -66t-85.5 -26.5q-12 0 -38 4.5t-49 18.5v-139l48 -10v-27h-196z" />
    <glyph glyph-name="twosuperior" unicode="&#xb2;" horiz-adv-x="300" 
d="M16 286v28q21 29 42.5 59.5t46.5 58.5q18 20 35 40t29.5 40.5t20.5 42.5t8 47q0 13 -4 27t-13.5 26t-24.5 20t-36 8q-14 0 -28 -5.5t-22 -14.5q12 -14 20.5 -25t8.5 -29q0 -16 -12.5 -26t-29.5 -10q-21 0 -30.5 14t-9.5 31q0 20 10.5 38t28.5 31t41 20.5t48 7.5t49.5 -7
t43.5 -21t30.5 -35t11.5 -49q0 -41 -19.5 -68.5t-49.5 -52.5t-66 -54t-69 -72h106q20 0 33 3.5t22 10t15.5 17.5t12.5 26l22 -9l-29 -127q-6 4 -16 6.5t-27 2.5h-199z" />
    <glyph glyph-name="threesuperior" unicode="&#xb3;" horiz-adv-x="300" 
d="M201 611q0 15 -4 29t-12 25t-20.5 18t-30.5 7q-10 0 -20 -2.5t-17 -3.5q2 -9 6 -20t4 -19q0 -20 -13 -33t-31 -13q-17 0 -27.5 10.5t-10.5 25.5q0 17 10 32t26.5 25.5t37 16.5t42.5 6q27 0 52.5 -5.5t45 -18t31 -31.5t11.5 -46q0 -23 -9 -40t-23.5 -29t-33 -20t-37.5 -12
v-2q51 -13 82.5 -41t31.5 -78q0 -30 -13.5 -51.5t-36 -35.5t-50.5 -21t-56 -7q-21 0 -44 5.5t-41.5 15.5t-31 25t-12.5 33q0 13 10 26t27 13q24 0 34.5 -14t10.5 -36q0 -7 -3 -17.5t-5 -16.5q11 -5 24 -7t26 -2q41 0 60 29t19 70q0 57 -23 78.5t-58 21.5q-7 0 -11.5 -1
t-9.5 -1q-6 2 -10.5 5t-4.5 11q0 10 15 13q7 0 13 -1t14 -1q34 0 50 22.5t16 62.5z" />
    <glyph glyph-name="Scaron" unicode="&#x160;" horiz-adv-x="556" 
d="M239 743l-124 173h50l113 -101l113 101h50l-124 -173h-78zM484 507l-35 -9q-14 28 -31.5 59t-41 57.5t-52.5 43.5t-66 17q-54 0 -85.5 -28t-31.5 -75q0 -49 27.5 -77t69.5 -47.5t90 -35.5t90 -42t69.5 -67t27.5 -110q0 -46 -17.5 -84t-47.5 -65.5t-70 -43t-85 -15.5
q-28 0 -52 5t-44.5 11t-37 11t-29.5 5q-16 0 -32 -5.5t-32 -11.5l-38 213l38 5q17 -36 40 -71t52 -62t64.5 -43.5t77.5 -16.5q25 0 48 9.5t40 26t27.5 38.5t10.5 47q0 47 -27 74.5t-68 47.5t-88.5 37.5t-88.5 44.5t-68 69.5t-27 112.5q0 35 13.5 68t39 58.5t60.5 41t79 15.5
q23 0 39.5 -2.5t30.5 -7.5t27.5 -8t27.5 -3q16 0 34 5t35 16z" />
    <glyph glyph-name="Yacute" unicode="&#xdd;" horiz-adv-x="556" 
d="M199 743l134 144q15 16 27 26t28 10q22 0 35 -12.5t13 -25.5t-4 -21t-13.5 -15.5t-25.5 -17t-40 -24.5l-103 -64h-51zM226 700v-32l-55 -8l152 -308l95 184q14 26 21.5 46t7.5 36q0 13 -6 22t-15.5 14t-21.5 8l-24 6v32h201v-32q-30 -3 -53.5 -25.5t-40.5 -55.5
l-147 -292v-255l55 -8v-32h-232v32l55 8v258l-183 362l-55 8v32h246z" />
    <glyph glyph-name="Zcaron" unicode="&#x17d;" horiz-adv-x="556" 
d="M239 743l-124 173h50l113 -101l113 101h50l-124 -173h-78zM45 514l49 201q14 -8 38.5 -11.5t54.5 -3.5h328v-42l-363 -626h91q49 0 86.5 15t66 39.5t49.5 56.5t38 65l36 -4l-54 -219q-14 8 -38.5 11.5t-54.5 3.5h-349v42l361 626h-86q-45 0 -78.5 -13t-59 -35t-45 -51
t-36.5 -60z" />
    <glyph glyph-name="scaron" unicode="&#x161;" horiz-adv-x="389" 
d="M156 545l-124 173h50l113 -101l113 101h50l-124 -173h-78zM179 -14q-24 0 -51.5 3.5t-51.5 12.5t-40 25.5t-16 43.5q0 23 16 38.5t38 15.5q18 0 31 -6.5t21 -16.5t12.5 -22.5t6.5 -25.5q3 -23 14.5 -28t29.5 -5q39 0 64.5 19t25.5 58q0 28 -17.5 46.5t-43.5 32.5t-57 27
t-57 30t-43.5 41t-17.5 61q0 39 19.5 68t49 49t64.5 30t67 10t57 -15t25 -45q0 -26 -15.5 -38t-36.5 -12q-34 0 -52.5 20.5t-26.5 54.5q-32 -4 -55.5 -24.5t-23.5 -52.5q0 -25 18 -40.5t45.5 -27.5t59 -24t59 -30.5t45.5 -47t18 -72.5q0 -39 -14.5 -67.5t-39 -47.5
t-57.5 -28.5t-70 -9.5z" />
    <glyph glyph-name="yacute" unicode="&#xfd;" horiz-adv-x="444" 
d="M143 545l134 144q15 16 27 26t28 10q22 0 35 -12.5t13 -25.5t-4 -21t-13.5 -15.5t-25.5 -17t-40 -24.5l-103 -64h-51zM-11 455l124 38l154 -380q13 30 27.5 62.5t28 65t24 62t16.5 52.5q-25 13 -42.5 32t-17.5 42q0 32 16 48t45 16t45 -16t16 -48q0 -16 -8.5 -45.5
t-20.5 -64t-26.5 -70t-26.5 -63.5q-48 -111 -83.5 -182.5t-63 -112t-48.5 -56t-38 -15.5q-14 0 -27 2.5t-23.5 8.5t-17 16t-6.5 25q0 27 14 42.5t41 15.5q26 0 43 -7t27 -7q6 0 12.5 9t13 22t12 27.5t9.5 25.5l-121 305q-17 41 -28 65t-21 36.5t-21.5 16t-27.5 5.5v27z" />
    <glyph glyph-name="zcaron" unicode="&#x17e;" horiz-adv-x="444" 
d="M183 545l-124 173h50l113 -101l113 101h50l-124 -173h-78zM139 35h55q39 0 71 15.5t56.5 38t41 49t25.5 49.5l32 -9l-50 -185q-14 4 -27 5.5t-33 1.5h-286v40l267 402q-8 1 -17 1.5t-22 0.5q-65 0 -109.5 -37.5t-68.5 -92.5l-30 8l43 164q14 -4 27 -5.5t33 -1.5h268v-27z
" />
    <glyph glyph-name="nonbreakingspace" horiz-adv-x="250" 
 />
    <glyph glyph-name="Euro" unicode="&#x20ac;" 
d="M188 399q0 -23 1 -45t3 -45h171l-6 -45h-160q6 -45 17 -85t27 -70.5t37.5 -48.5t48.5 -18q19 0 36.5 11t32 29.5t25.5 43.5t18 52l33 -12q-23 -89 -70.5 -135t-116.5 -46q-44 0 -80 21.5t-62.5 59t-44 88.5t-23.5 110h-55l6 45h46v24q0 31 3 66h-55l6 45h55
q8 52 24.5 101t40.5 87t56.5 60.5t72.5 22.5q27 0 52 -10q13 -5 23 -8t18 -3q9 0 24 6t29 15l49 -212l-38 -9q-11 32 -24.5 65t-29.5 60t-35.5 44t-42.5 17q-27 0 -46.5 -20.5t-33 -54t-21.5 -76t-10 -85.5h193l-6 -45h-188z" />
    </font>
</defs>
</svg>
